<svg xmlns="http://www.w3.org/2000/svg" viewBox="0 0 2354.04 1625.59"><defs><style>.cls-1{fill:#fff;}.cls-10,.cls-2{fill:#ff5c33;}.cls-3{fill:#007bff;}.cls-4{fill:#bcd5ff;}.cls-14,.cls-5{fill:#4a191b;}.cls-15,.cls-5{opacity:0.3;}.cls-15,.cls-6,.cls-8{fill:#001f40;}.cls-7{fill:#ffb900;}.cls-8{opacity:0.1;}.cls-9{fill:#ffba9a;}.cls-10{opacity:0.2;}.cls-11{fill:#e2edff;}.cls-12{fill:none;}.cls-13{fill:#974245;}.cls-16{fill:#95beff;}</style></defs><g id="Layer_2" data-name="Layer 2"><g id="OBJECTS"><path class="cls-1" d="M538.37,1141.4l-3.72-1.45c74.55-191.1,269.86-327,475-330.58,54.92-.94,110.18,6.91,163.64,14.51,24.74,3.52,50.33,7.16,75.54,9.88,62.83,6.76,155.52,11.37,234.64-26.66,78.47-37.72,127.49-115.23,119.21-188.5l4-.45c8.46,74.94-41.48,154.12-121.45,192.55s-173.48,33.86-236.81,27c-25.27-2.72-50.9-6.36-75.68-9.89-53.3-7.58-108.4-15.44-163-14.47C806.16,816.89,612.35,951.78,538.37,1141.4Z"/><path class="cls-1" d="M2083.24,1076.6l-3.5-1.94c27.92-50.5,56.8-102.72,66.19-160.79,8.12-50.15-.38-118.11-48.57-158.47-36.53-30.6-86.23-37.75-134.31-44.67l-10.28-1.49c-50.94-7.47-107.27-20.79-138.86-62.86l3.19-2.4c30.73,40.91,86.12,53.95,136.25,61.3l10.27,1.49c48.63,7,98.91,14.24,136.31,45.56,49.47,41.44,58.24,110.95,50,162.18C2140.38,973.26,2111.33,1025.8,2083.24,1076.6Z"/><path class="cls-1" d="M293.57,1259.73c-28.71,0-60.13-4.71-89.95-18.76-49.26-23.2-83.09-69.29-86.18-117.42-1.41-22,3.31-44,7.88-65.16.82-3.81,1.64-7.62,2.42-11.42,5.09-24.64,8.75-50.77,1.27-75a118.39,118.39,0,0,1-13.79,11.66c-15.79,11.4-37.52,16.49-54,12.68-10.71-2.47-18.88-8.48-23.65-17.37-5.39-10.06-4.67-22.29,2-33.56,7.89-13.34,22.09-22.06,36.16-22.21h.5c25.08,0,45.43,19.85,54.38,41.31,17.9-19.88,29.18-46.14,30.54-72.69,1.76-34.46-13.16-70.11-38.94-93.05l2.66-3a120.51,120.51,0,0,1,7.35,173c.22.61.42,1.23.61,1.84,7.83,25.1,4.1,51.92-1.11,77.15-.78,3.81-1.6,7.63-2.43,11.45-4.51,21-9.17,42.61-7.8,64.07,3,46.69,35.93,91.47,83.89,114,51.5,24.26,108,20.1,146.32,12.34,49.22-10,96-30.47,141.26-50.3l1.6,3.66c-45.44,19.92-92.42,40.51-142.07,50.56A299,299,0,0,1,293.57,1259.73ZM76.18,927.22h-.46C63,927.36,50.15,935.3,43,947.47c-5.93,10-6.62,20.83-1.9,29.63,4.2,7.85,11.47,13.16,21,15.36,15.48,3.58,35.89-1.26,50.81-12a111.77,111.77,0,0,0,14.65-12.69C119.51,946.94,100.13,927.22,76.18,927.22Z"/><circle class="cls-2" cx="994.69" cy="1595.2" r="30.39" transform="translate(-524.55 487.96) rotate(-21.97)"/><circle class="cls-3" cx="100.26" cy="401.17" r="21.71" transform="translate(-313.2 407.48) rotate(-76.84)"/><circle class="cls-3" cx="2334.51" cy="1041.99" r="19.54" transform="translate(-221.05 972.69) rotate(-22.5)"/><rect class="cls-4" x="2139.13" y="1404.52" width="39.08" height="39.08" transform="translate(1639.22 -1109.31) rotate(45)"/><rect class="cls-4" x="1245.33" y="56.42" width="39.08" height="39.08" transform="translate(424.18 -872.15) rotate(45)"/><path class="cls-2" d="M1808.06,738.41c-2.21,40-25.26,179.71-55,278.32-9.72,32.39-20.19,60.35-30.91,78.89-1.13,2-2.26,3.91-3.43,5.69l-84.32-6.86q9-21.89,18.19-45c10.33-26.1,20.71-53.32,30.7-81.5,26.87-75.86,50.76-158.53,62.57-244.06Z"/><path class="cls-5" d="M1753.05,1016.73c-9.72,32.39-20.19,60.35-30.91,78.89l-69.56-46.15c10.33-26.1,20.71-53.32,30.7-81.5C1711.15,978.48,1734.77,994.32,1753.05,1016.73Z"/><path class="cls-3" d="M2019.56,302.52l-98.07,528.15L1379.12,730l34.75-187.15a96.86,96.86,0,0,1-52.79,4.86c-51.7-9.6-86-58.15-76.66-108.48s58.79-83.32,110.49-73.72A96.34,96.34,0,0,1,1442.44,389l34.75-187.15,191.29,35.52a90.36,90.36,0,0,1-4.89-50c9.34-50.29,58.84-83.31,110.5-73.72s86,58.19,76.65,108.47A90.6,90.6,0,0,1,1828.27,267Z"/><path class="cls-1" d="M1676.82,307.52c35.79,6.49,70.34-9.23,103.76-24.45,7.26-3.3,14.76-6.72,22.09-9.81q14.82-6.25,29.49-10.79c.77-1,1.48-2,2.22-2.94a323.34,323.34,0,0,0-32.56,11.73c-7.35,3.1-14.87,6.52-22.14,9.84-33.12,15.08-67.36,30.67-102.47,24.29-40.7-7.4-68.87-43.16-80.62-81.41l-2.41-.45a140.4,140.4,0,0,0,22,44.32C1632.46,289.56,1653.44,303.27,1676.82,307.52Z"/><path class="cls-1" d="M1921,492.78c-27.77,2.59-56.48,5.26-82.08,15.38-59.1,23.36-99.87,89.26-99.15,160.25.48,46.4,17,93.85,47.38,137.31l3.09.57c-30.9-43.59-47.82-91.29-48.3-137.91-.71-70.11,39.49-135.16,97.78-158.2,25.31-10,53.87-12.67,81.48-15.24,21.77-2,43.94-4.12,64.5-9.9l.42-2.26C1965.88,488.58,1943.78,490.65,1921,492.78Z"/><path class="cls-1" d="M1339.69,541.09c30.12-25.84,66.38-39.52,101-36.49,20.82,1.82,41.13,9.39,60.77,16.7,24.5,9.14,49.82,18.58,76.23,16.78,38.81-2.67,71.84-29.06,98.39-50.26l253-202.11-2.83-.52-251.5,200.93c-32.3,25.81-61.92,47.37-97.18,49.79-25.87,1.78-51-7.59-75.33-16.64-19.77-7.37-40.22-15-61.34-16.84-35.45-3.09-72.63,11-103.35,37.68C1338.24,540.45,1339,540.77,1339.69,541.09Z"/><path class="cls-1" d="M1499.54,700.63c-32.82-19.83-70.73-30.7-109-32.23l-.4,2.15c38,1.47,75.68,12.25,108.27,31.94a225.18,225.18,0,0,1,66.39,62l3.1.58A227.58,227.58,0,0,0,1499.54,700.63Z"/><polygon class="cls-6" points="1212.93 1397.37 1203.62 1429.94 1137.39 1469.53 1259.86 1496.62 1267 1401.7 1212.93 1397.37"/><rect class="cls-1" x="1210.13" y="1427.33" width="4.34" height="31.39" transform="translate(-595.74 911.07) rotate(-33.57)"/><path class="cls-7" d="M1626.44,1216.37s-16.11,28.92-52.88,49.28c-28.92,16-70.6,26.79-127.31,14l-38.68-9.9-16.85-4.29-20-5.13-49-12.5-.26,1-43.16,165.47-12.2-1.43-55.75-6.6-17.41-2.08,17.58-167.08,5.56-52.93,264.25-29.83,77.63-8.77,4-.48,14.37,15.9,32.74,36.25Z"/><polygon class="cls-6" points="994.14 1282.9 962.93 1296.08 890.56 1269.32 946.26 1381.7 1024.68 1327.72 994.14 1282.9"/><rect class="cls-1" x="942.49" y="1308.87" width="31.39" height="4.34" transform="translate(-581.1 1828.29) rotate(-72.41)"/><path class="cls-7" d="M1612.68,1191.4s-1.13,2.17-3.52,5.82a177.5,177.5,0,0,1-50.84,50.24c-33.09,21.49-82.32,37.64-150.75,22.31-5.47-1.21-11.07-2.64-16.85-4.29-2.21-.61-4.47-1.31-6.73-2l-13.24-3.13-49.24-11.55-93.78-22-17.16,10.29L1016.4,1353.49l-8.25-14.38-28.7-50-7.9-13.77,197.56-135.86a94.89,94.89,0,0,1,42.38-16,92.85,92.85,0,0,1,21.66-.09l171.12,18.85,58.61-8.82,68.39-10.29,26.74,22.45,18.41,15.42Z"/><path class="cls-6" d="M1492.47,1285.49q-4.26,0-8.63-.16c-39.61-1.41-241.47-53.42-255.89-57.14l-61.81,36.7-1.33-2.24,62.74-37.26.53.14c2.15.55,215.93,55.77,255.85,57.2,39.72,1.39,73-7,96.14-24.35l1.56,2.09C1559.73,1276.9,1529,1285.49,1492.47,1285.49Z"/><path class="cls-8" d="M1626.44,1216.37s-16.11,28.92-52.88,49.28q-61-51.15-110.68-132.26l68.39-10.29,26.74,22.45,4-.48,14.37,15.9,36.26,30.43s-1.13,2.17-3.52,5.82Z"/><polygon class="cls-9" points="1707.31 962.91 1679.28 1029.32 1626.44 1007.61 1632 991.59 1646.33 950.43 1680.59 968.23 1707.31 962.91"/><path class="cls-6" d="M1680.59,968.23l-1,7.51A84,84,0,0,1,1632,991.59l14.33-41.16Z"/><path class="cls-9" d="M1651.11,888.8s-34.33,58.56-18.85,74.71,57.21,16.15,57.21,16.15l39-47.11-28.27-33Z"/><path class="cls-9" d="M1644.8,908.83c-14,6.14-25.19,12.9-22,17.72,4.35,6.51,13,10.13,13,10.13Z"/><path class="cls-6" d="M1636.57,860c.67,23.66,4.29,42,41.25,43.06,4,2.53,9,26.77,5.07,31.11l17.73,44.51c32.56-21.38,57.53-51.74,30.39-78.52,0,0-9.2-37.32-43.06-34C1654.67,869.38,1636.57,860,1636.57,860Z"/><ellipse class="cls-9" cx="1687.95" cy="937.04" rx="16.28" ry="12.66" transform="translate(-142.44 1550.96) rotate(-47.58)"/><path class="cls-6" d="M1686.52,941.47l-3.25-.22a13.83,13.83,0,0,1,6.24-10.67,7.25,7.25,0,0,1,6.94-.47l-1.38,2.94a4,4,0,0,0-3.91.34A10.72,10.72,0,0,0,1686.52,941.47Z"/><circle class="cls-10" cx="1656.11" cy="936.68" r="12.3" transform="translate(362.25 2331.67) rotate(-76.65)"/><path class="cls-2" d="M1483.81,1095.92,1579,993.23a20.31,20.31,0,0,1,13.76-6.45c37.4-2,53.49,4.76,81.07,16.2a96.43,96.43,0,0,1,31.86,21.54h0a70.48,70.48,0,0,1,9.52,86.51l-74.62,120.11a22.84,22.84,0,0,1-35.22,4.44l-119.17-111.5A21.11,21.11,0,0,1,1483.81,1095.92Z"/><path class="cls-9" d="M1621.19,657.49a20.82,20.82,0,0,0-2,.89c-1.43-5.37-12.34-9.44-19.93-.49,1.33-7.17-10.32-9.5-19.54-4.88-26.91,12.53-46.83,47-58.63,92.09l75,2.35c6.88-29.18,18.19-55.06,35.33-73.93C1638.35,666,1630.65,653.75,1621.19,657.49Z"/><path class="cls-2" d="M1537.43,1043.05l89.71-27.09c-25.23-26.22-54.83-167.26-31-268.51L1528,721C1491.12,821.62,1501.25,948.26,1537.43,1043.05Z"/><polygon class="cls-4" points="289.65 1160.7 291.69 1177.98 498.89 1287.72 698.26 1259.45 846.1 1060.31 836.11 1044.22 616.14 1185.11 289.65 1160.7"/><polygon class="cls-1" points="684.42 1083.81 678.39 1089.89 501.67 1267.65 497.72 1271.6 289.66 1160.7 467.85 978.3 673.91 1078.69 684.42 1083.81"/><polygon class="cls-11" points="684.41 1083.8 836.11 1044.22 689.72 1241.57 497.74 1271.62 684.41 1083.8"/><path class="cls-1" d="M814.45,1058.84l-129.59,174.7-162.28,25.4,166.31-167.33,125.56-32.77m21.66-14.62-151.7,39.58L497.74,1271.62l192-30,146.39-197.35Z"/><path class="cls-7" d="M840.11,392.5c-17.74,48,7.84,101.69,57.13,119.9a96.51,96.51,0,0,0,52.85,4.14l-66,178.57L366.66,503.9l67.6-183a96.31,96.31,0,0,1-60.91-2.13c-49.29-18.21-74.87-71.89-57.13-119.9S388.3,126.75,437.59,145a96.4,96.4,0,0,1,47.67,38L552.86,0l517.45,191.21-66,178.57a96.55,96.55,0,0,0-42.84-31.23C912.19,320.34,857.85,344.49,840.11,392.5Z"/><rect class="cls-12" x="531.89" y="79.51" width="159.45" height="159.44" transform="translate(32.47 412.25) rotate(-38.19)"/><rect class="cls-12" x="504.8" y="306.46" width="159.44" height="159.44" transform="translate(-113.65 444.08) rotate(-38.19)"/><rect class="cls-12" x="631.82" y="206.53" width="159.45" height="159.44" transform="translate(-24.68 501.22) rotate(-38.19)"/><polygon class="cls-1" points="371.46 505.67 367.75 500.95 366.86 503.34 367.57 504.23 371.46 505.67"/><path class="cls-1" d="M429.88,322.06c.77-.19,1.54-.38,2.3-.59L372.65,245.8l-1.71,1.34Z"/><path class="cls-1" d="M323.65,183.51c-.4.66-.81,1.32-1.19,2l47.14,59.92,1.71-1.34Z"/><polygon class="cls-1" points="657.48 611.36 661.37 612.8 572.5 499.84 570.8 501.18 657.48 611.36"/><polygon class="cls-1" points="433.47 323.1 432.58 325.49 469.53 372.45 471.23 371.11 433.47 323.1"/><rect class="cls-1" x="519.93" y="356.42" width="2.17" height="159.44" transform="translate(-158.14 415.54) rotate(-38.2)"/><rect class="cls-1" x="746.88" y="383.52" width="2.17" height="159.44" transform="translate(-126.32 561.56) rotate(-38.19)"/><rect class="cls-1" x="846.8" y="510.54" width="2.17" height="159.45" transform="translate(-183.46 650.64) rotate(-38.19)"/><rect class="cls-1" x="646.95" y="256.5" width="2.17" height="159.44" transform="translate(-69.17 472.65) rotate(-38.19)"/><polygon class="cls-1" points="499.67 145.87 498.67 146.66 498.3 147.65 596.55 272.52 598.25 271.18 499.67 145.87"/><polygon class="cls-1" points="898.45 656.29 899.29 654.02 897.67 655.29 898.45 656.29"/><rect class="cls-1" x="674.04" y="29.55" width="2.17" height="159.44" transform="translate(76.97 440.85) rotate(-38.19)"/><polygon class="cls-1" points="605.99 19.63 602.1 18.19 623.64 45.58 625.35 44.24 605.99 19.63"/><path class="cls-1" d="M866.74,354.59l1.69-1.37L826.54,300l-1.7,1.34Z"/><rect class="cls-1" x="773.97" y="156.57" width="2.17" height="159.44" transform="matrix(0.79, -0.62, 0.62, 0.79, 19.8, 529.79)"/><polygon class="cls-1" points="892.01 125.32 950.51 199.69 952.22 198.35 895.9 126.76 892.01 125.32"/><polygon class="cls-1" points="1029.89 300.59 1030.77 298.2 953.56 200.06 951.86 201.4 1029.89 300.59"/><polygon class="cls-1" points="856.51 684.91 858.9 685.79 897.67 655.29 899.29 654.02 900.73 650.12 898.03 652.25 896.33 653.59 856.51 684.91"/><path class="cls-1" d="M678.66,619.19l2.39.88,116.69-91.8,1.71-1.34,56.18-44.2c-.46-.56-.89-1.14-1.33-1.71l-56.19,44.2-1.71,1.35Z"/><path class="cls-1" d="M1002.29,367.35l4.13-3.25,1.44-3.89-7,5.47C1001.38,366.23,1001.83,366.79,1002.29,367.35Z"/><polygon class="cls-1" points="825.2 298.28 823.49 299.62 698.18 398.2 696.47 399.55 571.16 498.13 569.45 499.47 500.81 553.47 503.2 554.35 570.8 501.18 572.5 499.84 697.82 401.25 699.52 399.91 824.84 301.32 826.54 299.98 951.86 201.4 953.56 200.06 998.52 164.68 996.14 163.8 952.22 198.35 950.51 199.69 825.2 298.28"/><polygon class="cls-1" points="597.89 274.23 599.59 272.89 724.91 174.3 726.62 172.96 820.68 98.96 818.29 98.08 725.27 171.26 723.57 172.6 598.25 271.18 596.55 272.52 471.23 371.11 469.53 372.45 392.98 432.67 391.54 436.57 470.87 374.16 472.57 372.82 597.89 274.23"/><path class="cls-1" d="M326.52,282.08l44.42-34.94,1.71-1.34,99.81-78.53c-.51-.51-1-1.06-1.52-1.56l-99.63,78.38-1.71,1.34-44.26,34.82C325.73,280.86,326.12,281.48,326.52,282.08Z"/><polygon class="cls-1" points="624.98 47.28 626.69 45.94 642.83 33.24 640.44 32.36 625.35 44.24 623.64 45.58 500.11 142.76 498.67 146.66 499.67 145.87 624.98 47.28"/><rect class="cls-13" x="541.35" y="747.92" width="50.45" height="83.55" transform="translate(-30.82 23.05) rotate(-2.27)"/><path class="cls-14" d="M590.12,747l2,49.22c-14-4.44-32.15-21.93-42.71-40.47l28.26-8.25Z"/><path class="cls-13" d="M614.77,722.92c10,15.51,10.15,28-4.46,21.39S614.77,722.92,614.77,722.92Z"/><path class="cls-13" d="M615.32,705.44s5.11,65.91-21.05,66.94S543,752.59,543,752.59l-.1-49.89,42.85-20.41Z"/><path class="cls-14" d="M568.49,719.77c2.88-10.23,10.47-17.85,24.07-22.16,0,0,18.19,23.3,31.72,13.71,19.11-13.54-.63-47.37-30.94-41.18-15.39-17.8-32.25-12.07-49.87,5.72-32.37,5.5-36.14,24.17-27.6,48.49-19.47-.18-25.95,9.64-23.06,26.69l56.78,16.46L562,724.6Z"/><path class="cls-14" d="M560,663.42c.43,10.85-8.27,20-19.44,20.45s-20.56-8-21-18.85,8.27-20,19.44-20.46S559.59,652.56,560,663.42Z"/><circle class="cls-5" cx="593" cy="740.21" r="11.84" transform="translate(-306.71 440.09) rotate(-32.85)"/><ellipse class="cls-13" cx="566.31" cy="721.61" rx="11.22" ry="14.49" transform="translate(-281.53 371.47) rotate(-29.44)"/><path class="cls-14" d="M569.14,727.91c-.36-5.32-2.74-8.49-7.48-10l1.3-4.14c6.49,2,10,6.69,10.51,13.83Z"/><path class="cls-3" d="M709.79,766.8a95.23,95.23,0,0,1-85,28c-47-8.09-105.16-5.52-138.09,29.72L473.37,1021a11.71,11.71,0,0,0,15.1,12l150.91-46a11.7,11.7,0,0,0,8.3-11.71l-3.23-75.6c77-9.94,153.19-128.4,189.08-201.25l-50.81-42C758.73,702.05,734.49,740.78,709.79,766.8Z"/><path class="cls-13" d="M850.8,624.09c3.63-4.62-5.66-13.86-11.43-7.81,5.3-9.19-5.32-16.62-11-13.92q-1-15.55-14.77-7.93c-10.27,21.66-20.56,42.51-30.9,62.11l50.81,42C853.7,657.58,861.62,625.67,850.8,624.09Z"/><polygon class="cls-2" points="684.42 1083.81 497.72 1271.6 487.69 1071.91 485.61 1030.75 637.3 987.6 646.21 1005.79 684.42 1083.81"/><polygon class="cls-5" points="646.21 1005.79 487.69 1071.91 485.61 1030.75 637.3 987.6 646.21 1005.79"/><path class="cls-3" d="M533,842.62l-39.08,92.61c-5-6.3-9.9-12.68-14.63-19.1A564,564,0,0,1,444,862.76C390.78,771,367.72,663,417,522.14L481.61,537c-31.56,84.19-9.72,178.24,16.8,241.72,4,9.42,8,18.15,11.94,26C518.65,821.25,526.64,834.28,533,842.62Z"/><path class="cls-13" d="M474.07,448.94c1.56-5.67,14.51-3.68,13.06,4.56,4.25-9.72,16.54-5.59,17.73.56q13.08-8.44,15.14,7.19c-14,26.12-27,51.55-38.3,75.8L417,522.14C440.21,473,465.45,440.25,474.07,448.94Z"/><path class="cls-15" d="M479.31,916.13A564,564,0,0,1,444,862.76c12.16-38.29,28.44-69.51,54.4-84,4,9.42,8,18.15,11.94,26l.22,1.26C476.36,823.34,479.18,867.32,479.31,916.13Z"/><path class="cls-1" d="M713.14,1576.21c-33.69,29.51-125.72-.52-192.48-30.66l-74.14-80.69c90.56,26,181.42,36.38,237.3-11Z"/><rect class="cls-4" x="514.31" y="1488.57" width="4.34" height="35.6" transform="translate(-848.07 685.46) rotate(-40.04)"/><rect class="cls-4" x="555.99" y="1492.84" width="4.34" height="45.77" transform="translate(-716.9 524.17) rotate(-31.91)"/><rect class="cls-4" x="658.42" y="1490.62" width="4.34" height="66.59" transform="translate(-365.64 217.94) rotate(-14.72)"/><path class="cls-1" d="M2346.18,467.16c3.45,25.12-7.06,53.11-31.21,77.7-31.85,32.43-80.09,42.59-123,27.56L2122.6,548.1c82.13-25.81,128.91-84.77,138.56-159.12Z"/><path class="cls-4" d="M2192,572.42a168.21,168.21,0,0,0,48.92-23.51c12.36,8.28,29,13.25,48.11,16.29C2251.31,584.89,2227.64,583.93,2192,572.42Z"/><path class="cls-16" d="M2080.52,1274.28c-1.17,0-2.34,0-3.49-.07l.16-4.34a88,88,0,0,0,12.69-.44l.46,4.32A94,94,0,0,1,2080.52,1274.28Zm-16.74-1.54a89.82,89.82,0,0,1-12.89-3.39l1.41-4.11a84.53,84.53,0,0,0,12.27,3.23Zm39.67-1.38-1.08-4.2a86.65,86.65,0,0,0,12-4.08l1.7,4A90.68,90.68,0,0,1,2103.45,1271.36Zm-64.82-7.25a92.11,92.11,0,0,1-11.36-7l2.54-3.52a87.24,87.24,0,0,0,10.82,6.65Zm89.3-3.11-2.26-3.71a87.37,87.37,0,0,0,10.32-7.38l2.78,3.34A91.86,91.86,0,0,1,2127.93,1261Zm-110.87-12.44a92,92,0,0,1-8.87-9.94l3.44-2.65a88.42,88.42,0,0,0,8.45,9.48Zm131.31-4.56-3.23-2.9a86.51,86.51,0,0,0,7.77-10l3.62,2.4A91.25,91.25,0,0,1,2148.37,1244Zm-147.51-16.51a90,90,0,0,1-5.63-12.07l4.06-1.54a85.12,85.12,0,0,0,5.36,11.5Zm162.21-5.64-3.93-1.86a86.7,86.7,0,0,0,4.55-11.85l4.15,1.25A89.86,89.86,0,0,1,2163.07,1221.85Zm-171.63-19.21a90.29,90.29,0,0,1-1.88-13.19l4.33-.3a87.47,87.47,0,0,0,1.79,12.57Zm179.3-6.26-4.3-.62a89.24,89.24,0,0,0,.91-12.67,86.2,86.2,0,0,0-.83-12l4.3-.6a91.75,91.75,0,0,1,.88,12.65A93.55,93.55,0,0,1,2170.74,1196.38Zm-176.81-19.93-4.33-.33a90.89,90.89,0,0,1,2-13.18l4.24,1A86.34,86.34,0,0,0,1993.93,1176.45Zm169.93-17.82a86.64,86.64,0,0,0-4.46-11.88l3.95-1.82a91.78,91.78,0,0,1,4.68,12.48Zm-164.36-6.88-4-1.57a91.47,91.47,0,0,1,5.71-12l3.78,2.15A86.58,86.58,0,0,0,1999.5,1151.75Zm153.76-16.1a87.57,87.57,0,0,0-7.7-10.09l3.25-2.88a92.85,92.85,0,0,1,8.08,10.59ZM2012,1129.73l-3.42-2.67a91,91,0,0,1,8.93-9.89l3,3.14A87.4,87.4,0,0,0,2012,1129.73Zm124.46-13a88.66,88.66,0,0,0-10.27-7.46l2.29-3.68a91.8,91.8,0,0,1,10.78,7.82Zm-106.15-4.45-2.52-3.54a91.19,91.19,0,0,1,11.4-6.9l2,3.87A85.56,85.56,0,0,0,2030.32,1112.23Zm84.63-8.88a87.39,87.39,0,0,0-12-4.17l1.12-4.19a89.89,89.89,0,0,1,12.6,4.38Zm-62.08-2.6-1.38-4.12a91.53,91.53,0,0,1,12.91-3.3l.77,4.28A85.63,85.63,0,0,0,2052.87,1100.75Zm37.61-3.93a88.1,88.1,0,0,0-12.69-.52l-.13-4.34a93.85,93.85,0,0,1,13.31.55Z"/><circle class="cls-1" cx="2095.66" cy="1090.33" r="98.85" transform="translate(-157.17 1801.21) rotate(-45)"/><path class="cls-16" d="M2095.75,1191.31a101,101,0,1,1,63.91-22.81A100.87,100.87,0,0,1,2095.75,1191.31Zm-.26-197.68a96.69,96.69,0,1,0,61.42,171.51h0a96.68,96.68,0,0,0-51.65-171C2102,993.8,2098.73,993.63,2095.49,993.63Z"/><polygon class="cls-16" points="2140.11 1103.63 2092.43 1092.07 2115.64 1027.37 2120.26 1029.03 2098.89 1088.59 2141.27 1098.87 2140.11 1103.63"/><path class="cls-16" d="M1188.54,830.8a66,66,0,0,0-48.38-82.75c-31.38-7.37-64.26,9.68-76.21,39.62a65.61,65.61,0,0,0-1.52,45c5.25,16.08,6.21,33.24,1.48,49.47l-8.09,27.74,75.43,22,8.1-27.76a81.55,81.55,0,0,1,27.39-40.54A65.52,65.52,0,0,0,1188.54,830.8Z"/><rect class="cls-16" x="1044.93" y="938.06" width="78.39" height="30.05" transform="translate(310.18 -265.4) rotate(16.26)"/><path class="cls-1" d="M1107,925.66l-4.13-1.74,39.21-93.18a15.85,15.85,0,0,1-9.26-2.55,14.68,14.68,0,0,1-6.63-10.15,1.16,1.16,0,0,0-.79-.86,1.2,1.2,0,0,0-1.19.21l-1.12,1.08a14.94,14.94,0,0,1-11.52,4,15.86,15.86,0,0,1-8-2.88l-17,99.56-4.43-.76,18.59-108.82,3.13,4.11a11.05,11.05,0,0,0,8,4.31,10.43,10.43,0,0,0,8.07-2.78l1.12-1.08a5.71,5.71,0,0,1,9.53,3.23,10.25,10.25,0,0,0,4.63,7,11.21,11.21,0,0,0,9.1,1.43l5.26-1.48Z"/><rect class="cls-16" x="1081.53" y="661.73" width="6.51" height="65.06" transform="translate(-193.79 539.32) rotate(-25.71)"/><rect class="cls-16" x="1198.29" y="727.21" width="61.2" height="6.51" transform="matrix(0.81, -0.59, 0.59, 0.81, -194.27, 866.02)"/><rect class="cls-16" x="1121.77" y="672" width="93.21" height="6.51" transform="translate(216.45 1631.77) rotate(-75.16)"/><path class="cls-1" d="M295.73,788.54,242,751.65a112.6,112.6,0,1,0-9.63,28.77Z"/><path class="cls-16" d="M131,845.27a115.08,115.08,0,1,1,113.35-94.61l60,41.17-70.8-9.06A115.27,115.27,0,0,1,131,845.27Zm.4-225.76a110.72,110.72,0,1,0,99,160l.69-1.39,56,7.17-47.53-32.6.27-1.4A110.6,110.6,0,0,0,131.4,619.51Z"/><circle class="cls-16" cx="71.5" cy="730.23" r="13.57"/><circle class="cls-16" cx="129.03" cy="730.23" r="13.57"/><circle class="cls-16" cx="186.56" cy="730.23" r="13.57"/><polygon class="cls-1" points="1749.28 1433.32 1789.89 1521.35 1658.48 1581.98 1617.87 1493.94 1703.85 1507.63 1749.28 1433.32"/><polygon class="cls-16" points="1749.28 1433.32 1711.35 1527.3 1617.87 1493.94 1749.28 1433.32"/><path class="cls-4" d="M119.89,1346.06H6.48A6.48,6.48,0,0,1,0,1339.58H0a6.48,6.48,0,0,1,6.48-6.48H119.89a6.48,6.48,0,0,1,6.48,6.48h0A6.48,6.48,0,0,1,119.89,1346.06Z"/><rect class="cls-4" y="1361.04" width="83.14" height="12.96" rx="5.26"/><rect class="cls-4" y="1388.99" width="105" height="12.96" rx="5.91"/><circle class="cls-4" cx="103.06" cy="1367.53" r="7.27"/></g></g></svg>