<svg width="394" height="344" viewBox="0 0 394 344" fill="none" xmlns="http://www.w3.org/2000/svg">
<g style="mix-blend-mode:multiply">
<path d="M51.2638 126.472C51.0704 122.175 46.4082 120.813 43.5764 123.262C42.1971 124.19 41.3634 125.656 40.0056 126.64C39.3224 127.138 37.6164 127.697 36.2328 127.929C34.5513 128.222 32.8538 128.414 31.1494 128.505C29.581 128.595 29.2157 128.466 27.8536 127.77C25.039 126.33 21.6788 128.096 21.6014 131.358C21.4037 139.561 32.0432 139.466 37.6852 138.723C40.822 138.293 43.9159 137.477 46.5156 135.599C48.0013 134.583 49.2562 133.265 50.1981 131.732C51.3025 129.871 51.3454 127.899 51.2638 126.472Z" fill="#D7DCE0"/>
</g>
<g style="mix-blend-mode:multiply">
<path d="M74.1627 74.478C73.0129 74.2414 71.8245 74.2678 70.6864 74.5553C70.3469 74.6456 70.0204 74.7874 69.6809 74.8819C69.5993 74.8819 69.0192 75.0065 68.959 75.0237C67.3605 75.2429 65.7491 75.0237 64.1721 75.3589C63.3707 75.5847 62.6907 76.1174 62.2797 76.8414C61.8686 77.5654 61.7596 78.4223 61.9763 79.2262C62.9517 82.1224 66.0757 83.8369 69.0492 83.9529C72.5556 84.099 75.6366 82.7884 76.9859 79.441C77.7507 77.5761 76.1393 74.8303 74.1627 74.478Z" fill="#D7DCE0"/>
</g>
<g style="mix-blend-mode:multiply">
<path d="M97.285 249.114C94.3072 244.481 88.6566 244.353 83.8224 243.326C78.6389 242.185 73.5416 240.683 68.5679 238.831C65.9897 237.886 63.4115 236.876 60.8634 235.853C58.3152 234.83 55.9132 233.705 53.1674 233.769C51.2466 233.812 50.3786 235.72 51.122 237.34C51.4326 238.012 51.8252 238.642 52.2908 239.218C50.4718 240.045 48.9369 241.39 47.8777 243.085C45.9484 246.385 47.0871 249.84 49.3387 252.538C49.1067 252.573 48.8746 252.607 48.6512 252.659C44.5303 253.561 43.3916 260.213 47.418 262.074C50.2153 263.363 53.3522 263.315 56.2312 264.587C56.7167 264.802 57.1894 265.051 57.6578 265.313C56.6437 265.743 55.6296 266.173 54.6499 266.637C52.1146 267.81 48.634 268.85 47.8863 271.841C47.4566 273.663 48.475 275.072 50.1036 275.747C52.3424 276.671 54.4006 275.171 56.4116 274.29C58.2551 273.482 60.12 272.704 61.9978 271.978C65.6933 270.547 70.5317 269.142 69.3758 264.042C69.3094 263.75 69.2232 263.462 69.118 263.182C76.6631 264.688 84.4524 264.451 91.8922 262.49C97.8694 260.853 100.736 254.485 97.285 249.114Z" fill="#D7DCE0"/>
</g>
<g style="mix-blend-mode:multiply">
<path d="M116.231 277.384C114.096 275.5 111.588 274.087 108.87 273.237C106.514 272.455 104.047 272.062 101.565 272.073C97.5343 272.223 95.9143 276.752 98.4152 279.674C99.7387 281.221 101.573 281.53 103.456 281.681C102.098 281.986 100.782 282.455 99.5367 283.077C97.8179 284.031 98.2476 286.678 100.074 287.194C103.12 288.053 107.031 287.168 110.026 286.399C113.416 285.54 115.857 284.543 117.206 281.109C117.683 279.941 117.167 278.192 116.231 277.384Z" fill="#D7DCE0"/>
</g>
<g style="mix-blend-mode:multiply">
<path d="M181.232 292.032C173.067 284.079 161.319 281.088 150.353 279.653C145.322 278.995 139.49 280.018 136.388 284.066C135.263 284.15 134.179 284.528 133.245 285.162C132.312 285.796 131.561 286.664 131.068 287.68C130.419 289.043 130.118 290.546 130.193 292.054C130.268 293.563 130.716 295.029 131.498 296.321C133.139 299.123 136.031 300.859 138.756 302.444C148.721 308.262 159.725 314.304 171.555 314.613C177.09 314.759 185.129 313.522 187.557 307.738C189.882 302.173 185.035 295.745 181.232 292.032Z" fill="#D7DCE0"/>
</g>
<g style="mix-blend-mode:multiply">
<path d="M113.872 319.349C112.947 319.566 112.072 319.957 111.293 320.5C110.834 320.87 110.52 321.115 110.344 321.252H110.296L110.473 321.102L110.146 321.282H109.613C109.54 321.282 109.416 321.235 109.231 321.201C108.689 321.123 108.144 321.05 107.602 320.982C104.972 320.642 102.338 324.101 103.365 326.568C103.98 328.149 105.08 329.496 106.507 330.413C107.935 331.33 109.617 331.771 111.311 331.673C114.675 331.544 117.713 329.46 119.475 326.641C121.855 322.778 117.949 318.459 113.872 319.349Z" fill="#D7DCE0"/>
</g>
<g style="mix-blend-mode:multiply">
<path d="M291.76 291.246C291.541 288.707 289.955 287.263 287.463 286.949C286.471 286.893 285.479 287.051 284.554 287.413C284.335 287.486 283.364 287.894 283.089 288.032C282.857 288.071 282.251 288.208 282.272 288.204L282.109 288.238C281.727 288.238 281.361 288.238 280.979 288.238C280.188 288.16 279.392 288.14 278.598 288.178C276.149 288.423 274.452 290.326 275.023 292.87C275.844 296.488 279.956 298.34 283.39 298.263C287.197 298.169 292.151 295.702 291.76 291.246Z" fill="#D7DCE0"/>
</g>
<g style="mix-blend-mode:multiply">
<path d="M337.528 274.079C335.306 268.584 327.786 266.774 322.54 265.563C319.102 264.772 314.904 264.274 313.705 268.626C313.275 270.139 313.782 271.75 313.864 273.28C313.946 274.715 313.834 276.125 313.787 277.577C313.776 277.818 313.788 278.06 313.821 278.299C313.125 278.734 312.537 279.322 312.102 280.018C311.928 280.326 311.881 280.69 311.971 281.033C312.061 281.375 312.281 281.669 312.584 281.853C314.13 282.755 316.227 282.648 318.32 282.257C319.295 282.355 320.275 282.13 321.109 281.616C322.016 281.389 322.871 281.187 323.623 281.019C327.421 280.276 331.181 279.369 334.967 278.591C336.737 278.192 338.215 275.82 337.528 274.079Z" fill="#D7DCE0"/>
</g>
<g style="mix-blend-mode:multiply">
<path d="M283.106 241.452C278.143 236.429 270.322 234.173 263.426 234.315C258.742 234.409 256.31 239.222 258.312 243.227C258.763 244.066 259.39 244.798 260.15 245.373C260.91 245.948 261.786 246.352 262.716 246.557C262.631 246.557 263.12 246.626 263.692 246.712C263.357 246.407 263.344 245.968 263.481 246.084L263.426 246.157H263.541C263.643 246.329 263.718 246.514 263.765 246.707C264.235 246.804 264.717 246.837 265.196 246.806C264.977 246.916 264.734 246.971 264.49 246.966C264.245 246.961 264.005 246.895 263.791 246.776C264.152 247.889 264.994 248.963 265.436 250.059C265.816 251.015 266.139 251.992 266.403 252.985C265.742 253.303 265.073 253.611 264.397 253.909C263.335 254.369 262.007 254.644 261.049 255.267C260.259 255.778 260.456 255.731 259.391 255.172C258.325 254.614 257.165 253.956 256.056 253.342C253.594 251.975 251.14 250.592 248.635 249.307C246.272 248.095 243.573 246.729 240.862 246.707C239.525 246.707 238.881 248.112 239.422 249.221C241.021 252.491 244.772 254.807 247.634 256.874C250.496 258.941 253.366 261.287 256.404 263.079C262.742 266.817 271.25 262.748 276.983 259.581C279.857 257.996 283.235 256.079 285.035 253.252C287.536 249.333 286.213 244.589 283.106 241.452Z" fill="#D7DCE0"/>
<path d="M263.692 246.712L263.794 246.788L263.769 246.72L263.692 246.712Z" fill="#D7DCE0"/>
</g>
<g style="mix-blend-mode:multiply">
<path d="M343.853 188.349C340.667 185.138 337.009 182.432 333.007 180.322C329.2 178.333 325.015 176.674 320.756 176.025C315.273 175.166 309.111 177.16 307.38 182.952C305.981 183.155 304.679 183.783 303.65 184.753C301.115 187.288 301.437 191.353 303.796 193.862C305.365 195.534 307.771 196.497 309.812 197.446C310.366 197.704 310.929 197.958 311.488 198.207C315.153 201.786 320.512 204.141 325.019 205.752C329.734 207.371 334.634 208.39 339.603 208.786C344.927 209.267 350.844 206.796 350.87 200.622C350.896 195.779 347.054 191.589 343.853 188.349Z" fill="#D7DCE0"/>
</g>
<g style="mix-blend-mode:multiply">
<path d="M394.15 146.668C392.919 146.053 391.64 145.538 390.325 145.13C388.362 144.558 386.944 144.825 385.169 145.684C383.394 146.544 383.317 148.692 383.987 150.192C383.987 150.23 384.022 150.26 384.039 150.299C383.537 150.662 383.127 151.137 382.839 151.686C382.552 152.235 382.397 152.842 382.385 153.462C382.381 153.968 382.512 154.466 382.763 154.905C383.014 155.344 383.377 155.709 383.815 155.963C384.98 156.586 385.534 156.461 386.6 156.727C387.571 156.968 388.521 157.256 389.509 157.441C392.672 158.017 396.591 157.535 397.648 153.891C398.511 150.879 396.857 148.009 394.15 146.668Z" fill="#D7DCE0"/>
</g>
<g style="mix-blend-mode:multiply">
<path d="M347.703 222.781C347.694 222.553 347.615 222.333 347.477 222.151C347.338 221.969 347.147 221.833 346.93 221.763C344.596 220.848 342.366 222.674 340.574 223.989C338.593 225.446 336.66 227.044 334.559 228.346C330.605 230.825 327.761 228.346 324.546 225.931C321.109 223.353 317.551 221.956 313.176 222.494C310.816 222.81 308.535 223.565 306.452 224.719C304.321 225.841 302.437 227.38 300.913 229.244C300.204 230.104 300.84 231.878 302.146 231.363C303.205 231.006 304.23 230.558 305.21 230.022C306.284 229.386 307.388 228.784 308.51 228.247C310.817 227.143 313.735 226.245 316.296 226.958C319.996 227.964 322.677 231.363 325.96 233.172C329.802 235.29 333.828 235.045 337.584 232.841C339.844 231.513 341.881 229.751 343.948 228.157C345.692 226.808 347.931 225.218 347.703 222.781Z" fill="#D7DCE0"/>
</g>
<g style="mix-blend-mode:multiply">
<path d="M240.913 47.5399C239.765 47.8298 238.679 48.3295 237.712 49.0138C237.424 49.2286 237.153 49.4435 236.853 49.6755C236.565 49.6111 236.109 49.5337 235.86 49.4908C234.722 49.2793 233.554 49.2954 232.422 49.538C230.51 49.9119 229.268 52.2924 229.844 54.0886C230.863 57.2985 234.446 59.7865 237.815 59.9283C241.184 60.0701 244.721 57.35 246.229 54.4538C248.15 50.8443 244.991 46.5129 240.913 47.5399Z" fill="#D7DCE0"/>
</g>
<g style="mix-blend-mode:multiply">
<path d="M385.779 107.135C385.349 104.987 383.167 103.792 381.186 103.638C379.488 103.504 377.873 104.428 376.721 105.61L376.45 105.902C376.25 105.803 376.045 105.714 375.836 105.636C375.14 105.284 374.34 105.2 373.586 105.399C372.832 105.598 372.177 106.066 371.745 106.714C370.503 108.205 370.456 110.474 371.401 112.223C371.897 113.132 372.575 113.928 373.393 114.563C374.21 115.197 375.15 115.656 376.154 115.91C378.676 116.516 381.237 115.635 383.141 113.955C385.19 112.15 386.308 109.911 385.779 107.135Z" fill="#D7DCE0"/>
</g>
<g style="mix-blend-mode:multiply">
<path d="M191.472 273.289L61.1642 198.052C56.7211 195.474 56.7211 191.331 61.1642 188.77L191.472 113.534C195.915 110.956 203.112 110.956 207.555 113.534L337.863 188.779C342.306 191.357 342.306 195.5 337.863 198.065L207.555 273.297C203.112 275.854 195.915 275.854 191.472 273.289Z" fill="#D7DCE0"/>
</g>
<path d="M219.905 232.922C219.905 235.93 220.954 238.01 222.651 238.99L259.128 260.045C257.41 259.07 256.378 256.969 256.383 253.978C256.387 250.987 257.397 247.777 259.047 244.877C260.766 241.869 263.125 239.256 265.754 237.739C268.384 236.223 270.687 236.102 272.381 237.086L235.903 216.031C234.21 215.047 231.864 215.171 229.277 216.684C226.69 218.197 224.267 220.826 222.569 223.821C220.924 226.722 219.905 229.979 219.905 232.922Z" fill="white"/>
<path d="M256.383 253.982C256.383 256.99 257.431 259.074 259.128 260.05C260.826 261.025 263.168 260.909 265.754 259.392C268.341 257.875 270.687 255.331 272.385 252.397C274.082 249.462 275.131 246.149 275.131 243.158C275.131 240.167 274.078 238.066 272.38 237.091C270.683 236.115 268.346 236.231 265.754 237.744C263.163 239.256 260.748 241.886 259.047 244.881C257.397 247.782 256.378 251.039 256.383 253.982Z" fill="white"/>
<path d="M272.38 237.091C270.687 236.107 268.346 236.231 265.754 237.744C263.163 239.256 260.748 241.886 259.047 244.881C257.397 247.782 256.378 251.039 256.383 253.982C256.387 256.926 257.431 259.074 259.128 260.05C260.826 261.025 263.168 260.909 265.754 259.392C268.341 257.875 270.687 255.332 272.385 252.397C274.082 249.462 275.131 246.149 275.131 243.158C275.131 240.167 274.078 238.066 272.38 237.091Z" stroke="#3A3A3A" stroke-width="1.28911" stroke-linecap="round" stroke-linejoin="round"/>
<path d="M272.385 237.086L235.907 216.031C234.214 215.047 231.868 215.171 229.281 216.684C226.694 218.197 224.271 220.826 222.574 223.821C220.924 226.722 219.905 229.979 219.905 232.922C219.905 235.866 220.954 238.01 222.651 238.99L259.128 260.045" stroke="#3A3A3A" stroke-width="1.28911" stroke-linecap="round" stroke-linejoin="round"/>
<path d="M10.8159 112.172C10.5666 108.859 12.6378 105.494 17.0208 102.963C25.3226 98.1718 38.7809 98.1718 47.1 102.963C51.2509 105.361 53.3264 108.502 53.3264 111.643C53.3264 111.819 53.3264 111.991 53.3049 112.167C53.3049 112.167 53.3049 112.197 53.3049 112.21C53.0643 115.149 50.9974 118.054 47.1043 120.302C38.8024 125.093 25.3441 125.088 17.0251 120.302C13.1577 118.054 11.0694 115.145 10.8245 112.215C10.8202 112.21 10.8159 112.193 10.8159 112.172ZM39.8638 110.771C39.8651 110.123 39.7842 109.477 39.6231 108.85C39.194 107.169 38.2174 105.68 36.8476 104.616C35.4778 103.552 33.7927 102.974 32.0582 102.974C30.3238 102.974 28.6387 103.552 27.2688 104.616C25.899 105.68 24.9225 107.169 24.4933 108.85C24.3284 109.484 24.2461 110.137 24.2484 110.792V110.998C24.2484 111.054 24.2484 111.114 24.2484 111.17C24.3257 112.262 25.0863 113.319 26.5301 114.178C29.5767 115.936 34.5183 115.936 37.5649 114.178C39.0087 113.345 39.7693 112.266 39.8466 111.17C39.8466 111.114 39.8466 111.054 39.8466 110.998V110.977C39.8638 110.895 39.8638 110.831 39.8638 110.771Z" fill="white"/>
<path d="M53.2878 112.189C53.2878 112.013 53.2877 111.841 53.3092 111.664C53.3092 111.836 53.3049 112.013 53.2878 112.189Z" fill="white"/>
<path d="M47.0828 120.323C50.9759 118.076 53.0428 115.167 53.2834 112.232C52.994 117.667 50.6309 122.785 46.6809 126.53C42.731 130.275 37.495 132.363 32.0518 132.363C26.6086 132.363 21.3726 130.275 17.4227 126.53C13.4727 122.785 11.1096 117.667 10.8202 112.232C11.0651 115.171 13.132 118.071 17.0208 120.319C25.3227 125.11 38.781 125.114 47.0828 120.323Z" fill="#D7DCE0"/>
<path d="M39.6232 108.854C39.7843 109.482 39.8651 110.127 39.8638 110.775C39.8638 110.835 39.8638 110.9 39.8638 110.96V110.981C39.8638 111.037 39.8638 111.097 39.8638 111.153C39.7865 112.245 39.0044 113.302 37.5821 114.161C34.5355 115.919 29.5939 115.919 26.5473 114.161C25.1035 113.327 24.3429 112.249 24.2656 111.153C24.2656 111.097 24.2656 111.037 24.2656 110.981V110.775C24.2633 110.12 24.3456 109.467 24.5105 108.833C24.7082 109.77 25.4344 110.68 26.6848 111.411C29.6669 113.13 34.4925 113.13 37.4746 111.411C38.695 110.68 39.4169 109.782 39.6232 108.854Z" fill="#3A3A3A"/>
<path d="M39.8552 111.149C39.8552 111.093 39.8552 111.033 39.8552 110.977C39.8595 111.033 39.8595 111.093 39.8552 111.149Z" fill="white"/>
<path d="M39.6232 108.854C39.4169 109.787 38.695 110.685 37.4747 111.402C34.4925 113.121 29.667 113.121 26.6848 111.402C25.4344 110.68 24.7082 109.77 24.5105 108.824C24.9397 107.144 25.9162 105.654 27.286 104.59C28.6559 103.526 30.341 102.948 32.0755 102.948C33.8099 102.948 35.495 103.526 36.8648 104.59C38.2347 105.654 39.2112 107.144 39.6404 108.824L39.6232 108.854Z" fill="white"/>
<path d="M24.2484 110.977C24.2484 111.033 24.2484 111.093 24.2484 111.149C24.2742 111.093 24.2484 111.033 24.2484 110.977Z" fill="white"/>
<path d="M10.8159 112.172C10.8159 112.008 10.8159 111.841 10.8159 111.669" stroke="#3A3A3A" stroke-width="1.28911" stroke-linecap="round" stroke-linejoin="round"/>
<path d="M53.2834 112.232C52.994 117.667 50.6309 122.785 46.6809 126.53C42.731 130.275 37.495 132.363 32.0518 132.363C26.6086 132.363 21.3726 130.275 17.4227 126.53C13.4727 122.785 11.1096 117.667 10.8202 112.232" stroke="#3A3A3A" stroke-width="1.28911" stroke-linecap="round" stroke-linejoin="round"/>
<path d="M53.3092 111.664C53.3092 111.841 53.3092 112.013 53.2878 112.189" stroke="#3A3A3A" stroke-width="1.28911" stroke-linecap="round" stroke-linejoin="round"/>
<path d="M53.3178 111.106C53.3178 111.286 53.3178 111.467 53.3178 111.643" stroke="#3A3A3A" stroke-width="1.28911" stroke-linecap="round" stroke-linejoin="round"/>
<path d="M53.3092 111.643C53.3092 108.502 51.2338 105.361 47.0828 102.963C38.781 98.1718 25.3227 98.1718 17.0036 102.963C12.6206 105.494 10.5581 108.859 10.7987 112.172C10.7987 112.172 10.7987 112.21 10.7987 112.232C11.0436 115.171 13.1105 118.071 16.9993 120.319C25.3012 125.11 38.7595 125.114 47.0785 120.319C50.9716 118.071 53.0385 115.162 53.2791 112.227C53.2791 112.227 53.2791 112.197 53.2791 112.184C53.2791 112.008 53.3006 111.832 53.3006 111.66L53.3092 111.643Z" stroke="#3A3A3A" stroke-width="1.28911" stroke-linecap="round" stroke-linejoin="round"/>
<path d="M39.8638 110.771C39.8651 110.123 39.7842 109.477 39.6231 108.85C39.194 107.169 38.2174 105.68 36.8476 104.616C35.4778 103.552 33.7927 102.974 32.0582 102.974C30.3238 102.974 28.6387 103.552 27.2688 104.616C25.899 105.68 24.9225 107.169 24.4933 108.85C24.3284 109.484 24.2461 110.137 24.2484 110.792V110.998C24.2484 111.054 24.2484 111.114 24.2484 111.17" stroke="#3A3A3A" stroke-width="1.28911" stroke-linecap="round" stroke-linejoin="round"/>
<path d="M39.8552 111.149C39.8552 111.093 39.8552 111.033 39.8552 110.977" stroke="#3A3A3A" stroke-width="1.28911" stroke-linecap="round" stroke-linejoin="round"/>
<path d="M39.8595 110.977V110.956C39.8595 110.895 39.8595 110.831 39.8595 110.771" stroke="#3A3A3A" stroke-width="1.28911" stroke-linecap="round" stroke-linejoin="round"/>
<path d="M24.2484 110.977C24.2484 111.033 24.2484 111.093 24.2484 111.149C24.3257 112.24 25.0863 113.297 26.5301 114.157C29.5767 115.914 34.5183 115.914 37.5649 114.157C39.0087 113.323 39.7693 112.245 39.8466 111.149C39.8466 111.093 39.8466 111.033 39.8466 110.977" stroke="#3A3A3A" stroke-width="1.28911" stroke-linecap="round" stroke-linejoin="round"/>
<path d="M24.4933 108.828C24.691 109.765 25.4172 110.676 26.6676 111.407C29.6498 113.125 34.4753 113.125 37.4575 111.407C38.695 110.689 39.4169 109.791 39.606 108.859" stroke="#3A3A3A" stroke-width="1.28911" stroke-linecap="round" stroke-linejoin="round"/>
<path d="M145.064 159.164C145.22 159.213 145.361 159.302 145.474 159.422C145.586 159.542 145.665 159.688 145.704 159.848C145.743 160.007 145.74 160.174 145.696 160.332C145.651 160.49 145.567 160.634 145.45 160.75L144.509 161.703C144.069 162.138 143.521 162.448 142.921 162.599C142.321 162.75 141.691 162.737 141.098 162.563L131.021 159.602C130.259 159.376 129.586 158.92 129.092 158.297C128.599 157.675 128.309 156.915 128.262 156.122V156.049C131.769 156.444 135.082 155.658 136.972 154.197C139.158 156.569 141.959 158.288 145.064 159.164Z" fill="#3A3A3A"/>
<path d="M105.058 81.3877C105.149 77.4301 105.402 73.4338 105.677 70.0478C103 71.0662 98.2648 71.1049 94.3716 68.329C94.6133 64.8434 95.0436 61.3735 95.6608 57.9345C96.2106 54.8877 97.3988 51.9916 99.1473 49.4366C100.896 46.8816 103.165 44.7255 105.806 43.1097C109.09 41.1281 112.587 39.5237 116.231 38.3271C116.231 38.6752 116.205 39.0232 116.192 39.3799C118.083 41.6401 121.817 42.3061 124.786 39.9342C124.692 38.3314 124.644 36.9263 124.657 35.3363C125.989 35.4094 127.588 35.1688 128.58 33.9183C131.588 33.5316 136.813 33.4328 138.932 36.8575C139.753 38.1853 140.169 43.4621 139.538 49.3189C138.259 51.1136 136.692 52.6845 134.901 53.9683C134.871 57.4403 134.875 60.6974 134.901 63.9202C134.991 70.6107 135.249 77.125 135.649 84.9241C131.421 90.5102 119.561 94.3002 113.588 93.6256C109.218 93.1314 107.009 91.7822 105.2 90.2438V89.8872C105.028 87.2574 105.002 84.3311 105.058 81.3877Z" fill="white"/>
<path d="M134.901 53.9769C136.692 52.6931 138.259 51.1221 139.538 49.3275C138.975 54.5097 137.587 60.156 134.918 63.9374C134.875 60.7275 134.871 57.4489 134.901 53.9769Z" fill="#F6D84C"/>
<path d="M122.212 104.837C118.242 125.462 117.726 139.569 117.662 161.987C117.394 162.353 117.087 162.689 116.746 162.988C114.005 165.446 110.013 164.707 108.204 163.048C107.933 162.801 107.703 162.51 107.525 162.189C105.69 145.899 106.64 117.5 105.204 90.2266C107.014 91.765 109.222 93.1143 113.592 93.6084C119.565 94.283 131.425 90.5145 135.653 84.9069C135.653 85.1604 135.683 85.414 135.696 85.6718C135.696 85.6718 136.293 104.94 136.186 115.996C136.079 127.052 133.982 144.279 137.518 153.672C137.34 153.847 137.152 154.01 136.955 154.162C135.065 155.623 131.752 156.41 128.245 156.014C127.589 155.94 126.937 155.827 126.294 155.675C125.005 149.474 126.324 125.127 125.224 117.509C124.79 114.475 123.402 109.134 122.212 104.837Z" fill="#D7DCE0"/>
<path d="M131.799 15.6087C132.362 19.0463 131.558 21.1518 129.066 22.746C127.423 23.7003 125.656 24.4233 123.815 24.8946C123.395 25.0145 123.011 25.2372 122.698 25.5425C122.385 25.8478 122.153 26.2262 122.023 26.6434V26.7079C121.874 27.1838 121.593 27.6077 121.213 27.9302C120.832 28.2528 120.368 28.4607 119.875 28.5299H119.819C119.476 28.5814 119.147 28.7016 118.852 28.8832C118.556 29.0649 118.301 29.3042 118.1 29.5869L116.381 31.9718C116.381 29.6471 116.321 27.4255 116.213 25.2254C116.135 23.6249 116.659 22.053 117.682 20.8195C118.704 19.5859 120.152 18.7801 121.739 18.5607C125.236 18.157 128.638 17.1586 131.799 15.6087Z" fill="#D7DCE0"/>
<path d="M124.657 35.3363C124.657 36.909 124.692 38.3443 124.786 39.9342C121.825 42.3061 118.091 41.653 116.192 39.3799C116.192 39.0232 116.222 38.6751 116.231 38.3271C116.304 36.0883 116.338 33.9871 116.338 31.9718L118.057 29.5869C118.258 29.3042 118.513 29.0649 118.809 28.8832C119.104 28.7016 119.433 28.5814 119.776 28.5298H119.832C120.325 28.4607 120.789 28.2527 121.17 27.9302C121.55 27.6077 121.831 27.1838 121.98 26.7079V26.6434C122.11 26.2261 122.342 25.8478 122.655 25.5425C122.968 25.2372 123.352 25.0145 123.772 24.8945C125.613 24.4233 127.38 23.7003 129.023 22.746C129.325 25.3134 129.481 27.8957 129.491 30.4807C129.491 32.0835 129.13 33.1835 128.537 33.9183C127.588 35.1688 125.989 35.4094 124.657 35.3363Z" fill="#F6D84C"/>
<path d="M118.654 172.97C118.727 173.249 118.741 173.54 118.695 173.824C118.65 174.109 118.546 174.381 118.39 174.623C118.234 174.865 118.03 175.073 117.79 175.232C117.55 175.391 117.279 175.499 116.996 175.549C116.417 175.648 115.823 175.592 115.273 175.388C114.722 175.183 114.236 174.837 113.863 174.384C112.118 172.266 110.726 170.517 109.342 168.488C108.392 167.085 107.964 165.392 108.135 163.706L108.204 163.044C110.013 164.698 114.005 165.442 116.746 162.984L116.789 164.677C116.801 165.099 116.846 165.52 116.922 165.936C117.374 168.291 117.949 170.396 118.654 172.97Z" fill="#3A3A3A"/>
<path d="M105.686 70.0478C105.411 73.4338 105.157 77.4301 105.067 81.3876C104.147 81.5853 103.297 81.7314 102.489 81.8174C101.404 81.9425 100.304 81.831 99.2664 81.4904C98.2285 81.1499 97.2767 80.5884 96.4766 79.8447C95.6766 79.101 95.0472 78.1927 94.6319 77.1824C94.2166 76.1721 94.0252 75.0838 94.0709 73.9924C94.1439 72.0072 94.2428 70.1251 94.376 68.3247C98.2734 71.1048 103.009 71.0662 105.686 70.0478Z" fill="#F6D84C"/>
<path d="M134.918 63.9331C135.009 70.6236 135.267 77.1379 135.666 84.937C135.666 85.1905 135.696 85.444 135.709 85.7019C135.709 85.7019 136.306 104.97 136.199 116.026C136.092 127.082 133.995 144.309 137.531 153.702C137.353 153.877 137.165 154.04 136.968 154.192C135.077 155.653 131.764 156.44 128.258 156.044C127.602 155.97 126.95 155.857 126.307 155.705C125.018 149.504 126.337 125.157 125.237 117.539C124.808 114.475 123.402 109.134 122.229 104.837" stroke="#3A3A3A" stroke-width="1.28911" stroke-linecap="round" stroke-linejoin="round"/>
<path d="M134.979 48.7345C134.94 50.5435 134.918 52.2881 134.901 53.9769C134.871 57.4489 134.875 60.706 134.901 63.9288" stroke="#3A3A3A" stroke-width="1.28911" stroke-linecap="round" stroke-linejoin="round"/>
<path d="M105.204 89.9001V90.2567C106.64 117.534 105.69 145.929 107.525 162.219C107.703 162.54 107.933 162.831 108.204 163.079C110.013 164.733 114.005 165.476 116.746 163.018C117.087 162.719 117.394 162.383 117.662 162.017C117.726 139.587 118.242 125.467 122.212 104.867C122.792 101.859 123.45 98.709 124.184 95.3745" stroke="#3A3A3A" stroke-width="1.28911" stroke-linecap="round" stroke-linejoin="round"/>
<path d="M108.204 163.061L108.135 163.723C107.964 165.41 108.392 167.102 109.342 168.506C110.726 170.53 112.118 172.283 113.863 174.401C114.236 174.854 114.722 175.2 115.273 175.405C115.823 175.609 116.417 175.665 116.996 175.566C117.279 175.516 117.55 175.408 117.79 175.249C118.03 175.09 118.234 174.882 118.39 174.64C118.546 174.398 118.65 174.126 118.695 173.841C118.741 173.557 118.727 173.266 118.654 172.987C117.962 170.409 117.365 168.308 116.935 165.97C116.859 165.555 116.814 165.134 116.802 164.711L116.759 163.018" stroke="#3A3A3A" stroke-width="1.28911" stroke-linecap="round" stroke-linejoin="round"/>
<path d="M128.262 156.044V156.122C128.306 156.918 128.595 157.682 129.089 158.309C129.584 158.935 130.26 159.393 131.025 159.619L141.102 162.58C141.696 162.755 142.325 162.767 142.925 162.616C143.525 162.465 144.074 162.156 144.514 161.721L145.455 160.767C145.571 160.651 145.655 160.507 145.7 160.349C145.744 160.191 145.747 160.024 145.708 159.865C145.669 159.705 145.59 159.559 145.478 159.439C145.366 159.319 145.225 159.23 145.068 159.181C141.962 158.305 139.159 156.584 136.972 154.209" stroke="#3A3A3A" stroke-width="1.28911" stroke-linecap="round" stroke-linejoin="round"/>
<path d="M105.204 90.2567C107.014 91.795 109.222 93.1443 113.592 93.6385C119.565 94.3131 131.425 90.5446 135.653 84.937" stroke="#3A3A3A" stroke-width="1.28911" stroke-linecap="round" stroke-linejoin="round"/>
<path d="M124.657 35.3363C124.657 36.909 124.692 38.3443 124.786 39.9342C121.825 42.3061 118.091 41.653 116.192 39.3799C116.192 39.0232 116.222 38.6751 116.231 38.3271C116.304 36.0883 116.338 33.9871 116.338 31.9718C116.338 29.6471 116.278 27.4255 116.17 25.2254C116.092 23.6249 116.616 22.053 117.639 20.8195C118.661 19.5859 120.109 18.7801 121.696 18.5607C125.206 18.1555 128.62 17.1512 131.79 15.5915C132.353 19.0291 131.55 21.1347 129.057 22.7289C127.414 23.6831 125.647 24.4061 123.806 24.8774C123.386 24.9973 123.002 25.22 122.689 25.5253C122.376 25.8306 122.145 26.209 122.014 26.6263V26.6907C121.865 27.1666 121.585 27.5905 121.204 27.913C120.824 28.2355 120.36 28.4435 119.866 28.5127H119.81C119.467 28.5642 119.138 28.6844 118.843 28.8661C118.548 29.0477 118.292 29.287 118.091 29.5697L116.372 31.9546" stroke="#3A3A3A" stroke-width="1.28911" stroke-linecap="round" stroke-linejoin="round"/>
<path d="M122.332 34.9152C123.086 35.1559 123.867 35.3003 124.657 35.3449C125.989 35.418 127.588 35.1774 128.58 33.9269C129.173 33.1878 129.551 32.0878 129.534 30.4893C129.524 27.9043 129.368 25.322 129.066 22.7546" stroke="#3A3A3A" stroke-width="1.28911" stroke-linecap="round" stroke-linejoin="round"/>
<path d="M128.58 33.9183C131.588 33.5316 136.813 33.4328 138.932 36.8575C139.753 38.1853 140.169 43.4621 139.538 49.3189C138.975 54.5011 137.587 60.1474 134.918 63.9288" stroke="#3A3A3A" stroke-width="1.28911" stroke-linecap="round" stroke-linejoin="round"/>
<path d="M105.204 89.9001C105.028 87.2574 105.002 84.3139 105.067 81.3876C105.157 77.4301 105.411 73.4338 105.686 70.0478C106.115 64.8527 106.584 61.0885 106.584 61.0885" stroke="#3A3A3A" stroke-width="1.28911" stroke-linecap="round" stroke-linejoin="round"/>
<path d="M116.231 38.3271C112.587 39.5237 109.09 41.1281 105.806 43.1097C103.169 44.7268 100.903 46.8831 99.1577 49.4372C97.4122 51.9913 96.2264 54.8856 95.678 57.9301C95.0609 61.3692 94.6305 64.8391 94.3889 68.3247C94.2557 70.1251 94.1568 72.0072 94.0838 73.9925C94.0372 75.0825 94.2273 76.1697 94.6408 77.1794C95.0543 78.1891 95.6814 79.0972 96.4792 79.8415C97.2769 80.5858 98.2264 81.1486 99.2623 81.4911C100.298 81.8337 101.396 81.9479 102.48 81.8259C103.284 81.7314 104.135 81.5853 105.058 81.3962" stroke="#3A3A3A" stroke-width="1.28911" stroke-linecap="round" stroke-linejoin="round"/>
<path d="M94.3802 68.3333C98.2734 71.1048 103.009 71.0662 105.686 70.0521" stroke="#3A3A3A" stroke-width="1.28911" stroke-linecap="round" stroke-linejoin="round"/>
<path d="M134.901 53.9769C136.692 52.6931 138.259 51.1221 139.538 49.3275" stroke="#3A3A3A" stroke-width="1.28911" stroke-linecap="round" stroke-linejoin="round"/>
<path d="M350.419 161.738C350.849 167.908 347.673 187.198 346.719 191.194C346.595 191.695 346.576 192.215 346.663 192.724C344.515 194.352 342.259 194.198 340.991 193.214C340.914 191.091 339.852 162.477 336.771 147.235C340.154 146.955 343.447 146.007 346.461 144.447C348.623 150.694 350.011 155.795 350.419 161.738Z" fill="#D7DCE0"/>
<path d="M347.102 194.249C347.286 194.88 347.307 195.548 347.162 196.189C347.017 196.831 346.711 197.424 346.272 197.915C343.892 200.553 338.967 205.34 335.177 204.721C331.697 204.158 339.26 197.261 341.013 193.338C341.013 193.338 341.013 193.295 341.013 193.214C342.302 194.198 344.558 194.352 346.685 192.724C346.711 192.879 346.745 193.032 346.788 193.183L347.102 194.249Z" fill="white"/>
<path d="M339.517 99.8734C354.402 101.197 352.838 120.499 346.479 144.442C341.664 146.928 336.187 147.831 330.829 147.02C325.672 146.26 321.41 144.051 319.111 141.593C319.137 140.502 319.162 139.445 319.18 138.418C319.48 122.669 314.191 97.6175 339.517 99.8734Z" fill="white"/>
<path d="M330.829 147.033C330.859 148.232 330.829 149.453 330.786 150.694C330.498 156.869 325.058 175.652 323.636 179.51C323.457 179.992 323.38 180.506 323.408 181.019C321.105 182.385 318.857 181.964 317.714 180.834C317.796 178.999 318.75 157.441 319.119 141.606C321.41 144.064 325.694 146.273 330.829 147.033Z" fill="#D7DCE0"/>
<path d="M317.71 180.834C318.853 181.964 321.1 182.385 323.403 181.019C323.407 181.174 323.421 181.329 323.446 181.483L323.636 182.583C323.745 183.232 323.688 183.898 323.468 184.518C323.248 185.138 322.874 185.692 322.381 186.128C319.708 188.465 314.272 192.638 310.564 191.576C307.174 190.605 315.497 184.645 317.697 180.958C317.697 180.958 317.697 180.915 317.697 180.834H317.71Z" fill="white"/>
<path d="M341.008 193.214C342.298 194.198 344.554 194.352 346.681 192.724" stroke="#3A3A3A" stroke-width="1.28911" stroke-linecap="round" stroke-linejoin="round"/>
<path d="M317.71 180.834C318.853 181.964 321.1 182.385 323.403 181.019" stroke="#3A3A3A" stroke-width="1.28911" stroke-linecap="round" stroke-linejoin="round"/>
<path d="M319.111 141.606C321.41 144.064 325.694 146.273 330.829 147.033C336.187 147.844 341.664 146.941 346.478 144.455" stroke="#3A3A3A" stroke-width="1.28911" stroke-linecap="round" stroke-linejoin="round"/>
<path d="M330.829 147.033C330.859 148.232 330.829 149.453 330.786 150.694C330.498 156.869 325.058 175.652 323.636 179.51C323.458 179.992 323.38 180.506 323.408 181.019C323.411 181.174 323.426 181.329 323.451 181.483L323.64 182.583C323.75 183.232 323.692 183.898 323.473 184.518C323.253 185.138 322.879 185.692 322.385 186.128C319.713 188.465 314.277 192.638 310.568 191.576C307.178 190.605 315.501 184.645 317.701 180.958C317.701 180.958 317.701 180.915 317.701 180.834C317.783 178.999 318.737 157.441 319.107 141.606C319.132 140.515 319.158 139.458 319.175 138.431C319.476 122.669 314.187 97.6089 339.513 99.8734C354.398 101.197 352.834 120.499 346.474 144.442C348.623 150.694 350.007 155.795 350.432 161.738C350.862 167.908 347.686 187.198 346.732 191.194C346.609 191.695 346.59 192.215 346.676 192.724C346.702 192.879 346.737 193.032 346.78 193.183L347.098 194.249C347.282 194.88 347.303 195.548 347.158 196.189C347.013 196.831 346.707 197.424 346.268 197.915C343.888 200.553 338.963 205.34 335.173 204.721C331.693 204.158 339.255 197.261 341.009 193.338C341.009 193.338 341.009 193.295 341.009 193.214C340.931 191.091 339.87 162.477 336.789 147.235" stroke="#3A3A3A" stroke-width="1.28911" stroke-linecap="round" stroke-linejoin="round"/>
<path d="M300.513 229.214L309.593 223.972C311.922 222.627 315.695 222.627 318.024 223.972L327.52 229.455C329.845 230.8 333.622 230.8 335.946 229.455L350.758 220.904" stroke="#3A3A3A" stroke-width="1.28911" stroke-linecap="round" stroke-linejoin="round"/>
<path d="M350.754 224.079V220.904H345.258" stroke="#3A3A3A" stroke-width="1.28911" stroke-linecap="round" stroke-linejoin="round"/>
<path d="M296.788 231.367C295.756 230.774 295.756 229.807 296.788 229.218C297.365 228.926 298.003 228.774 298.65 228.774C299.298 228.774 299.936 228.926 300.513 229.218C301.544 229.811 301.544 230.778 300.513 231.367C299.936 231.659 299.298 231.811 298.65 231.811C298.003 231.811 297.365 231.659 296.788 231.367Z" stroke="#3A3A3A" stroke-width="1.28911" stroke-linecap="round" stroke-linejoin="round"/>
<path d="M221.998 283.894L211.681 289.854L221.998 295.814" stroke="#3A3A3A" stroke-width="1.28911" stroke-linecap="round" stroke-linejoin="round"/>
<path d="M217.628 283.894H221.998V286.42" stroke="#3A3A3A" stroke-width="1.28911" stroke-linecap="round" stroke-linejoin="round"/>
<path d="M217.628 295.814H221.998V293.287" stroke="#3A3A3A" stroke-width="1.28911" stroke-linecap="round" stroke-linejoin="round"/>
<path d="M201.668 284.074L211.681 289.854L201.668 295.633" stroke="#3A3A3A" stroke-width="1.28911" stroke-linecap="round" stroke-linejoin="round"/>
<path d="M206.039 284.074H201.668V286.597" stroke="#3A3A3A" stroke-width="1.28911" stroke-linecap="round" stroke-linejoin="round"/>
<path d="M206.039 295.633H201.668V293.111" stroke="#3A3A3A" stroke-width="1.28911" stroke-linecap="round" stroke-linejoin="round"/>
<path d="M99.1499 262.357L110.146 279.15L99.1499 285.497V262.357Z" fill="#3A3A3A"/>
<path d="M99.15 262.357V285.497L88.1581 279.15L99.15 262.357Z" fill="white"/>
<path d="M99.15 262.357L110.146 279.15L99.15 285.497L88.1581 279.15L99.15 262.357ZM99.15 262.357V285.497" stroke="#3A3A3A" stroke-width="1.28911" stroke-linecap="round" stroke-linejoin="round"/>
<path d="M313.022 255.121L324.895 273.259L313.022 280.112V255.121Z" fill="#3A3A3A"/>
<path d="M313.022 255.121V280.112L301.145 273.259L313.022 255.121Z" fill="white"/>
<path d="M313.022 255.121L324.895 273.259L313.022 280.112L301.145 273.259L313.022 255.121ZM313.022 255.121V280.112" stroke="#3A3A3A" stroke-width="1.28911" stroke-linecap="round" stroke-linejoin="round"/>
<path d="M384.344 137.047L392.577 149.616L384.344 154.368V137.047Z" fill="#3A3A3A"/>
<path d="M384.344 137.047V154.368L376.115 149.616L384.344 137.047Z" fill="white"/>
<path d="M384.344 137.047L392.577 149.616L384.344 154.368L376.115 149.616L384.344 137.047ZM384.344 137.047V154.368" stroke="#3A3A3A" stroke-width="1.28911" stroke-linecap="round" stroke-linejoin="round"/>
<path d="M237.269 43.3417C238.318 43.3408 239.344 43.6511 240.216 44.2333C241.089 44.8154 241.769 45.6432 242.171 46.6121C242.573 47.5809 242.679 48.6472 242.475 49.6761C242.271 50.7049 241.766 51.6502 241.024 52.3922C240.283 53.1342 239.338 53.6396 238.31 53.8446C237.281 54.0495 236.214 53.9448 235.245 53.5435C234.276 53.1423 233.448 52.4627 232.865 51.5906C232.282 50.7185 231.971 49.6932 231.971 48.6442C231.972 47.239 232.531 45.8916 233.524 44.8976C234.517 43.9035 235.864 43.344 237.269 43.3417Z" fill="white"/>
<path d="M242.563 48.6442C242.563 47.5955 242.252 46.5703 241.67 45.6983C241.087 44.8263 240.259 44.1467 239.29 43.7453C238.321 43.344 237.255 43.239 236.226 43.4436C235.198 43.6482 234.253 44.1532 233.511 44.8948C232.77 45.6363 232.265 46.5812 232.06 47.6098C231.856 48.6384 231.961 49.7045 232.362 50.6734C232.763 51.6423 233.443 52.4705 234.315 53.0531C235.187 53.6358 236.212 53.9468 237.261 53.9468C238.667 53.9456 240.015 53.3866 241.009 52.3924C242.003 51.3983 242.562 50.0502 242.563 48.6442Z" stroke="#3A3A3A" stroke-width="1.28911" stroke-linecap="round" stroke-linejoin="round"/>
<path d="M67.9967 68.4237C69.0456 68.4237 70.071 68.7348 70.9431 69.3176C71.8152 69.9005 72.4948 70.7289 72.896 71.6981C73.2972 72.6672 73.402 73.7336 73.197 74.7623C72.9921 75.791 72.4866 76.7358 71.7446 77.4772C71.0026 78.2186 70.0574 78.7233 69.0285 78.9274C67.9996 79.1315 66.9333 79.0259 65.9645 78.6239C64.9957 78.2219 64.1678 77.5416 63.5857 76.669C63.0035 75.7965 62.6933 74.7709 62.6942 73.7219C62.6942 73.0258 62.8313 72.3365 63.0978 71.6934C63.3644 71.0503 63.755 70.466 64.2475 69.974C64.7399 69.482 65.3245 69.0918 65.9678 68.8258C66.6111 68.5598 67.3005 68.4231 67.9967 68.4237Z" fill="white"/>
<path d="M73.2947 73.7217C73.2947 72.6728 72.9836 71.6474 72.4008 70.7753C71.8179 69.9032 70.9895 69.2236 70.0204 68.8224C69.0512 68.4212 67.9848 68.3164 66.9561 68.5214C65.9274 68.7263 64.9826 69.2318 64.2412 69.9738C63.4998 70.7158 62.9951 71.661 62.791 72.6899C62.5869 73.7188 62.6925 74.785 63.0945 75.7539C63.4965 76.7227 64.1768 77.5506 65.0494 78.1327C65.922 78.7148 66.9476 79.0251 67.9965 79.0243C68.6926 79.0243 69.3819 78.8871 70.025 78.6205C70.6681 78.354 71.2524 77.9633 71.7444 77.4709C72.2365 76.9785 72.6266 76.3939 72.8926 75.7506C73.1587 75.1073 73.2953 74.4178 73.2947 73.7217Z" stroke="#3A3A3A" stroke-width="1.28911" stroke-linecap="round" stroke-linejoin="round"/>
<path d="M282.814 280.959C283.863 280.959 284.888 281.27 285.76 281.853C286.632 282.436 287.312 283.264 287.713 284.233C288.114 285.202 288.219 286.269 288.014 287.298C287.809 288.326 287.304 289.271 286.562 290.012C285.82 290.754 284.874 291.259 283.846 291.463C282.817 291.667 281.75 291.561 280.782 291.159C279.813 290.757 278.985 290.077 278.403 289.204C277.821 288.332 277.51 287.306 277.511 286.257C277.511 285.561 277.648 284.872 277.915 284.229C278.181 283.586 278.572 283.001 279.065 282.509C279.557 282.017 280.142 281.627 280.785 281.361C281.428 281.095 282.118 280.958 282.814 280.959Z" fill="white"/>
<path d="M288.112 286.257C288.112 285.208 287.801 284.183 287.218 283.311C286.635 282.439 285.807 281.759 284.838 281.358C283.868 280.957 282.802 280.852 281.773 281.057C280.745 281.262 279.8 281.767 279.058 282.509C278.317 283.251 277.812 284.196 277.608 285.225C277.404 286.254 277.51 287.321 277.912 288.289C278.314 289.258 278.994 290.086 279.867 290.668C280.739 291.25 281.765 291.561 282.814 291.56C283.51 291.56 284.199 291.423 284.842 291.156C285.485 290.889 286.07 290.499 286.562 290.006C287.054 289.514 287.444 288.929 287.71 288.286C287.976 287.643 288.113 286.953 288.112 286.257Z" stroke="#3A3A3A" stroke-width="1.28911" stroke-linecap="round" stroke-linejoin="round"/>
<path d="M110.709 313.934C111.758 313.934 112.783 314.245 113.655 314.828C114.527 315.411 115.207 316.239 115.608 317.208C116.009 318.177 116.114 319.243 115.91 320.271C115.705 321.3 115.2 322.245 114.458 322.986C113.717 323.728 112.772 324.233 111.743 324.438C110.715 324.642 109.649 324.537 108.68 324.136C107.711 323.735 106.883 323.055 106.3 322.183C105.717 321.311 105.406 320.286 105.406 319.237C105.406 317.831 105.965 316.482 106.96 315.487C107.954 314.493 109.303 313.934 110.709 313.934Z" fill="white"/>
<path d="M116.007 319.237C116.007 318.188 115.696 317.163 115.113 316.291C114.53 315.418 113.702 314.739 112.733 314.338C111.764 313.936 110.697 313.832 109.669 314.037C108.64 314.242 107.695 314.747 106.954 315.489C106.212 316.231 105.708 317.176 105.504 318.205C105.299 319.234 105.405 320.3 105.807 321.269C106.209 322.238 106.889 323.066 107.762 323.648C108.634 324.23 109.66 324.54 110.709 324.539C112.115 324.538 113.462 323.979 114.456 322.985C115.449 321.991 116.007 320.643 116.007 319.237Z" stroke="#3A3A3A" stroke-width="1.28911" stroke-linecap="round" stroke-linejoin="round"/>
<path d="M378.105 99.5468C379.154 99.546 380.179 99.8562 381.052 100.438C381.924 101.021 382.605 101.848 383.007 102.817C383.409 103.786 383.514 104.852 383.31 105.881C383.106 106.91 382.601 107.855 381.86 108.597C381.119 109.339 380.174 109.845 379.145 110.05C378.116 110.255 377.05 110.15 376.081 109.749C375.112 109.347 374.283 108.668 373.7 107.796C373.118 106.924 372.806 105.898 372.806 104.849C372.806 103.444 373.364 102.096 374.358 101.101C375.351 100.107 376.699 99.548 378.105 99.5468Z" fill="white"/>
<path d="M383.407 104.849C383.409 103.8 383.099 102.774 382.518 101.901C381.936 101.028 381.109 100.347 380.14 99.9444C379.171 99.5417 378.105 99.4355 377.076 99.6391C376.046 99.8428 375.101 100.347 374.358 101.088C373.616 101.83 373.11 102.774 372.905 103.803C372.699 104.832 372.804 105.899 373.205 106.868C373.606 107.837 374.286 108.666 375.158 109.249C376.03 109.832 377.056 110.143 378.105 110.143C379.51 110.143 380.857 109.586 381.851 108.593C382.845 107.601 383.405 106.254 383.407 104.849Z" stroke="#3A3A3A" stroke-width="1.28911" stroke-linecap="round" stroke-linejoin="round"/>
<path d="M276.815 72.2306V85.6245L260.968 76.4761V70.254" stroke="#3A3A3A" stroke-width="1.28911" stroke-linecap="round" stroke-linejoin="round"/>
<path d="M268.891 81.0524V71.2423" stroke="#3A3A3A" stroke-width="1.28911" stroke-linecap="round" stroke-linejoin="round"/>
<path d="M51.3111 198.722L42.9276 203.565L34.5398 198.722V189.041L51.3111 198.722Z" fill="white"/>
<path d="M42.9276 203.565L34.5398 208.408L26.152 203.565L34.5398 198.722L42.9276 203.565Z" fill="#D7DCE0"/>
<path d="M34.5398 189.041V198.722L26.152 203.565L17.7685 198.722L34.5398 189.041Z" fill="#3A3A3A"/>
<path d="M34.5398 189.041L51.3111 198.722L42.9276 203.565L34.5398 208.408L26.152 203.565L17.7685 198.722L34.5398 189.041Z" stroke="#3A3A3A" stroke-width="1.28911" stroke-linecap="round" stroke-linejoin="round"/>
<path d="M26.152 203.565L34.5398 198.722L42.9276 203.565" stroke="#3A3A3A" stroke-width="1.28911" stroke-linecap="round" stroke-linejoin="round"/>
<path d="M34.5398 189.041V198.722" stroke="#3A3A3A" stroke-width="1.28911" stroke-linecap="round" stroke-linejoin="round"/>
<path d="M359.933 155.361V170.401C359.933 170.921 359.55 171.479 358.802 171.913L203.46 261.609C202.09 262.396 200.023 262.469 198.837 261.794L42.7944 171.72C42.5686 171.616 42.3751 171.453 42.2344 171.248C42.0937 171.043 42.0111 170.803 41.9951 170.555V155.516C42.0111 155.764 42.0937 156.003 42.2344 156.208C42.3751 156.413 42.5686 156.576 42.7944 156.68L198.82 246.755C200.006 247.438 202.072 247.356 203.443 246.566L358.802 156.869C359.55 156.435 359.933 155.881 359.933 155.361Z" fill="#D7DCE0"/>
<path d="M359.133 154.197C359.359 154.3 359.553 154.463 359.694 154.668C359.835 154.873 359.917 155.113 359.933 155.361C359.933 155.881 359.55 156.435 358.802 156.869L203.46 246.566C202.09 247.356 200.023 247.425 198.837 246.755L42.7944 156.68C42.5686 156.576 42.3751 156.413 42.2344 156.208C42.0937 156.003 42.0111 155.764 41.9951 155.516C41.9951 154.987 42.3776 154.437 43.1253 154.007L198.484 64.3112C199.855 63.5163 201.922 63.4518 203.108 64.1222L359.133 154.197ZM321.229 169.326L345.293 155.438L321.229 141.55L297.166 127.662L273.102 113.774L249.039 99.8907L224.976 86.0027L200.912 72.1189L176.849 86.0027L152.786 99.8907L128.722 113.774L104.659 127.662L80.5954 141.546L56.532 155.438L80.5954 169.326L104.659 183.214L128.722 197.098L152.786 210.982L176.849 224.874L200.912 238.762L224.976 224.874L249.039 210.982L273.102 197.098L297.166 183.214L321.229 169.326Z" fill="white"/>
<path d="M345.275 155.434L321.225 169.322L297.174 155.438L321.225 141.55L345.275 155.434Z" fill="#3A3A3A"/>
<path d="M297.17 127.662L321.225 141.55L297.174 155.438L273.12 141.55L297.17 127.662Z" fill="white"/>
<path d="M321.225 169.322L297.17 183.21L273.12 169.322L297.174 155.438L321.225 169.322Z" fill="white"/>
<path d="M273.12 141.55L297.174 155.438L273.12 169.322L249.065 155.434L273.12 141.55Z" fill="#3A3A3A"/>
<path d="M273.12 113.774L297.17 127.662L273.12 141.55L249.065 127.662L273.12 113.774Z" fill="#3A3A3A"/>
<path d="M297.17 183.21L273.12 197.098H273.115L249.065 183.21L273.12 169.322L297.17 183.21Z" fill="#3A3A3A"/>
<path d="M273.12 169.322L249.065 183.21L225.01 169.322L249.065 155.434L273.12 169.322Z" fill="white"/>
<path d="M273.12 113.774L249.065 127.662L225.01 113.774L249.065 99.8864L273.12 113.774Z" fill="white"/>
<path d="M273.12 141.55L249.065 155.434L225.014 141.55L249.065 127.662L273.12 141.55Z" fill="white"/>
<path d="M249.065 183.21L273.115 197.098L249.065 210.982L225.014 197.098L249.065 183.21Z" fill="white"/>
<path d="M249.065 155.434L225.01 169.322L200.96 155.434L225.014 141.55L249.065 155.434Z" fill="#3A3A3A"/>
<path d="M249.065 183.21L225.014 197.098L200.96 183.21L225.01 169.322L249.065 183.21Z" fill="#3A3A3A"/>
<path d="M249.065 210.982L225.014 224.87L200.964 210.982L225.014 197.098L249.065 210.982Z" fill="#3A3A3A"/>
<path d="M249.065 99.8863L225.01 113.774L200.96 99.8906L225.014 86.0026L249.065 99.8863Z" fill="#3A3A3A"/>
<path d="M249.065 127.662L225.014 141.55L200.96 127.662L225.01 113.774L249.065 127.662Z" fill="#3A3A3A"/>
<path d="M200.96 183.21L225.014 197.098L200.964 210.982L176.905 197.094L200.96 183.21Z" fill="white"/>
<path d="M225.014 86.0026L200.96 99.8906L176.905 86.0026L200.96 72.1146L225.014 86.0026Z" fill="white"/>
<path d="M225.014 141.55L200.96 155.434L176.905 141.55L200.96 127.662L225.014 141.55Z" fill="white"/>
<path d="M225.014 224.87L200.96 238.758L176.909 224.87L200.964 210.982L225.014 224.87Z" fill="white"/>
<path d="M225.01 169.322L200.96 183.21L176.905 169.322L200.96 155.434L225.01 169.322Z" fill="white"/>
<path d="M225.01 113.774L200.96 127.662L176.909 113.774L200.96 99.8907L225.01 113.774Z" fill="white"/>
<path d="M200.964 210.982L176.909 224.87L152.854 210.982L176.905 197.094L200.964 210.982Z" fill="#3A3A3A"/>
<path d="M176.909 113.774L200.96 127.662L176.905 141.55L152.854 127.662L176.909 113.774Z" fill="#3A3A3A"/>
<path d="M176.905 169.322L200.96 183.21L176.905 197.094L152.854 183.21L176.905 169.322Z" fill="#3A3A3A"/>
<path d="M200.96 155.434L176.905 169.322L152.854 155.434L176.905 141.55L200.96 155.434Z" fill="#3A3A3A"/>
<path d="M200.96 99.8906L176.909 113.774L152.854 99.8863L176.905 86.0026L200.96 99.8906Z" fill="#3A3A3A"/>
<path d="M176.909 113.774L152.854 127.662L128.799 113.774L152.854 99.8864L176.909 113.774Z" fill="white"/>
<path d="M176.905 197.094L152.854 210.982L128.804 197.098V197.094L152.854 183.21L176.905 197.094Z" fill="white"/>
<path d="M152.854 127.662L176.905 141.55L152.854 155.434L128.804 141.55L152.854 127.662Z" fill="white"/>
<path d="M152.854 155.434L176.905 169.322L152.854 183.21L128.804 169.322L152.854 155.434Z" fill="white"/>
<path d="M152.854 127.662L128.804 141.55L104.749 127.662L128.799 113.774L152.854 127.662Z" fill="#3A3A3A"/>
<path d="M152.854 155.434L128.804 169.322L104.749 155.438L128.804 141.55L152.854 155.434Z" fill="#3A3A3A"/>
<path d="M128.804 169.322L152.854 183.21L128.804 197.094V197.098L104.749 183.21L128.804 169.322Z" fill="#3A3A3A"/>
<path d="M128.804 141.55L104.749 155.438L80.6985 141.55V141.546L104.749 127.662L128.804 141.55Z" fill="white"/>
<path d="M128.804 169.322L104.749 183.21L80.6985 169.322L104.749 155.438L128.804 169.322Z" fill="white"/>
<path d="M80.6985 141.55L104.749 155.438L80.6985 169.322L56.6437 155.434L80.6985 141.546V141.55Z" fill="#3A3A3A"/>
<path d="M359.933 155.361C359.933 155.881 359.55 156.435 358.802 156.869L203.46 246.566C202.09 247.356 200.023 247.425 198.837 246.755L42.7944 156.68C42.5686 156.576 42.3751 156.413 42.2344 156.208C42.0937 156.003 42.0111 155.764 41.9951 155.516C41.9951 154.987 42.3776 154.437 43.1253 154.007L198.484 64.3112C199.855 63.5163 201.922 63.4518 203.108 64.1222L359.133 154.197C359.359 154.3 359.553 154.463 359.694 154.668C359.835 154.873 359.917 155.113 359.933 155.361Z" stroke="#3A3A3A" stroke-width="1.28911" stroke-linecap="round" stroke-linejoin="round"/>
<path d="M273.115 197.098L249.065 210.982L225.014 224.87L200.959 238.758L176.909 224.87L152.854 210.982L128.804 197.098L104.749 183.21L80.6985 169.322L56.6437 155.434L80.6985 141.546L104.749 127.662L128.799 113.774L152.854 99.8863L176.905 86.0026L200.959 72.1146L225.014 86.0026L249.065 99.8863L273.12 113.774L297.17 127.662L321.225 141.55L345.275 155.434L321.225 169.322L297.17 183.21L273.12 197.098" stroke="#3A3A3A" stroke-width="1.28911" stroke-linecap="round" stroke-linejoin="round"/>
<path d="M225.014 86.0026L200.96 99.8906L176.909 113.774L152.854 127.662L128.804 141.55L104.749 155.438L80.6985 169.322" stroke="#3A3A3A" stroke-width="1.28911" stroke-linecap="round" stroke-linejoin="round"/>
<path d="M249.065 99.8864L225.01 113.774L200.96 127.662L176.905 141.55L152.854 155.434L128.804 169.322L104.749 183.21" stroke="#3A3A3A" stroke-width="1.28911" stroke-linecap="round" stroke-linejoin="round"/>
<path d="M273.12 113.774L249.065 127.662L225.014 141.55L200.96 155.434L176.905 169.322L152.854 183.21L128.804 197.094" stroke="#3A3A3A" stroke-width="1.28911" stroke-linecap="round" stroke-linejoin="round"/>
<path d="M297.17 127.662L273.12 141.55L249.065 155.434L225.01 169.322L200.96 183.21L176.905 197.094L152.854 210.982" stroke="#3A3A3A" stroke-width="1.28911" stroke-linecap="round" stroke-linejoin="round"/>
<path d="M321.225 141.55L297.174 155.438L273.12 169.322L249.065 183.21L225.014 197.098L200.964 210.982L176.909 224.87" stroke="#3A3A3A" stroke-width="1.28911" stroke-linecap="round" stroke-linejoin="round"/>
<path d="M321.225 169.322L297.174 155.438L273.12 141.55L249.065 127.662L225.01 113.774L200.96 99.8906L176.905 86.0026" stroke="#3A3A3A" stroke-width="1.28911" stroke-linecap="round" stroke-linejoin="round"/>
<path d="M297.17 183.21L273.12 169.322L249.065 155.434L225.014 141.55L200.96 127.662L176.909 113.774L152.854 99.8864" stroke="#3A3A3A" stroke-width="1.28911" stroke-linecap="round" stroke-linejoin="round"/>
<path d="M273.12 197.098H273.115L249.065 183.21L225.01 169.322L200.96 155.434L176.905 141.55L152.854 127.662L128.799 113.774" stroke="#3A3A3A" stroke-width="1.28911" stroke-linecap="round" stroke-linejoin="round"/>
<path d="M249.065 210.982L225.014 197.098L200.96 183.21L176.905 169.322L152.854 155.434L128.804 141.55L104.749 127.662" stroke="#3A3A3A" stroke-width="1.28911" stroke-linecap="round" stroke-linejoin="round"/>
<path d="M225.014 224.87L200.964 210.982L176.905 197.094L152.854 183.21L128.804 169.322L104.749 155.438L80.6985 141.55" stroke="#3A3A3A" stroke-width="1.28911" stroke-linecap="round" stroke-linejoin="round"/>
<path d="M41.9951 155.516V170.555C42.0111 170.803 42.0937 171.043 42.2344 171.248C42.3751 171.453 42.5686 171.616 42.7944 171.72L198.82 261.794C200.006 262.477 202.072 262.396 203.443 261.609L358.802 171.913C359.55 171.483 359.933 170.921 359.933 170.401V155.361" stroke="#3A3A3A" stroke-width="1.28911" stroke-linecap="round" stroke-linejoin="round"/>
<path d="M184.339 99.2418C184.339 100.656 183.402 102.069 181.533 103.152C177.799 105.301 171.74 105.301 168.001 103.152C166.132 102.069 165.2 100.656 165.2 99.2418V75.823C165.2 77.2367 166.132 78.6504 168.001 79.729C171.74 81.8775 177.799 81.8775 181.533 79.729C183.402 78.6504 184.339 77.2367 184.339 75.823V99.2418Z" fill="#D7DCE0"/>
<path d="M181.546 71.9341C183.415 73.0127 184.352 74.4264 184.352 75.8401C184.352 77.2539 183.415 78.6676 181.546 79.7461C177.811 81.8947 171.753 81.8947 168.014 79.7461C166.145 78.6676 165.213 77.2539 165.213 75.8401C165.213 74.4264 166.145 73.0127 168.014 71.9341C171.74 69.777 177.799 69.777 181.546 71.9341ZM177.88 75.8401C177.855 75.5679 177.758 75.3072 177.599 75.0851C177.439 74.863 177.223 74.6875 176.973 74.5768C176.295 74.2315 175.544 74.0515 174.782 74.0515C174.02 74.0515 173.269 74.2315 172.591 74.5768C172.326 74.6666 172.096 74.8369 171.934 75.0639C171.771 75.2908 171.684 75.563 171.684 75.8423C171.684 76.1215 171.771 76.3938 171.934 76.6207C172.096 76.8477 172.326 77.018 172.591 77.1078C173.269 77.451 174.019 77.6299 174.78 77.6299C175.54 77.6299 176.29 77.451 176.969 77.1078C177.217 76.9944 177.431 76.8175 177.589 76.5949C177.747 76.3722 177.843 76.1119 177.867 75.8401H177.88Z" fill="white"/>
<path d="M176.961 74.5768C177.225 74.6666 177.455 74.8369 177.617 75.0639C177.78 75.2909 177.867 75.5631 177.867 75.8423C177.867 76.1215 177.78 76.3938 177.617 76.6207C177.455 76.8477 177.225 77.018 176.961 77.1078C176.282 77.451 175.532 77.6299 174.771 77.6299C174.011 77.6299 173.261 77.451 172.582 77.1078C172.318 77.018 172.088 76.8477 171.925 76.6207C171.762 76.3938 171.675 76.1215 171.675 75.8423C171.675 75.5631 171.762 75.2909 171.925 75.0639C172.088 74.8369 172.318 74.6666 172.582 74.5768C173.26 74.2322 174.01 74.0526 174.771 74.0526C175.532 74.0526 176.282 74.2322 176.961 74.5768Z" fill="#3A3A3A"/>
<path d="M165.217 75.8402C165.217 74.4264 166.149 73.0127 168.018 71.9342C171.757 69.7857 177.816 69.7857 181.55 71.9342C183.419 73.0127 184.356 74.4264 184.356 75.8402C184.356 77.2539 183.419 78.6676 181.55 79.7462C177.816 81.8947 171.757 81.8947 168.018 79.7462C166.132 78.6676 165.217 77.2539 165.217 75.8402Z" stroke="#3A3A3A" stroke-width="1.28911" stroke-linecap="round" stroke-linejoin="round"/>
<path d="M171.662 75.8401C171.687 75.5679 171.784 75.3072 171.944 75.0851C172.103 74.863 172.319 74.6875 172.569 74.5768C173.248 74.2315 173.999 74.0515 174.76 74.0515C175.522 74.0515 176.273 74.2315 176.952 74.5768C177.216 74.6666 177.446 74.8369 177.609 75.0639C177.771 75.2909 177.859 75.5631 177.859 75.8423C177.859 76.1215 177.771 76.3938 177.609 76.6207C177.446 76.8477 177.216 77.018 176.952 77.1078C176.273 77.451 175.523 77.6299 174.763 77.6299C174.002 77.6299 173.252 77.451 172.573 77.1078C172.322 76.9966 172.106 76.8205 171.946 76.5977C171.786 76.3749 171.688 76.1134 171.662 75.8401Z" stroke="#3A3A3A" stroke-width="1.28911" stroke-linecap="round" stroke-linejoin="round"/>
<path d="M184.339 75.8401V99.2418" stroke="#3A3A3A" stroke-width="1.28911" stroke-linecap="round" stroke-linejoin="round"/>
<path d="M165.217 75.8401V99.259C165.217 100.673 166.149 102.086 168.018 103.169C171.757 105.318 177.816 105.318 181.55 103.169C183.419 102.086 184.356 100.673 184.356 99.259" stroke="#3A3A3A" stroke-width="1.28911" stroke-linecap="round" stroke-linejoin="round"/>
<path d="M234.098 98.6015C234.098 100.015 233.161 101.429 231.292 102.512C227.558 104.66 221.499 104.66 217.761 102.512C215.892 101.429 214.959 100.015 214.959 98.6015V88.0953C214.959 89.509 215.892 90.9227 217.761 92.0013C221.499 94.1498 227.558 94.1498 231.292 92.0013C233.161 90.9227 234.098 89.509 234.098 88.0953V98.6015Z" fill="white"/>
<path d="M231.292 84.1893C233.161 85.2678 234.098 86.6816 234.098 88.0953C234.098 89.509 233.161 90.9227 231.292 92.0013C227.558 94.1498 221.499 94.1498 217.761 92.0013C215.892 90.9227 214.959 89.509 214.959 88.0953C214.959 86.6816 215.892 85.2678 217.761 84.1893C221.508 82.0322 227.558 82.0322 231.292 84.1893ZM227.627 88.0953C227.602 87.823 227.505 87.5624 227.345 87.3402C227.186 87.1181 226.97 86.9426 226.72 86.832C226.041 86.4867 225.29 86.3067 224.529 86.3067C223.767 86.3067 223.016 86.4867 222.337 86.832C222.073 86.9217 221.843 87.092 221.681 87.319C221.518 87.546 221.43 87.8182 221.43 88.0974C221.43 88.3767 221.518 88.6489 221.681 88.8759C221.843 89.1029 222.073 89.2732 222.337 89.3629C223.016 89.7062 223.766 89.885 224.527 89.885C225.287 89.885 226.037 89.7062 226.716 89.3629C226.967 89.2514 227.183 89.0752 227.343 88.8524C227.503 88.6297 227.601 88.3684 227.627 88.0953Z" fill="white"/>
<path d="M226.72 86.8319C226.985 86.9217 227.214 87.092 227.377 87.319C227.54 87.546 227.627 87.8182 227.627 88.0974C227.627 88.3767 227.54 88.6489 227.377 88.8759C227.214 89.1028 226.985 89.2732 226.72 89.3629C226.041 89.7062 225.292 89.885 224.531 89.885C223.77 89.885 223.02 89.7062 222.342 89.3629C222.077 89.2732 221.847 89.1028 221.685 88.8759C221.522 88.6489 221.435 88.3767 221.435 88.0974C221.435 87.8182 221.522 87.546 221.685 87.319C221.847 87.092 222.077 86.9217 222.342 86.8319C223.02 86.4874 223.77 86.3078 224.531 86.3078C225.292 86.3078 226.042 86.4874 226.72 86.8319Z" fill="#D7DCE0"/>
<path d="M214.959 88.0953C214.959 86.6816 215.892 85.2678 217.761 84.1893C221.499 82.0408 227.558 82.0408 231.292 84.1893C233.161 85.2678 234.098 86.6816 234.098 88.0953C234.098 89.509 233.161 90.9227 231.292 92.0013C227.558 94.1498 221.499 94.1498 217.761 92.0013C215.892 90.9227 214.959 89.5176 214.959 88.0953Z" stroke="#3A3A3A" stroke-width="1.28911" stroke-linecap="round" stroke-linejoin="round"/>
<path d="M221.431 88.0953C221.455 87.823 221.553 87.5623 221.712 87.3402C221.871 87.1181 222.087 86.9426 222.337 86.8319C223.016 86.4867 223.767 86.3067 224.529 86.3067C225.29 86.3067 226.041 86.4867 226.72 86.8319C226.985 86.9217 227.214 87.092 227.377 87.319C227.54 87.546 227.627 87.8182 227.627 88.0974C227.627 88.3767 227.54 88.6489 227.377 88.8759C227.214 89.1028 226.985 89.2732 226.72 89.3629C226.041 89.7062 225.292 89.885 224.531 89.885C223.77 89.885 223.02 89.7062 222.342 89.3629C222.091 89.2517 221.874 89.0756 221.714 88.8528C221.554 88.63 221.456 88.3685 221.431 88.0953Z" stroke="#3A3A3A" stroke-width="1.28911" stroke-linecap="round" stroke-linejoin="round"/>
<path d="M234.098 88.091V98.6015" stroke="#3A3A3A" stroke-width="1.28911" stroke-linecap="round" stroke-linejoin="round"/>
<path d="M214.959 88.0953V98.6187C214.959 100.032 215.892 101.446 217.761 102.529C221.499 104.678 227.558 104.678 231.292 102.529C233.161 101.446 234.098 100.032 234.098 98.6187" stroke="#3A3A3A" stroke-width="1.28911" stroke-linecap="round" stroke-linejoin="round"/>
<path d="M236.045 146.299C236.062 145.797 235.981 145.296 235.808 144.825L238.223 150.467C239.457 153.075 238.296 155.984 234.739 158.029C232.104 159.555 228.654 160.316 225.199 160.316C221.744 160.316 218.285 159.555 215.651 158.029C212.106 155.984 210.946 153.075 212.17 150.467L214.663 144.644C214.454 145.117 214.346 145.627 214.345 146.144C214.345 147.755 215.393 149.349 217.516 150.578C221.761 153.023 228.632 153.023 232.861 150.578C234.915 149.397 235.976 147.858 236.045 146.299Z" fill="white"/>
<path d="M214.667 144.644L225.199 120.027L235.731 144.644C235.761 144.7 235.783 144.769 235.809 144.825C235.982 145.296 236.062 145.797 236.045 146.299C235.976 147.858 234.915 149.397 232.865 150.596C228.637 153.041 221.766 153.041 217.52 150.596C215.398 149.367 214.349 147.772 214.349 146.161C214.348 145.639 214.456 145.122 214.667 144.644Z" fill="#F6D84C"/>
<path d="M235.731 144.644L225.199 120.027L214.663 144.644L212.17 150.467C210.946 153.075 212.106 155.984 215.651 158.029C218.285 159.555 221.736 160.315 225.199 160.315C228.662 160.315 232.104 159.555 234.739 158.029C238.296 155.984 239.465 153.075 238.223 150.467L235.808 144.825" stroke="#3A3A3A" stroke-width="1.28911" stroke-linecap="round" stroke-linejoin="round"/>
<path d="M235.731 144.644C235.761 144.7 235.783 144.769 235.808 144.825C235.981 145.296 236.062 145.797 236.045 146.299C235.976 147.858 234.915 149.397 232.865 150.596C228.637 153.041 221.766 153.041 217.52 150.596C215.398 149.367 214.349 147.772 214.349 146.161C214.35 145.645 214.458 145.134 214.667 144.661" stroke="#3A3A3A" stroke-width="1.28911" stroke-linecap="round" stroke-linejoin="round"/>
<path d="M206.752 191.998C206.762 191.705 206.715 191.413 206.614 191.138L208.024 194.425C208.741 195.947 208.067 197.644 205.991 198.834C204.268 199.712 202.361 200.17 200.427 200.17C198.492 200.17 196.585 199.712 194.862 198.834C192.795 197.644 192.116 195.947 192.834 194.425L194.286 191.031C194.165 191.301 194.1 191.594 194.097 191.89C194.097 192.827 194.712 193.755 195.949 194.468C198.424 195.895 202.429 195.895 204.896 194.468C206.094 193.802 206.713 192.904 206.752 191.998Z" fill="#3A3A3A"/>
<path d="M194.291 191.031L200.431 176.674L206.576 191.031C206.592 191.066 206.606 191.102 206.619 191.138C206.719 191.413 206.766 191.705 206.756 191.998C206.718 192.904 206.099 193.802 204.904 194.49C202.438 195.916 198.433 195.916 195.958 194.49C194.72 193.772 194.106 192.844 194.106 191.912C194.104 191.608 194.167 191.308 194.291 191.031Z" fill="white"/>
<path d="M206.571 191.031L200.427 176.674L194.286 191.031L192.834 194.425C192.116 195.947 192.795 197.644 194.862 198.834C196.585 199.712 198.492 200.17 200.427 200.17C202.361 200.17 204.268 199.712 205.991 198.834C208.067 197.644 208.741 195.947 208.024 194.425L206.614 191.138" stroke="#3A3A3A" stroke-width="1.28911" stroke-linecap="round" stroke-linejoin="round"/>
<path d="M206.571 191.031C206.588 191.066 206.602 191.102 206.614 191.138C206.715 191.413 206.762 191.705 206.752 191.998C206.713 192.904 206.094 193.802 204.9 194.49C202.433 195.916 198.429 195.916 195.954 194.49C194.716 193.772 194.101 192.844 194.101 191.912C194.105 191.615 194.169 191.323 194.291 191.052" stroke="#3A3A3A" stroke-width="1.28911" stroke-linecap="round" stroke-linejoin="round"/>
<path d="M288.451 177.366C288.451 179.467 287.717 180.941 286.526 181.629L260.933 196.402C262.123 195.719 262.863 194.253 262.858 192.144C262.785 189.891 262.142 187.694 260.989 185.758C259.872 183.71 258.244 181.985 256.262 180.752C254.445 179.704 252.825 179.605 251.613 180.292L277.206 165.515C278.396 164.827 280.042 164.926 281.86 165.975C283.84 167.209 285.468 168.933 286.586 170.981C287.734 172.919 288.376 175.115 288.451 177.366Z" fill="white"/>
<path d="M262.858 192.144C262.858 194.245 262.123 195.719 260.933 196.402C259.743 197.085 258.097 196.991 256.284 195.942C254.369 194.695 252.775 193.013 251.632 191.033C250.489 189.054 249.829 186.833 249.705 184.551C249.705 182.454 250.444 180.98 251.634 180.292C252.825 179.605 254.466 179.704 256.284 180.752C258.265 181.985 259.893 183.71 261.011 185.758C262.156 187.696 262.792 189.893 262.858 192.144Z" fill="#D7DCE0"/>
<path d="M251.634 180.292C252.825 179.605 254.466 179.704 256.284 180.752C258.265 181.985 259.893 183.71 261.011 185.758C262.164 187.694 262.807 189.891 262.88 192.144C262.88 194.245 262.145 195.719 260.955 196.402C259.764 197.085 258.119 196.991 256.305 195.942C254.39 194.695 252.796 193.013 251.653 191.033C250.51 189.054 249.85 186.833 249.727 184.551C249.705 182.454 250.444 180.98 251.634 180.292Z" stroke="#3A3A3A" stroke-width="1.28911" stroke-linecap="round" stroke-linejoin="round"/>
<path d="M251.63 180.292L277.223 165.515C278.414 164.827 280.059 164.926 281.877 165.975C283.857 167.209 285.485 168.933 286.604 170.981C287.753 172.918 288.396 175.114 288.473 177.366C288.473 179.467 287.738 180.941 286.548 181.629L260.955 196.402" stroke="#3A3A3A" stroke-width="1.28911" stroke-linecap="round" stroke-linejoin="round"/>
<path d="M180.231 298.285C180.459 298.346 180.668 298.463 180.84 298.625C181.012 298.787 181.142 298.989 181.217 299.213C181.292 299.437 181.311 299.677 181.272 299.91C181.232 300.143 181.136 300.362 180.991 300.549C180.072 301.731 178.671 302.423 176.819 302.423C172.049 302.423 167.232 296.914 167.232 296.914L166.777 301.967C166.762 302.079 166.725 302.187 166.668 302.285C166.612 302.383 166.536 302.469 166.447 302.537C166.357 302.606 166.254 302.656 166.145 302.685C166.036 302.714 165.922 302.721 165.81 302.706L165.595 302.68C165.411 302.662 165.239 302.584 165.102 302.46C164.966 302.335 164.874 302.17 164.839 301.989C164.347 298.903 163.693 295.845 162.879 292.827C167.709 293.64 172.517 299.058 176.681 296.875C177.823 297.444 179.01 297.916 180.231 298.285Z" fill="#3A3A3A"/>
<path d="M176.686 296.871C172.522 299.054 167.713 293.635 162.883 292.823C158.87 277.814 151.875 265.494 150.233 259.354C149.228 255.589 149.292 251.692 149.154 248.259C149.154 247.829 149.116 247.446 149.09 247.055C153.234 246.734 157.314 245.847 161.216 244.417C161.573 247.141 161.809 249.904 162.402 253.669C166.656 280.551 166.63 291.809 176.686 296.871Z" fill="white"/>
<path d="M132.637 196.226C131.73 200.738 129.199 202.495 127.91 205.301C126.299 192.062 125.645 178.286 126.114 171.32C126.475 165.949 131.399 161.742 137.101 162.185L137.669 162.241C139.596 162.511 141.477 163.051 143.255 163.843C143.74 164.054 144.26 164.273 144.806 164.544C147.951 166.035 151.96 168.411 154.784 171.716C155.737 172.819 156.532 174.052 157.143 175.377C157.495 175.407 157.852 175.42 158.204 175.42C160.297 175.42 161.852 175.08 163.055 174.483C165.35 183.223 165.788 192.96 165.174 203.973C165.015 206.874 162.067 208.984 159.089 208.223H159.042C158.926 208.193 158.81 208.154 158.694 208.116C156.318 207.256 154.53 204.141 153.172 200.278C144.78 203.595 136.044 199.831 132.637 196.226Z" fill="#D7DCE0"/>
<path d="M161.212 244.421C157.31 245.851 153.229 246.739 149.086 247.06C146.648 247.243 144.198 247.152 141.781 246.789C137.691 246.205 133.828 244.551 130.583 241.993C129.892 241.445 129.235 240.855 128.615 240.227C132.224 226.477 123.686 218.36 127.558 206.281C127.663 205.952 127.789 205.631 127.936 205.318C129.225 202.512 131.734 200.755 132.662 196.243C136.07 199.848 144.806 203.612 153.241 200.282C154.599 204.15 156.386 207.252 158.763 208.12C160.941 217.707 162.467 230.301 162.957 243.747C162.922 243.734 162.303 244.017 161.212 244.421Z" fill="white"/>
<path d="M163.098 174.483C161.895 175.08 160.34 175.42 158.247 175.42C157.895 175.42 157.538 175.42 157.186 175.377C156.575 174.052 155.78 172.819 154.827 171.716C155.931 171.84 157.572 171.441 157.499 169.769C157.37 166.946 157.001 164.888 157.194 163.452C157.233 163.285 157.322 163.134 157.448 163.017C157.574 162.901 157.732 162.825 157.901 162.799C158.071 162.773 158.245 162.798 158.4 162.872C158.555 162.946 158.684 163.064 158.771 163.212C160.638 166.792 162.089 170.573 163.098 174.483Z" fill="white"/>
<path d="M147.281 140.777C150.976 141.426 155.106 143.046 153.258 147.055C152.897 147.843 152.551 148.579 152.218 149.264C147.728 158.532 145.704 159.228 142.606 159.228C141.233 159.277 139.88 158.892 138.738 158.128C136.985 156.912 136.066 154.79 135.576 152.379C135.176 150.424 134.716 147.88 135.576 145.401C136.495 146.548 138.038 147.21 140.586 147.016C144.131 146.745 147.04 144.24 147.281 140.777Z" fill="white"/>
<path d="M152.218 149.246C152.331 151.197 152.261 153.153 152.012 155.09C151.209 161.36 145.064 160.419 145.064 160.419L144.845 164.54C144.299 164.277 143.779 164.05 143.293 163.839C141.515 163.046 139.635 162.507 137.707 162.236C138.038 161.042 138.416 159.611 138.76 158.133C139.902 158.897 141.255 159.281 142.627 159.233C145.704 159.228 147.728 158.532 152.218 149.246Z" fill="white"/>
<path d="M140.608 133.601C141.488 133.601 142.359 133.775 143.171 134.113C143.984 134.45 144.722 134.945 145.343 135.568C145.965 136.191 146.457 136.93 146.793 137.744C147.128 138.557 147.3 139.429 147.298 140.309C147.298 140.468 147.298 140.622 147.298 140.777C147.058 144.24 144.148 146.745 140.625 147.016C138.077 147.21 136.534 146.548 135.615 145.401C134.596 144.111 134.325 142.259 134.325 140.309C134.33 136.6 136.908 133.601 140.608 133.601Z" fill="white"/>
<path d="M143.551 289.102C144.184 289.619 144.87 290.068 145.597 290.443C145.782 290.532 145.945 290.663 146.072 290.826C146.199 290.989 146.287 291.178 146.328 291.38C146.37 291.582 146.364 291.791 146.312 291.991C146.259 292.191 146.162 292.375 146.026 292.531C142.077 297.172 135.713 289.257 135.713 289.257L134.472 292.943C134.41 293.11 134.299 293.254 134.153 293.355C134.006 293.455 133.833 293.508 133.655 293.506H133.612C133.502 293.505 133.393 293.482 133.291 293.438C133.19 293.394 133.099 293.33 133.023 293.249C132.947 293.169 132.889 293.074 132.85 292.971C132.812 292.867 132.795 292.757 132.8 292.647L132.916 290.318C132.916 290.318 132.839 287.022 132.74 283.039C136.066 284.599 138.472 289.759 141.695 289.759C142.366 289.744 143.014 289.509 143.538 289.089L143.551 289.102Z" fill="#3A3A3A"/>
<path d="M143.551 289.102C143.027 289.522 142.379 289.757 141.708 289.772C138.485 289.772 136.079 284.616 132.753 283.052C132.637 278.699 132.495 273.916 132.392 271.312C132.117 264.514 130.179 259.212 129.435 253.595C129.25 252.247 129.153 250.888 129.148 249.526C129.148 246.892 129.801 244.37 130.583 241.989C133.828 244.546 137.691 246.201 141.781 246.785C140.131 257.39 138.511 277.01 139.71 282.79C140.211 285.279 141.571 287.513 143.551 289.102Z" fill="white"/>
<path d="M127.931 205.305C127.785 205.618 127.659 205.939 127.553 206.268C123.686 218.36 132.22 226.464 128.61 240.215C129.231 240.842 129.888 241.432 130.578 241.981C133.823 244.538 137.686 246.192 141.776 246.776C144.194 247.139 146.644 247.23 149.081 247.047C153.225 246.726 157.305 245.838 161.208 244.408C162.299 244.004 162.927 243.721 162.927 243.717C162.437 230.271 160.911 217.677 158.733 208.09" stroke="#3A3A3A" stroke-width="1.28911" stroke-linecap="round" stroke-linejoin="round"/>
<path d="M129.672 176.249C133.002 186.502 133.406 192.371 132.637 196.226C131.73 200.738 129.199 202.495 127.91 205.301" stroke="#3A3A3A" stroke-width="1.28911" stroke-linecap="round" stroke-linejoin="round"/>
<path d="M130.578 241.993C129.796 244.365 129.143 246.896 129.143 249.531C129.149 250.892 129.245 252.251 129.431 253.6C130.175 259.216 132.112 264.519 132.387 271.316C132.491 273.92 132.632 278.703 132.748 283.056C132.847 287.039 132.925 290.335 132.925 290.335L132.809 292.664C132.803 292.774 132.82 292.885 132.859 292.988C132.897 293.092 132.956 293.186 133.032 293.267C133.108 293.347 133.199 293.411 133.3 293.455C133.401 293.499 133.51 293.522 133.621 293.524H133.664C133.841 293.526 134.015 293.473 134.161 293.372C134.308 293.271 134.419 293.127 134.48 292.961L135.722 289.274C135.722 289.274 142.077 297.189 146.035 292.548C146.17 292.392 146.268 292.208 146.32 292.008C146.373 291.809 146.378 291.6 146.337 291.398C146.295 291.195 146.208 291.006 146.081 290.843C145.954 290.68 145.791 290.549 145.605 290.46C144.878 290.086 144.193 289.636 143.56 289.119C141.579 287.531 140.218 285.299 139.714 282.811C138.515 277.031 140.144 257.411 141.785 246.806" stroke="#3A3A3A" stroke-width="1.28911" stroke-linecap="round" stroke-linejoin="round"/>
<path d="M149.086 247.06C149.112 247.451 149.129 247.855 149.15 248.263C149.288 251.701 149.223 255.594 150.229 259.358C151.87 265.498 158.866 277.835 162.879 292.827C163.693 295.845 164.347 298.903 164.839 301.989C164.874 302.17 164.966 302.335 165.102 302.46C165.239 302.584 165.411 302.662 165.595 302.68L165.81 302.706C165.922 302.721 166.036 302.714 166.145 302.685C166.254 302.656 166.357 302.606 166.447 302.537C166.536 302.469 166.612 302.383 166.668 302.285C166.725 302.187 166.762 302.079 166.777 301.967L167.232 296.914C167.232 296.914 172.049 302.423 176.819 302.423C178.671 302.423 180.072 301.731 180.991 300.549C181.136 300.362 181.232 300.143 181.272 299.91C181.311 299.677 181.292 299.437 181.217 299.213C181.142 298.989 181.012 298.787 180.84 298.625C180.668 298.463 180.459 298.346 180.231 298.285C179.011 297.914 177.825 297.441 176.686 296.871C166.63 291.809 166.656 280.542 162.398 253.673C161.805 249.909 161.569 247.146 161.212 244.421" stroke="#3A3A3A" stroke-width="1.28911" stroke-linecap="round" stroke-linejoin="round"/>
<path d="M132.744 283.056C136.07 284.616 138.476 289.777 141.699 289.777C142.371 289.761 143.018 289.526 143.543 289.106" stroke="#3A3A3A" stroke-width="1.28911" stroke-linecap="round" stroke-linejoin="round"/>
<path d="M149.417 181.762C149.971 185.698 151.019 193.987 153.215 200.265C154.573 204.132 156.361 207.235 158.737 208.103C158.853 208.141 158.969 208.18 159.085 208.21H159.132C162.11 208.971 165.058 206.861 165.217 203.96C165.831 192.96 165.393 183.21 163.098 174.47C162.088 170.565 160.637 166.788 158.771 163.212C158.684 163.064 158.555 162.946 158.4 162.872C158.245 162.798 158.071 162.773 157.901 162.799C157.732 162.825 157.574 162.901 157.448 163.017C157.322 163.134 157.233 163.285 157.194 163.452C157.001 164.888 157.37 166.946 157.499 169.769C157.572 171.441 155.931 171.84 154.827 171.716" stroke="#3A3A3A" stroke-width="1.28911" stroke-linecap="round" stroke-linejoin="round"/>
<path d="M161.349 197.163C160.769 192.771 159.364 182.862 157.912 177.396C157.729 176.705 157.486 176.03 157.186 175.381C156.575 174.056 155.78 172.824 154.827 171.72C152.003 168.398 147.994 166.039 144.849 164.548C144.303 164.286 143.783 164.058 143.298 163.848C141.52 163.055 139.639 162.516 137.711 162.245L137.144 162.189C131.442 161.759 126.518 165.953 126.157 171.324C125.688 178.29 126.342 192.066 127.953 205.305" stroke="#3A3A3A" stroke-width="1.28911" stroke-linecap="round" stroke-linejoin="round"/>
<path d="M132.632 196.222C136.04 199.827 144.776 203.591 153.211 200.261" stroke="#3A3A3A" stroke-width="1.28911" stroke-linecap="round" stroke-linejoin="round"/>
<path d="M144.845 164.544L145.064 160.423C145.064 160.423 151.208 161.36 152.012 155.108C152.261 153.17 152.33 151.214 152.218 149.264" stroke="#3A3A3A" stroke-width="1.28911" stroke-linecap="round" stroke-linejoin="round"/>
<path d="M137.69 162.236C138.021 161.042 138.399 159.611 138.743 158.133" stroke="#3A3A3A" stroke-width="1.28911" stroke-linecap="round" stroke-linejoin="round"/>
<path d="M135.597 145.401C134.704 147.88 135.168 150.424 135.597 152.379C136.087 154.79 137.007 156.912 138.76 158.128C139.901 158.892 141.255 159.277 142.627 159.228C145.725 159.228 147.749 158.532 152.24 149.264C152.569 148.576 152.916 147.84 153.28 147.055C155.127 143.046 150.998 141.426 147.303 140.777" stroke="#3A3A3A" stroke-width="1.28911" stroke-linecap="round" stroke-linejoin="round"/>
<path d="M162.879 292.827C167.709 293.64 172.517 299.058 176.681 296.875" stroke="#3A3A3A" stroke-width="1.28911" stroke-linecap="round" stroke-linejoin="round"/>
<path d="M157.186 175.377C157.538 175.407 157.895 175.42 158.247 175.42C160.34 175.42 161.895 175.08 163.098 174.483" stroke="#3A3A3A" stroke-width="1.28911" stroke-linecap="round" stroke-linejoin="round"/>
<path d="M147.281 140.777C147.281 140.622 147.281 140.468 147.281 140.309C147.283 139.429 147.111 138.557 146.775 137.744C146.44 136.93 145.948 136.191 145.326 135.568C144.705 134.945 143.967 134.45 143.154 134.113C142.342 133.775 141.47 133.601 140.59 133.601C136.891 133.601 134.313 136.609 134.313 140.309C134.313 142.259 134.562 144.129 135.602 145.401C136.521 146.548 138.064 147.21 140.612 147.016C144.131 146.745 147.04 144.24 147.281 140.777Z" stroke="#3A3A3A" stroke-width="1.28911" stroke-linecap="round" stroke-linejoin="round"/>
<path d="M121.409 150.192C121.488 150.229 121.554 150.291 121.598 150.367C121.641 150.443 121.661 150.531 121.653 150.619C121.645 150.707 121.61 150.79 121.553 150.857C121.497 150.924 121.421 150.973 121.336 150.995L116.892 151.455C116.892 151.455 114.911 156.47 108.887 155.271L108.707 155.236C110.46 153.689 111.237 149.521 110.189 146.896L121.409 150.192Z" fill="white"/>
<path d="M41.415 153.277C40.7017 153.019 40.0271 152.744 39.3696 152.456C37.4976 151.613 35.9832 150.136 35.0934 148.285C34.2035 146.435 33.9953 144.33 34.5054 142.341C36.2672 135.418 38.9399 125.982 41.5697 120.882C42.6254 118.783 44.3602 117.104 46.4918 116.117C48.6233 115.13 51.0261 114.894 53.3092 115.446C54.5983 115.768 55.8875 116.099 57.1164 116.434C59.9782 117.203 62.7025 118.02 65.3237 118.871C66.799 119.352 68.2314 119.845 69.6208 120.349C74.8105 122.254 79.3037 125.682 82.5119 130.185C84.9881 133.622 87.661 136.913 90.5172 140.042C91.3803 140.986 92.4816 141.681 93.7056 142.053L110.172 146.892C111.22 149.517 110.443 153.685 108.689 155.232C102.673 154.05 93.9677 152.959 88.5234 150.299C85.1158 148.636 79.5383 143.372 75.3014 139.462C78.4726 149.465 81.111 159.727 84.9568 166.825C85.5591 167.936 85.7815 169.213 85.5898 170.461C85.3981 171.71 84.8031 172.861 83.8955 173.739C81.357 176.151 78.3897 178.066 75.1467 179.386C69.9126 181.471 64.2271 182.162 58.646 181.391C53.0648 180.62 47.7792 178.415 43.3057 174.99C41.7562 173.78 40.3298 172.419 39.0474 170.929C40.0142 165.261 40.7662 159.349 41.415 153.277Z" fill="white"/>
<path d="M92.2618 251.812C92.5579 252.05 92.781 252.367 92.9057 252.725C93.0303 253.084 93.0515 253.471 92.9668 253.841C92.882 254.211 92.6949 254.55 92.4266 254.819C92.1583 255.088 91.8198 255.276 91.4497 255.362C87.1527 256.281 76.8398 258.369 74.6913 257.575C73.2346 257.033 72.9725 255.71 73.0885 254.597C75.5679 255.344 81.9576 252.685 82.3529 248.422C88.5922 252.109 89.2754 250.377 91.5314 251.382C91.7914 251.495 92.0367 251.64 92.2618 251.812Z" fill="#3A3A3A"/>
<path d="M82.3357 247.438C82.3743 247.765 82.3743 248.095 82.3357 248.422C81.9404 252.685 75.5507 255.344 73.0713 254.597C72.837 254.549 72.6215 254.435 72.4513 254.267C72.2811 254.099 72.1635 253.885 72.113 253.651C69.2426 237.082 65.9168 214.926 64.2452 206.345C62.8272 199.079 60.3779 191.985 57.834 183.902C57.5461 182.987 57.2539 182.058 56.9746 181.117C63.0751 182.312 69.391 181.715 75.1597 179.399C77.4027 201.898 79.2762 222.532 82.3357 247.438Z" fill="#3A3A3A"/>
<path d="M75.4389 100.69C75.4389 101.631 74.5795 101.923 73.7588 102.185C73.4287 102.278 73.1068 102.397 72.7963 102.542C69.3329 104.36 69.0492 107.621 67.5109 110.122C65.7921 112.932 62.174 112.975 58.3109 111.596C59.0028 108.747 59.6817 105.838 60.1673 103.002C60.3773 102.033 60.7124 101.095 61.1642 100.213C61.7737 99.1283 62.6677 98.2305 63.7497 97.6164C64.8318 97.0023 66.0609 96.6952 67.3047 96.728C70.2052 96.7194 75.4389 97.682 75.4389 100.69Z" fill="#3A3A3A"/>
<path d="M72.6458 112.451H72.6201C71.563 112.382 67.8933 112.666 66.0112 116.825C65.7338 117.45 65.5151 118.098 65.3581 118.763L65.3237 118.875C62.7068 118.016 59.9782 117.208 57.1164 116.439V116.383C57.4902 114.823 57.8942 113.216 58.2938 111.587C62.1611 112.966 65.762 112.924 67.4937 110.113C69.032 107.612 69.3156 104.351 72.7791 102.533C73.0896 102.388 73.4115 102.269 73.7416 102.177C74.0811 103.268 74.4807 104.024 72.6458 112.451Z" fill="white"/>
<path d="M72.6201 112.451H72.6458C72.7036 112.462 72.7549 112.495 72.7892 112.543C72.8235 112.591 72.8383 112.65 72.8306 112.709C72.2204 117.251 71.6618 117.921 66.0112 116.821C67.8761 112.666 71.563 112.382 72.6201 112.451Z" fill="#3A3A3A"/>
<path d="M56.9789 181.117C57.2668 182.058 57.559 182.987 57.8383 183.902C55.7628 202.078 53.2705 224.324 52.5228 232.682C52.4283 233.769 52.3596 234.62 52.3252 235.2C52.0201 240.472 45.2394 241.113 43.1725 238.852C42.968 238.636 42.8103 238.379 42.709 238.099C42.6078 237.819 42.5651 237.521 42.5838 237.224L44.5647 197.261C44.5647 197.261 43.6796 185.93 43.3143 175.011C47.3206 178.101 52.0043 180.194 56.9789 181.117Z" fill="#3A3A3A"/>
<path d="M55.1011 232.888C55.4171 232.962 55.7102 233.112 55.9546 233.326C56.199 233.539 56.3873 233.81 56.5031 234.113C56.6189 234.416 56.6585 234.743 56.6186 235.065C56.5787 235.387 56.4604 235.695 56.2742 235.96C55.0485 237.655 53.6565 239.222 52.1189 240.64C48.7587 243.648 48.1485 243.48 44.814 242.926C43.4604 242.698 43.1768 240.649 43.194 238.852C45.2609 241.113 52.0416 240.472 52.3467 235.2C52.3811 234.62 52.4498 233.769 52.5443 232.682C53.4018 232.644 54.2607 232.713 55.1011 232.888Z" fill="#3A3A3A"/>
<path d="M43.3229 174.994C43.6882 185.913 44.5734 197.244 44.5734 197.244L42.5924 237.207C42.5738 237.504 42.6164 237.802 42.7176 238.082C42.8189 238.362 42.9767 238.618 43.1811 238.835C45.248 241.095 52.0287 240.455 52.3338 235.183C52.3682 234.603 52.4369 233.752 52.5315 232.665C53.2792 224.307 55.7714 202.061 57.8469 183.885" stroke="#3A3A3A" stroke-width="1.28911" stroke-linecap="round" stroke-linejoin="round"/>
<path d="M56.9789 181.117C57.2668 182.058 57.559 182.987 57.8383 183.902C60.3821 191.985 62.8315 199.079 64.2495 206.345C65.921 214.939 69.2469 237.082 72.1173 253.651C72.1678 253.885 72.2853 254.099 72.4555 254.267C72.6257 254.435 72.8412 254.549 73.0755 254.597C75.5549 255.344 81.9446 252.685 82.34 248.422C82.3785 248.095 82.3785 247.765 82.34 247.438C79.2676 222.515 77.407 201.889 75.1682 179.394" stroke="#3A3A3A" stroke-width="1.28911" stroke-linecap="round" stroke-linejoin="round"/>
<path d="M41.415 153.277C40.7017 153.019 40.0271 152.744 39.3696 152.456C37.4976 151.613 35.9832 150.136 35.0934 148.285C34.2035 146.435 33.9953 144.33 34.5054 142.341C36.2672 135.418 38.9399 125.982 41.5697 120.882C42.6254 118.783 44.3602 117.104 46.4918 116.117C48.6233 115.13 51.0261 114.894 53.3092 115.446C54.5983 115.768 55.8875 116.099 57.1164 116.434C59.9782 117.203 62.7025 118.02 65.3237 118.871C66.799 119.352 68.2314 119.845 69.6208 120.349C74.8105 122.254 79.3037 125.682 82.5119 130.185C84.9881 133.622 87.661 136.913 90.5172 140.042C91.3803 140.986 92.4816 141.681 93.7056 142.053L110.172 146.892L121.391 150.187C121.471 150.225 121.537 150.286 121.581 150.363C121.624 150.439 121.643 150.527 121.635 150.615C121.627 150.702 121.593 150.785 121.536 150.853C121.479 150.92 121.403 150.968 121.318 150.991L116.875 151.451C116.875 151.451 114.894 156.465 108.87 155.266L108.689 155.232C102.673 154.05 93.9677 152.959 88.5234 150.299C85.1158 148.636 79.5383 143.372 75.3014 139.462C78.4726 149.465 81.111 159.727 84.9568 166.825C85.5591 167.936 85.7815 169.213 85.5898 170.461C85.3981 171.71 84.8031 172.861 83.8955 173.739C81.357 176.151 78.3897 178.066 75.1467 179.386C69.9126 181.471 64.2271 182.162 58.646 181.391C53.0648 180.62 47.7792 178.415 43.3057 174.99C41.7562 173.78 40.3298 172.419 39.0474 170.929C39.997 165.257 40.7662 159.327 41.3978 153.273C42.2572 145.254 42.9276 136.944 43.6151 128.53" stroke="#3A3A3A" stroke-width="1.28911" stroke-linecap="round" stroke-linejoin="round"/>
<path d="M73.0841 254.597C72.9896 255.71 73.2302 257.033 74.6869 257.575C76.8354 258.374 87.1483 256.285 91.4453 255.362C91.8154 255.276 92.154 255.088 92.4222 254.819C92.6905 254.55 92.8777 254.211 92.9624 253.841C93.0471 253.471 93.026 253.084 92.9013 252.725C92.7767 252.367 92.5535 252.05 92.2575 251.812C92.0324 251.64 91.7871 251.495 91.527 251.382C89.2711 250.377 88.5879 252.109 82.3486 248.422" stroke="#3A3A3A" stroke-width="1.28911" stroke-linecap="round" stroke-linejoin="round"/>
<path d="M43.1811 238.852C43.1811 240.649 43.4475 242.72 44.8011 242.926C48.1485 243.48 48.7587 243.639 52.1061 240.64C53.6437 239.222 55.0357 237.655 56.2613 235.96C56.4476 235.695 56.5659 235.387 56.6058 235.065C56.6457 234.743 56.606 234.416 56.4902 234.113C56.3745 233.81 56.1861 233.539 55.9417 233.326C55.6973 233.112 55.4042 232.962 55.0882 232.888C54.2409 232.711 53.3746 232.642 52.51 232.682" stroke="#3A3A3A" stroke-width="1.28911" stroke-linecap="round" stroke-linejoin="round"/>
<path d="M58.3024 111.579C62.1697 112.958 65.7706 112.915 67.5023 110.105C69.0406 107.604 69.3243 104.342 72.7877 102.525C73.0982 102.38 73.4201 102.26 73.7502 102.168C74.5795 101.906 75.4304 101.614 75.4304 100.673C75.4304 97.6949 70.1966 96.7151 67.2961 96.7151C66.0523 96.6823 64.8232 96.9894 63.7411 97.6035C62.6591 98.2176 61.7651 99.1154 61.1556 100.2C60.7038 101.082 60.3687 102.02 60.1587 102.989C59.6731 105.821 58.9942 108.73 58.3024 111.583C57.9027 113.211 57.4988 114.819 57.125 116.378" stroke="#3A3A3A" stroke-width="1.28911" stroke-linecap="round" stroke-linejoin="round"/>
<path d="M72.6458 112.451C74.4807 104.024 74.0811 103.255 73.7588 102.172" stroke="#3A3A3A" stroke-width="1.28911" stroke-linecap="round" stroke-linejoin="round"/>
<path d="M66.0113 116.825C71.6618 117.925 72.2205 117.255 72.8306 112.713C72.8383 112.655 72.8235 112.595 72.7892 112.548C72.7549 112.5 72.7036 112.467 72.6458 112.455H72.6201C71.563 112.386 67.8934 112.67 66.0113 116.83C65.7338 117.454 65.5152 118.103 65.3581 118.768" stroke="#3A3A3A" stroke-width="1.28911" stroke-linecap="round" stroke-linejoin="round"/>
<path d="M110.189 146.896C111.237 149.521 110.46 153.689 108.707 155.236" stroke="#3A3A3A" stroke-width="1.28911" stroke-linecap="round" stroke-linejoin="round"/>
<path d="M55.9648 241.014C57.0906 241.663 57.8426 244.344 58.3454 248.224C58.7106 251.077 58.9427 254.58 59.0931 258.387C59.2134 261.395 59.2735 264.604 59.3036 267.84C59.0716 267.866 58.8309 267.896 58.5946 267.939C57.7249 268.087 56.8774 268.344 56.0722 268.704C53.8893 269.675 51.6764 271.381 49.5966 273.645C49.4462 269.873 49.3603 264.69 49.631 259.547C50.0306 251.219 51.3498 242.995 54.7273 241.07C54.9087 240.948 55.12 240.879 55.3382 240.869C55.5564 240.859 55.7731 240.909 55.9648 241.014Z" fill="#D7DCE0"/>
<path d="M49.6267 259.56C49.3559 264.716 49.4419 269.873 49.5923 273.658L49.111 273.388L42.8417 269.843L41.5182 269.091L20.7549 257.355C20.6217 253.51 20.5444 248.332 20.7807 243.261L31.7725 249.483L31.6737 250.025C31.5243 250.698 31.6463 251.404 32.0131 251.988C32.1787 252.242 32.3953 252.459 32.6491 252.624L34.7976 253.845C35.3906 254.188 35.8676 253.815 35.8633 253.028L36.0781 251.928L49.6267 259.56Z" fill="#D7DCE0"/>
<path d="M35.6399 229.511L37.3587 230.495L42.0467 233.154L44.4874 234.538L45.0332 234.847L45.3125 235.002L55.9519 241.018C55.7615 240.918 55.5477 240.871 55.3329 240.882C55.1181 240.894 54.9103 240.963 54.7316 241.082C51.3498 243.012 50.0349 251.236 49.6353 259.56L36.1254 251.945L36.4434 250.257L32.1249 247.812L31.8026 249.5L20.8108 243.278C21.2104 234.839 22.478 226.58 25.7653 224.702C25.9459 224.583 26.1553 224.514 26.3715 224.504C26.5877 224.493 26.8028 224.541 26.9942 224.642L33.8695 228.509L35.2875 229.309L35.5195 229.438L35.6399 229.511Z" fill="white"/>
<path d="M36.4434 250.227L36.1254 251.915L35.9106 253.015C35.9106 253.802 35.4379 254.176 34.8449 253.832L32.6964 252.611C32.4425 252.446 32.2259 252.229 32.0604 251.975C31.6936 251.391 31.5716 250.686 31.7209 250.012L31.8198 249.47L32.142 247.782L36.4434 250.227Z" fill="#3A3A3A"/>
<path d="M35.6055 228.449C35.691 228.388 35.7587 228.305 35.8018 228.21C35.8448 228.114 35.8616 228.008 35.8504 227.904C35.8504 227.044 36.4176 226.705 37.1395 227.044C37.1395 227.079 37.1395 227.109 37.1395 227.143C37.152 227.248 37.1358 227.355 37.0927 227.452C37.0495 227.548 36.9811 227.632 36.8946 227.693L35.657 228.406L35.6055 228.449Z" fill="white"/>
<path d="M35.8504 227.904C35.8746 228.012 35.8634 228.124 35.8185 228.226C35.7736 228.327 35.6972 228.411 35.6009 228.465C35.5045 228.52 35.3932 228.542 35.2834 228.528C35.1735 228.514 35.071 228.466 34.991 228.389C34.7426 228.229 34.5354 228.012 34.3861 227.757C34.2368 227.502 34.1496 227.215 34.1316 226.92C34.1316 225.944 34.4754 225.261 35.0254 224.943L36.3145 224.208C36.8731 223.886 37.638 223.933 38.463 224.419L42.8975 226.997C43.7881 227.578 44.5291 228.361 45.0606 229.283C45.5922 230.204 45.8993 231.237 45.957 232.299C45.9687 232.404 45.9517 232.511 45.9078 232.607C45.8639 232.703 45.7948 232.785 45.7078 232.845L44.4746 233.558C44.3775 233.616 44.2654 233.643 44.1528 233.636C44.0401 233.629 43.9322 233.589 43.8429 233.52C43.5937 233.36 43.386 233.144 43.2366 232.888C43.0872 232.633 43.0005 232.346 42.9835 232.05C42.9581 231.577 42.8215 231.118 42.5848 230.708C42.3481 230.298 42.018 229.949 41.6213 229.691L37.1868 227.113L37.0966 227.066C36.4176 226.705 35.8504 227.066 35.8504 227.904Z" fill="white"/>
<path d="M55.9648 241.014C57.0906 241.663 57.8426 244.344 58.3454 248.224C58.7106 251.077 58.9427 254.58 59.0931 258.387C59.2134 261.395 59.2735 264.604 59.3036 267.84C59.0716 267.866 58.8309 267.896 58.5946 267.939C57.7249 268.087 56.8774 268.344 56.0722 268.704C53.8893 269.675 51.6764 271.381 49.5966 273.645C49.4462 269.873 49.3603 264.69 49.631 259.547C50.0306 251.219 51.3498 242.995 54.7273 241.07C54.9087 240.948 55.12 240.879 55.3382 240.869C55.5564 240.859 55.7731 240.909 55.9648 241.014Z" stroke="#3A3A3A" stroke-width="1.28911" stroke-linecap="round" stroke-linejoin="round"/>
<path d="M49.6267 273.658L49.1454 273.388L42.876 269.843L41.5525 269.091L20.7893 257.355C20.6561 253.509 20.5787 248.332 20.8151 243.261C21.2147 234.822 22.4823 226.563 25.7695 224.685C25.9502 224.566 26.1596 224.497 26.3758 224.487C26.592 224.476 26.8071 224.524 26.9985 224.625L33.8738 228.492L35.2918 229.291L35.5238 229.42L35.657 229.493L37.3758 230.477L42.0639 233.137L44.5046 234.521L45.0503 234.83L45.3296 234.985L55.9691 241.001" stroke="#3A3A3A" stroke-width="1.28911" stroke-linecap="round" stroke-linejoin="round"/>
<path d="M20.8108 243.257L31.8026 249.479" stroke="#3A3A3A" stroke-width="1.28911" stroke-linecap="round" stroke-linejoin="round"/>
<path d="M36.1211 251.924L49.6396 259.56" stroke="#3A3A3A" stroke-width="1.28911" stroke-linecap="round" stroke-linejoin="round"/>
<path d="M36.1254 251.945L35.9106 253.045C35.9106 253.832 35.4379 254.206 34.8449 253.862L32.6964 252.642C32.4425 252.476 32.2259 252.259 32.0604 252.006C31.6936 251.421 31.5716 250.716 31.7209 250.042L31.8198 249.5L32.142 247.812L36.4606 250.257L36.1254 251.945Z" stroke="#3A3A3A" stroke-width="1.28911" stroke-linecap="round" stroke-linejoin="round"/>
<path d="M35.6398 230.95V229.511V228.428" stroke="#3A3A3A" stroke-width="1.28911" stroke-linecap="round" stroke-linejoin="round"/>
<path d="M35.6055 228.449H35.6398L36.8774 227.736C36.9639 227.675 37.0324 227.591 37.0755 227.495C37.1186 227.398 37.1348 227.291 37.1223 227.186C37.1223 227.152 37.1223 227.121 37.1223 227.087" stroke="#3A3A3A" stroke-width="1.28911" stroke-linecap="round" stroke-linejoin="round"/>
<path d="M44.5003 236.046V233.524C44.4033 233.582 44.2912 233.609 44.1785 233.602C44.0659 233.595 43.9579 233.554 43.8687 233.485C43.6195 233.326 43.4118 233.109 43.2624 232.854C43.113 232.598 43.0263 232.311 43.0092 232.016C42.9838 231.543 42.8472 231.083 42.6105 230.673C42.3738 230.263 42.0437 229.915 41.6471 229.657L37.2126 227.079L37.1223 227.031C36.4133 226.67 35.8332 227.031 35.8332 227.891C35.8574 227.999 35.8462 228.112 35.8013 228.213C35.7564 228.314 35.6801 228.398 35.5837 228.452C35.4873 228.507 35.376 228.529 35.2662 228.515C35.1563 228.501 35.0538 228.453 34.9738 228.376C34.7254 228.216 34.5182 227.999 34.3689 227.744C34.2196 227.489 34.1324 227.202 34.1144 226.907C34.1144 225.931 34.4582 225.248 35.0082 224.93L36.2973 224.195C36.8559 223.873 37.6208 223.92 38.4458 224.406L42.8803 226.984C43.7709 227.565 44.5119 228.349 45.0435 229.27C45.575 230.191 45.8821 231.224 45.9398 232.287C45.9515 232.391 45.9345 232.498 45.8906 232.594C45.8467 232.69 45.7776 232.772 45.6906 232.832L44.4573 233.546L44.4187 233.571" stroke="#3A3A3A" stroke-width="1.28911" stroke-linecap="round" stroke-linejoin="round"/>
<path d="M352.421 156.633C352.421 157.424 351.493 157.643 350.595 157.643C347.587 157.643 343.458 154.506 341.649 152.1C340.464 150.518 339.438 148.824 338.585 147.042C338.155 146.101 337.7 145.1 337.296 144.034C338.272 144.558 339.368 144.817 340.476 144.786C342.289 144.786 343.342 144.064 344.021 142.93C344.205 144.025 344.399 145.052 344.609 145.981C344.609 146.075 344.652 146.17 344.674 146.264C346.552 154.54 352.421 154.05 352.421 156.633Z" fill="white"/>
<path d="M335.319 109.555C331.482 110.504 325.732 111.304 319.686 109.894C310.1 107.66 307.569 103.019 305.674 96.6937C296.22 101.945 285.478 111.114 277.704 116.851C277.348 117.113 277.008 117.358 276.677 117.586C275.517 115.718 274.452 113.792 273.489 111.815C296.422 91.0603 306.147 81.4177 319.257 85.053C332.148 88.6324 341.842 93.0154 343.883 99.057C345.924 105.099 342.899 120.572 342.757 127.761C342.752 132.839 343.183 137.908 344.046 142.913C343.367 144.047 342.328 144.769 340.501 144.769C339.394 144.8 338.298 144.541 337.322 144.017C334.554 136.617 333.231 125.828 335.319 109.555Z" fill="white"/>
<path d="M276.678 117.586C275.148 118.707 273.495 119.647 271.749 120.387C269.62 121.262 267.343 121.723 265.041 121.745C263.245 121.745 259.537 121.268 259.537 120.027C259.537 118.566 263.077 118.853 266.412 117.143C267.051 116.823 267.674 116.47 268.277 116.086C270.11 114.794 271.849 113.372 273.481 111.832C274.447 113.803 275.514 115.724 276.678 117.586Z" fill="#D7DCE0"/>
<path d="M344.029 142.913C343.166 137.908 342.735 132.839 342.74 127.761C342.882 120.572 345.907 105.099 343.866 99.057C341.825 93.0154 332.144 88.6324 319.24 85.053C306.138 81.4177 296.405 91.0688 273.472 111.815C271.841 113.355 270.102 114.777 268.268 116.069C267.665 116.453 267.043 116.806 266.403 117.126C263.06 118.845 259.528 118.548 259.528 120.009C259.528 121.268 263.236 121.728 265.033 121.728C267.334 121.706 269.611 121.245 271.74 120.37C273.486 119.63 275.14 118.69 276.669 117.569C277 117.341 277.339 117.096 277.696 116.834C285.461 111.097 296.173 101.927 305.665 96.6764C307.56 102.997 310.091 107.642 319.678 109.877C325.724 111.286 331.473 110.487 335.311 109.537" stroke="#3A3A3A" stroke-width="1.28911" stroke-linecap="round" stroke-linejoin="round"/>
<path d="M335.968 105.051C335.723 106.598 335.508 108.102 335.319 109.555C333.226 125.828 334.554 136.626 337.304 144.021C337.7 145.1 338.134 146.101 338.593 147.029C339.446 148.811 340.473 150.505 341.657 152.087C343.466 154.493 347.6 157.63 350.604 157.63C351.502 157.63 352.43 157.411 352.43 156.62C352.43 154.042 346.569 154.527 344.695 146.238C344.674 146.144 344.648 146.049 344.631 145.955C344.42 145.027 344.227 144 344.042 142.904" stroke="#3A3A3A" stroke-width="1.28911" stroke-linecap="round" stroke-linejoin="round"/>
<path d="M273.502 111.815C274.465 113.792 275.529 115.718 276.69 117.586" stroke="#3A3A3A" stroke-width="1.28911" stroke-linecap="round" stroke-linejoin="round"/>
<path d="M337.304 144.021C338.28 144.545 339.377 144.804 340.484 144.773C342.297 144.773 343.35 144.051 344.029 142.917" stroke="#3A3A3A" stroke-width="1.28911" stroke-linecap="round" stroke-linejoin="round"/>
<path d="M310.886 91.2364C310.426 91.1663 309.98 91.0211 309.567 90.8067C307.805 89.9 306.989 88.1425 305.949 84.258C309.911 86.4925 314.315 80.352 314.315 80.352C315.381 81.7666 316.822 82.8535 318.475 83.4888C318.75 84.8416 319.199 86.153 319.811 87.3906C320.117 88.0283 320.276 88.7266 320.276 89.4338C320.276 90.141 320.117 90.8393 319.811 91.477C318.935 93.2472 317.843 94.9014 316.558 96.4014C316.378 96.6104 316.152 96.7746 315.897 96.8813C315.643 96.988 315.367 97.0342 315.092 97.0163C314.817 96.9984 314.549 96.9168 314.311 96.7781C314.073 96.6393 313.87 96.4472 313.718 96.2167C312.647 94.6322 311.7 92.9671 310.886 91.2364Z" fill="#D7DCE0"/>
<path d="M315.089 72.9225C319.506 74.5553 319.21 81.7314 318.466 83.4201V83.4932C316.813 82.8578 315.372 81.7709 314.307 80.3563C314.307 80.3563 309.902 86.4968 305.94 84.2623C305.644 84.0925 305.367 83.8908 305.115 83.6607C301.716 80.6056 302.881 76.1796 307.809 73.8893C309.02 73.3417 310.295 72.9504 311.604 72.7248C312.762 72.474 313.966 72.5423 315.089 72.9225Z" fill="#3A3A3A"/>
<path d="M312.82 65.3468C315.432 66.3222 316.657 70.2153 315.089 72.9225C313.97 72.5447 312.771 72.4764 311.617 72.7248C310.308 72.9504 309.033 73.3417 307.822 73.8893C306.679 72.9354 306.499 71.3369 306.74 69.777C307.113 67.3277 309.52 64.1221 312.82 65.3468Z" fill="#3A3A3A"/>
<path d="M310.886 91.2364C311.697 92.9698 312.641 94.6377 313.709 96.2253C313.861 96.4558 314.064 96.648 314.302 96.7867C314.541 96.9255 314.808 97.007 315.084 97.0249C315.359 97.0428 315.635 96.9966 315.889 96.8899C316.143 96.7832 316.37 96.619 316.55 96.41C317.834 94.91 318.927 93.2558 319.803 91.4857C320.108 90.8479 320.267 90.1497 320.267 89.4424C320.267 88.7352 320.108 88.0369 319.803 87.3992C319.191 86.1617 318.742 84.8502 318.466 83.4975V83.4244C319.21 81.7357 319.506 74.5597 315.089 72.9268C313.97 72.549 312.771 72.4807 311.617 72.7291C310.308 72.9547 309.033 73.346 307.822 73.8936C302.894 76.1839 301.729 80.6099 305.128 83.6651C305.38 83.8951 305.657 84.0968 305.953 84.2667C309.915 86.5011 314.32 80.3606 314.32 80.3606C315.385 81.7752 316.826 82.8621 318.479 83.4975" stroke="#3A3A3A" stroke-width="1.28911" stroke-linecap="round" stroke-linejoin="round"/>
<path d="M305.953 84.2623C307.015 88.1297 307.809 89.9043 309.571 90.811C309.985 91.0254 310.43 91.1705 310.89 91.2407C312.807 91.5415 314.986 90.7122 315.763 89.2598" stroke="#3A3A3A" stroke-width="1.28911" stroke-linecap="round" stroke-linejoin="round"/>
<path d="M307.822 73.8893C306.679 72.9354 306.499 71.3369 306.74 69.777C307.113 67.3277 309.52 64.1221 312.82 65.3468C315.432 66.3222 316.657 70.2153 315.089 72.9225" stroke="#3A3A3A" stroke-width="1.28911" stroke-linecap="round" stroke-linejoin="round"/>
</svg>
