<svg width="515" height="624" viewBox="0 0 515 624" fill="none" xmlns="http://www.w3.org/2000/svg">
<mask id="mask0_21_20" style="mask-type:alpha" maskUnits="userSpaceOnUse" x="0" y="0" width="515" height="624">
<rect x="0.461487" width="514.539" height="623.02" fill="#651373"/>
</mask>
<g mask="url(#mask0_21_20)">
<path d="M598.477 636.154C919.626 636.154 1179.97 427.88 1179.97 170.961C1179.97 -85.9578 919.626 -294.232 598.477 -294.232C277.329 -294.232 16.9863 -85.9578 16.9863 170.961C16.9863 427.88 277.329 636.154 598.477 636.154Z" stroke="url(#paint0_linear_21_20)" stroke-opacity="0.12" stroke-linecap="round" stroke-linejoin="round"/>
<path d="M598.477 623.02C910.559 623.02 1163.55 420.626 1163.55 170.96C1163.55 -78.7052 910.559 -281.099 598.477 -281.099C286.394 -281.099 33.402 -78.7052 33.402 170.96C33.402 420.626 286.394 623.02 598.477 623.02Z" stroke="url(#paint1_linear_21_20)" stroke-opacity="0.12" stroke-linecap="round" stroke-linejoin="round"/>
<path d="M598.477 609.873C901.483 609.873 1147.12 413.365 1147.12 170.961C1147.12 -71.4438 901.483 -267.952 598.477 -267.952C295.472 -267.952 49.8368 -71.4438 49.8368 170.961C49.8368 413.365 295.472 609.873 598.477 609.873Z" stroke="url(#paint2_linear_21_20)" stroke-opacity="0.12" stroke-linecap="round" stroke-linejoin="round"/>
<path d="M598.478 596.74C892.417 596.74 1130.7 406.112 1130.7 170.961C1130.7 -64.1903 892.417 -254.818 598.478 -254.818C304.538 -254.818 66.2536 -64.1903 66.2536 170.961C66.2536 406.112 304.538 596.74 598.478 596.74Z" stroke="url(#paint3_linear_21_20)" stroke-opacity="0.12" stroke-linecap="round" stroke-linejoin="round"/>
<path d="M598.476 583.593C883.339 583.593 1114.27 398.852 1114.27 170.961C1114.27 -56.9289 883.339 -241.67 598.476 -241.67C313.613 -241.67 82.6863 -56.9289 82.6863 170.961C82.6863 398.852 313.613 583.593 598.476 583.593Z" stroke="url(#paint4_linear_21_20)" stroke-opacity="0.12" stroke-linecap="round" stroke-linejoin="round"/>
<path d="M598.478 570.459C874.274 570.459 1097.85 391.598 1097.85 170.961C1097.85 -49.6761 874.274 -228.538 598.478 -228.538C322.682 -228.538 99.1046 -49.6761 99.1046 170.961C99.1046 391.598 322.682 570.459 598.478 570.459Z" stroke="url(#paint5_linear_21_20)" stroke-opacity="0.12" stroke-linecap="round" stroke-linejoin="round"/>
<path d="M598.478 557.327C865.207 557.327 1081.43 384.345 1081.43 170.961C1081.43 -42.4225 865.207 -215.404 598.478 -215.404C331.748 -215.404 115.521 -42.4225 115.521 170.961C115.521 384.345 331.748 557.327 598.478 557.327Z" stroke="url(#paint6_linear_21_20)" stroke-opacity="0.12" stroke-linecap="round" stroke-linejoin="round"/>
<path d="M598.477 544.18C856.13 544.18 1065 377.084 1065 170.961C1065 -35.1611 856.13 -202.257 598.477 -202.257C340.824 -202.257 131.954 -35.1611 131.954 170.961C131.954 377.084 340.824 544.18 598.477 544.18Z" stroke="url(#paint7_linear_21_20)" stroke-opacity="0.12" stroke-linecap="round" stroke-linejoin="round"/>
<path d="M598.478 531.046C847.065 531.046 1048.58 369.83 1048.58 170.961C1048.58 -27.9086 847.065 -189.124 598.478 -189.124C349.891 -189.124 148.372 -27.9086 148.372 170.961C148.372 369.83 349.891 531.046 598.478 531.046Z" stroke="url(#paint8_linear_21_20)" stroke-opacity="0.12" stroke-linecap="round" stroke-linejoin="round"/>
<path d="M598.477 517.898C837.988 517.898 1032.15 362.569 1032.15 170.961C1032.15 -20.6475 837.988 -175.977 598.477 -175.977C358.967 -175.977 164.806 -20.6475 164.806 170.961C164.806 362.569 358.967 517.898 598.477 517.898Z" stroke="url(#paint9_linear_21_20)" stroke-opacity="0.12" stroke-linecap="round" stroke-linejoin="round"/>
<path d="M598.476 504.766C828.92 504.766 1015.73 355.316 1015.73 170.961C1015.73 -13.3936 828.92 -162.843 598.476 -162.843C368.033 -162.843 181.221 -13.3936 181.221 170.961C181.221 355.316 368.033 504.766 598.476 504.766Z" stroke="url(#paint10_linear_21_20)" stroke-opacity="0.12" stroke-linecap="round" stroke-linejoin="round"/>
<path d="M598.477 491.618C819.845 491.618 999.298 348.055 999.298 170.961C999.298 -6.13258 819.845 -149.696 598.477 -149.696C377.11 -149.696 197.656 -6.13258 197.656 170.961C197.656 348.055 377.11 491.618 598.477 491.618Z" stroke="url(#paint11_linear_21_20)" stroke-opacity="0.12" stroke-linecap="round" stroke-linejoin="round"/>
<path d="M598.477 478.485C810.777 478.485 982.881 340.802 982.881 170.961C982.881 1.12048 810.777 -136.563 598.477 -136.563C386.176 -136.563 214.072 1.12048 214.072 170.961C214.072 340.802 386.176 478.485 598.477 478.485Z" stroke="url(#paint12_linear_21_20)" stroke-opacity="0.12" stroke-linecap="round" stroke-linejoin="round"/>
<path d="M598.477 465.352C801.711 465.352 966.465 333.549 966.465 170.962C966.465 8.37416 801.711 -123.429 598.477 -123.429C395.243 -123.429 230.489 8.37416 230.489 170.962C230.489 333.549 395.243 465.352 598.477 465.352Z" stroke="url(#paint13_linear_21_20)" stroke-opacity="0.12" stroke-linecap="round" stroke-linejoin="round"/>
<path d="M598.478 452.204C792.636 452.204 950.032 326.288 950.032 170.961C950.032 15.635 792.636 -110.282 598.478 -110.282C404.321 -110.282 246.925 15.635 246.925 170.961C246.925 326.288 404.321 452.204 598.478 452.204Z" stroke="url(#paint14_linear_21_20)" stroke-opacity="0.12" stroke-linecap="round" stroke-linejoin="round"/>
<path d="M598.477 439.071C783.568 439.071 933.614 319.034 933.614 170.961C933.614 22.8882 783.568 -97.1487 598.477 -97.1487C413.385 -97.1487 263.339 22.8882 263.339 170.961C263.339 319.034 413.385 439.071 598.477 439.071Z" stroke="url(#paint15_linear_21_20)" stroke-opacity="0.12" stroke-linecap="round" stroke-linejoin="round"/>
<path d="M598.479 425.924C774.494 425.924 917.182 311.773 917.182 170.961C917.182 30.1494 774.494 -84.0013 598.479 -84.0013C422.464 -84.0013 279.775 30.1494 279.775 170.961C279.775 311.773 422.464 425.924 598.479 425.924Z" stroke="url(#paint16_linear_21_20)" stroke-opacity="0.12" stroke-linecap="round" stroke-linejoin="round"/>
<path d="M598.478 412.791C765.427 412.791 900.765 304.52 900.765 170.961C900.765 37.4027 765.427 -70.868 598.478 -70.868C431.53 -70.868 296.191 37.4027 296.191 170.961C296.191 304.52 431.53 412.791 598.478 412.791Z" stroke="url(#paint17_linear_21_20)" stroke-opacity="0.12" stroke-linecap="round" stroke-linejoin="round"/>
<path d="M598.476 399.657C756.358 399.657 884.347 297.267 884.347 170.961C884.347 44.6557 756.358 -57.735 598.476 -57.735C440.595 -57.735 312.606 44.6557 312.606 170.961C312.606 297.267 440.595 399.657 598.476 399.657Z" stroke="url(#paint18_linear_21_20)" stroke-opacity="0.12" stroke-linecap="round" stroke-linejoin="round"/>
<path d="M598.476 386.51C747.282 386.51 867.912 290.006 867.912 170.961C867.912 51.9171 747.282 -44.5874 598.476 -44.5874C449.671 -44.5874 329.04 51.9171 329.04 170.961C329.04 290.006 449.671 386.51 598.476 386.51Z" stroke="url(#paint19_linear_21_20)" stroke-opacity="0.12" stroke-linecap="round" stroke-linejoin="round"/>
<path d="M598.479 373.376C738.218 373.376 851.498 282.752 851.498 170.961C851.498 59.1697 738.218 -31.4548 598.479 -31.4548C458.74 -31.4548 345.459 59.1697 345.459 170.961C345.459 282.752 458.74 373.376 598.479 373.376Z" stroke="url(#paint20_linear_21_20)" stroke-opacity="0.12" stroke-linecap="round" stroke-linejoin="round"/>
<path d="M598.478 360.229C729.141 360.229 835.064 275.491 835.064 170.961C835.064 66.431 729.141 -18.3073 598.478 -18.3073C467.816 -18.3073 361.893 66.431 361.893 170.961C361.893 275.491 467.816 360.229 598.478 360.229Z" stroke="url(#paint21_linear_21_20)" stroke-opacity="0.12" stroke-linecap="round" stroke-linejoin="round"/>
<path d="M598.477 347.097C720.073 347.097 818.646 268.238 818.646 170.962C818.646 73.6848 720.073 -5.17355 598.477 -5.17355C476.881 -5.17355 378.308 73.6848 378.308 170.962C378.308 268.238 476.881 347.097 598.477 347.097Z" stroke="url(#paint22_linear_21_20)" stroke-opacity="0.12" stroke-linecap="round" stroke-linejoin="round"/>
<path d="M598.478 333.963C711.007 333.963 802.23 260.984 802.23 170.961C802.23 80.9374 711.007 7.95898 598.478 7.95898C485.949 7.95898 394.726 80.9374 394.726 170.961C394.726 260.984 485.949 333.963 598.478 333.963Z" stroke="url(#paint23_linear_21_20)" stroke-opacity="0.12" stroke-linecap="round" stroke-linejoin="round"/>
<path d="M598.477 320.816C701.93 320.816 785.795 253.723 785.795 170.961C785.795 88.1987 701.93 21.1065 598.477 21.1065C495.024 21.1065 411.159 88.1987 411.159 170.961C411.159 253.723 495.024 320.816 598.477 320.816Z" stroke="url(#paint24_linear_21_20)" stroke-opacity="0.12" stroke-linecap="round" stroke-linejoin="round"/>
<path d="M598.477 307.683C692.863 307.683 769.378 246.471 769.378 170.961C769.378 95.4524 692.863 34.2401 598.477 34.2401C504.09 34.2401 427.575 95.4524 427.575 170.961C427.575 246.471 504.09 307.683 598.477 307.683Z" stroke="url(#paint25_linear_21_20)" stroke-opacity="0.12" stroke-linecap="round" stroke-linejoin="round"/>
<path d="M598.477 294.535C683.787 294.535 752.945 239.209 752.945 170.961C752.945 102.713 683.787 47.3874 598.477 47.3874C513.167 47.3874 444.01 102.713 444.01 170.961C444.01 239.209 513.167 294.535 598.477 294.535Z" stroke="url(#paint26_linear_21_20)" stroke-opacity="0.12" stroke-linecap="round" stroke-linejoin="round"/>
<path d="M598.477 281.402C674.721 281.402 736.528 231.956 736.528 170.961C736.528 109.966 674.721 60.5203 598.477 60.5203C522.234 60.5203 460.426 109.966 460.426 170.961C460.426 231.956 522.234 281.402 598.477 281.402Z" stroke="url(#paint27_linear_21_20)" stroke-opacity="0.12" stroke-linecap="round" stroke-linejoin="round"/>
<path d="M598.478 268.255C665.645 268.255 720.094 224.695 720.094 170.961C720.094 117.228 665.645 73.6678 598.478 73.6678C531.31 73.6678 476.861 117.228 476.861 170.961C476.861 224.695 531.31 268.255 598.478 268.255Z" stroke="url(#paint28_linear_21_20)" stroke-opacity="0.12" stroke-linecap="round" stroke-linejoin="round"/>
<path d="M598.478 255.122C656.578 255.122 703.678 217.442 703.678 170.961C703.678 124.481 656.578 86.8012 598.478 86.8012C540.377 86.8012 493.277 124.481 493.277 170.961C493.277 217.442 540.377 255.122 598.478 255.122Z" stroke="url(#paint29_linear_21_20)" stroke-opacity="0.12" stroke-linecap="round" stroke-linejoin="round"/>
<path d="M598.478 241.988C647.512 241.988 687.262 210.188 687.262 170.961C687.262 131.734 647.512 99.934 598.478 99.934C549.444 99.934 509.694 131.734 509.694 170.961C509.694 210.188 549.444 241.988 598.478 241.988Z" stroke="url(#paint30_linear_21_20)" stroke-opacity="0.12" stroke-linecap="round" stroke-linejoin="round"/>
</g>
<defs>
<linearGradient id="paint0_linear_21_20" x1="598.477" y1="-294.232" x2="598.477" y2="636.154" gradientUnits="userSpaceOnUse">
<stop stop-color="white"/>
<stop offset="1" stop-color="white" stop-opacity="0"/>
</linearGradient>
<linearGradient id="paint1_linear_21_20" x1="598.477" y1="-281.099" x2="598.477" y2="623.02" gradientUnits="userSpaceOnUse">
<stop stop-color="white"/>
<stop offset="1" stop-color="white" stop-opacity="0"/>
</linearGradient>
<linearGradient id="paint2_linear_21_20" x1="598.477" y1="-267.952" x2="598.477" y2="609.873" gradientUnits="userSpaceOnUse">
<stop stop-color="white"/>
<stop offset="1" stop-color="white" stop-opacity="0"/>
</linearGradient>
<linearGradient id="paint3_linear_21_20" x1="598.478" y1="-254.818" x2="598.478" y2="596.74" gradientUnits="userSpaceOnUse">
<stop stop-color="white"/>
<stop offset="1" stop-color="white" stop-opacity="0"/>
</linearGradient>
<linearGradient id="paint4_linear_21_20" x1="598.476" y1="-241.67" x2="598.476" y2="583.593" gradientUnits="userSpaceOnUse">
<stop stop-color="white"/>
<stop offset="1" stop-color="white" stop-opacity="0"/>
</linearGradient>
<linearGradient id="paint5_linear_21_20" x1="598.478" y1="-228.538" x2="598.478" y2="570.459" gradientUnits="userSpaceOnUse">
<stop stop-color="white"/>
<stop offset="1" stop-color="white" stop-opacity="0"/>
</linearGradient>
<linearGradient id="paint6_linear_21_20" x1="598.478" y1="-215.404" x2="598.478" y2="557.327" gradientUnits="userSpaceOnUse">
<stop stop-color="white"/>
<stop offset="1" stop-color="white" stop-opacity="0"/>
</linearGradient>
<linearGradient id="paint7_linear_21_20" x1="598.477" y1="-202.257" x2="598.477" y2="544.18" gradientUnits="userSpaceOnUse">
<stop stop-color="white"/>
<stop offset="1" stop-color="white" stop-opacity="0"/>
</linearGradient>
<linearGradient id="paint8_linear_21_20" x1="598.478" y1="-189.124" x2="598.478" y2="531.046" gradientUnits="userSpaceOnUse">
<stop stop-color="white"/>
<stop offset="1" stop-color="white" stop-opacity="0"/>
</linearGradient>
<linearGradient id="paint9_linear_21_20" x1="598.477" y1="-175.977" x2="598.477" y2="517.898" gradientUnits="userSpaceOnUse">
<stop stop-color="white"/>
<stop offset="1" stop-color="white" stop-opacity="0"/>
</linearGradient>
<linearGradient id="paint10_linear_21_20" x1="598.476" y1="-162.843" x2="598.476" y2="504.766" gradientUnits="userSpaceOnUse">
<stop stop-color="white"/>
<stop offset="1" stop-color="white" stop-opacity="0"/>
</linearGradient>
<linearGradient id="paint11_linear_21_20" x1="598.477" y1="-149.696" x2="598.477" y2="491.618" gradientUnits="userSpaceOnUse">
<stop stop-color="white"/>
<stop offset="1" stop-color="white" stop-opacity="0"/>
</linearGradient>
<linearGradient id="paint12_linear_21_20" x1="598.477" y1="-136.563" x2="598.477" y2="478.485" gradientUnits="userSpaceOnUse">
<stop stop-color="white"/>
<stop offset="1" stop-color="white" stop-opacity="0"/>
</linearGradient>
<linearGradient id="paint13_linear_21_20" x1="598.477" y1="-123.429" x2="598.477" y2="465.352" gradientUnits="userSpaceOnUse">
<stop stop-color="white"/>
<stop offset="1" stop-color="white" stop-opacity="0"/>
</linearGradient>
<linearGradient id="paint14_linear_21_20" x1="598.478" y1="-110.282" x2="598.478" y2="452.204" gradientUnits="userSpaceOnUse">
<stop stop-color="white"/>
<stop offset="1" stop-color="white" stop-opacity="0"/>
</linearGradient>
<linearGradient id="paint15_linear_21_20" x1="598.477" y1="-97.1487" x2="598.477" y2="439.071" gradientUnits="userSpaceOnUse">
<stop stop-color="white"/>
<stop offset="1" stop-color="white" stop-opacity="0"/>
</linearGradient>
<linearGradient id="paint16_linear_21_20" x1="598.479" y1="-84.0013" x2="598.479" y2="425.924" gradientUnits="userSpaceOnUse">
<stop stop-color="white"/>
<stop offset="1" stop-color="white" stop-opacity="0"/>
</linearGradient>
<linearGradient id="paint17_linear_21_20" x1="598.478" y1="-70.868" x2="598.478" y2="412.791" gradientUnits="userSpaceOnUse">
<stop stop-color="white"/>
<stop offset="1" stop-color="white" stop-opacity="0"/>
</linearGradient>
<linearGradient id="paint18_linear_21_20" x1="598.476" y1="-57.735" x2="598.476" y2="399.657" gradientUnits="userSpaceOnUse">
<stop stop-color="white"/>
<stop offset="1" stop-color="white" stop-opacity="0"/>
</linearGradient>
<linearGradient id="paint19_linear_21_20" x1="598.476" y1="-44.5874" x2="598.476" y2="386.51" gradientUnits="userSpaceOnUse">
<stop stop-color="white"/>
<stop offset="1" stop-color="white" stop-opacity="0"/>
</linearGradient>
<linearGradient id="paint20_linear_21_20" x1="598.479" y1="-31.4548" x2="598.479" y2="373.376" gradientUnits="userSpaceOnUse">
<stop stop-color="white"/>
<stop offset="1" stop-color="white" stop-opacity="0"/>
</linearGradient>
<linearGradient id="paint21_linear_21_20" x1="598.478" y1="-18.3073" x2="598.478" y2="360.229" gradientUnits="userSpaceOnUse">
<stop stop-color="white"/>
<stop offset="1" stop-color="white" stop-opacity="0"/>
</linearGradient>
<linearGradient id="paint22_linear_21_20" x1="598.477" y1="-5.17355" x2="598.477" y2="347.097" gradientUnits="userSpaceOnUse">
<stop stop-color="white"/>
<stop offset="1" stop-color="white" stop-opacity="0"/>
</linearGradient>
<linearGradient id="paint23_linear_21_20" x1="598.478" y1="7.95898" x2="598.478" y2="333.963" gradientUnits="userSpaceOnUse">
<stop stop-color="white"/>
<stop offset="1" stop-color="white" stop-opacity="0"/>
</linearGradient>
<linearGradient id="paint24_linear_21_20" x1="598.477" y1="21.1065" x2="598.477" y2="320.816" gradientUnits="userSpaceOnUse">
<stop stop-color="white"/>
<stop offset="1" stop-color="white" stop-opacity="0"/>
</linearGradient>
<linearGradient id="paint25_linear_21_20" x1="598.477" y1="34.2401" x2="598.477" y2="307.683" gradientUnits="userSpaceOnUse">
<stop stop-color="white"/>
<stop offset="1" stop-color="white" stop-opacity="0"/>
</linearGradient>
<linearGradient id="paint26_linear_21_20" x1="598.477" y1="47.3874" x2="598.477" y2="294.535" gradientUnits="userSpaceOnUse">
<stop stop-color="white"/>
<stop offset="1" stop-color="white" stop-opacity="0"/>
</linearGradient>
<linearGradient id="paint27_linear_21_20" x1="598.477" y1="60.5203" x2="598.477" y2="281.402" gradientUnits="userSpaceOnUse">
<stop stop-color="white"/>
<stop offset="1" stop-color="white" stop-opacity="0"/>
</linearGradient>
<linearGradient id="paint28_linear_21_20" x1="598.478" y1="73.6678" x2="598.478" y2="268.255" gradientUnits="userSpaceOnUse">
<stop stop-color="white"/>
<stop offset="1" stop-color="white" stop-opacity="0"/>
</linearGradient>
<linearGradient id="paint29_linear_21_20" x1="598.478" y1="86.8012" x2="598.478" y2="255.122" gradientUnits="userSpaceOnUse">
<stop stop-color="white"/>
<stop offset="1" stop-color="white" stop-opacity="0"/>
</linearGradient>
<linearGradient id="paint30_linear_21_20" x1="598.478" y1="99.934" x2="598.478" y2="241.988" gradientUnits="userSpaceOnUse">
<stop stop-color="white"/>
<stop offset="1" stop-color="white" stop-opacity="0"/>
</linearGradient>
</defs>
</svg>
