<svg xmlns="http://www.w3.org/2000/svg" xmlns:xlink="http://www.w3.org/1999/xlink" viewBox="0 0 566.1 132.64"><defs><linearGradient id="linear-gradient" x1="79.99" y1="97.41" x2="132.98" y2="44.41" gradientUnits="userSpaceOnUse"><stop offset="0" stop-color="#f15a22"/><stop offset="0.7" stop-color="#faa61a"/></linearGradient><linearGradient id="linear-gradient-2" x1="655" y1="-1048.27" x2="708" y2="-1101.26" gradientTransform="translate(890.48 1017.6) rotate(-72)" gradientUnits="userSpaceOnUse"><stop offset="0" stop-color="#00746b"/><stop offset="0.7" stop-color="#00b5ad"/></linearGradient><linearGradient id="linear-gradient-3" x1="1496.72" y1="-855.33" x2="1549.71" y2="-908.32" gradientTransform="translate(1788.99 235.18) rotate(-144)" gradientUnits="userSpaceOnUse"><stop offset="0" stop-color="#023f88"/><stop offset="0.7" stop-color="#007dc5"/></linearGradient><linearGradient id="linear-gradient-4" x1="1754.37" y1="195.04" x2="1807.36" y2="142.05" gradientTransform="translate(1580.77 -813.78) rotate(144)" gradientUnits="userSpaceOnUse"><stop offset="0" stop-color="#410156"/><stop offset="0.7" stop-color="#812990"/></linearGradient><linearGradient id="linear-gradient-5" x1="802.04" y1="807.29" x2="855.03" y2="754.29" gradientTransform="translate(569.68 -921.7) rotate(72)" gradientUnits="userSpaceOnUse"><stop offset="0" stop-color="#91005e"/><stop offset="0.7" stop-color="#d80b8c"/></linearGradient></defs><g id="Layer_2" data-name="Layer 2"><g id="Logo"><path d="M126.47,50.53h0a5.34,5.34,0,1,1-10.68,0v0H103.17A38.55,38.55,0,0,1,68,85.38a49.93,49.93,0,0,0,71.16-34.84ZM106.3,63.06a1.41,1.41,0,0,1-1.4,1.2h-.21a1.41,1.41,0,0,1,.41-2.8h0A1.42,1.42,0,0,1,106.3,63.06Zm5.79.92a1.42,1.42,0,0,1-1.4,1.2l-.21,0a1.41,1.41,0,1,1,.41-2.79h0A1.42,1.42,0,0,1,112.09,64Zm5.78.91a1.42,1.42,0,0,1-1.4,1.21l-.21,0a1.41,1.41,0,0,1,.41-2.8h0A1.42,1.42,0,0,1,117.87,64.89Zm5.79.92a1.42,1.42,0,0,1-1.4,1.2h-.21a1.41,1.41,0,1,1,.41-2.8h0A1.43,1.43,0,0,1,123.66,65.81ZM128,67.93h-.21a1.42,1.42,0,0,1-1.19-1.61,1.39,1.39,0,0,1,1.6-1.19h0a1.41,1.41,0,0,1-.21,2.81Z" style="fill:url(#linear-gradient)"/><path d="M65.64,12h0a5.34,5.34,0,0,1-3.3,10.16h0l-3.92,12a38.54,38.54,0,0,1,22.3,44.27A49.92,49.92,0,0,0,69.56,0Zm5.69,23.06a1.41,1.41,0,0,1,.71,1.7A1.67,1.67,0,0,1,72,37a1.41,1.41,0,0,1-1.9.63,1.4,1.4,0,0,1-.63-1.89h0A1.41,1.41,0,0,1,71.33,35.07ZM74,29.85a1.41,1.41,0,0,1,.71,1.7,1.67,1.67,0,0,1-.08.2,1.41,1.41,0,1,1-2.53-1.26h0A1.42,1.42,0,0,1,74,29.85Zm2.66-5.22a1.42,1.42,0,0,1,.71,1.7,1.19,1.19,0,0,1-.08.2,1.41,1.41,0,1,1-2.53-1.26h0A1.43,1.43,0,0,1,76.65,24.63Zm2.66-5.21a1.41,1.41,0,0,1,.71,1.7,1.54,1.54,0,0,1-.08.19A1.42,1.42,0,0,1,78,22a1.4,1.4,0,0,1-.63-1.89h0A1.41,1.41,0,0,1,79.31,19.42Zm3.37-3.52a1.08,1.08,0,0,1-.08.19,1.42,1.42,0,0,1-1.9.64,1.4,1.4,0,0,1-.63-1.89h0a1.41,1.41,0,0,1,2.61,1.07Z" style="fill:url(#linear-gradient-2)"/><path d="M10.22,58v0a5.34,5.34,0,0,1,8.64,6.28l0,0,10.2,7.43a38.53,38.53,0,0,1,49-7.52A49.91,49.91,0,0,0,0,50.54ZM33.9,59.69a1.43,1.43,0,0,1,1.84-.15l.16.14a1.41,1.41,0,1,1-2,2h0A1.41,1.41,0,0,1,33.9,59.69Zm-4.14-4.14a1.42,1.42,0,0,1,1.84-.15l.16.13a1.42,1.42,0,0,1-2,2h0A1.41,1.41,0,0,1,29.76,55.55Zm-4.14-4.14a1.41,1.41,0,0,1,1.84-.15l.16.13a1.44,1.44,0,0,1,0,2,1.42,1.42,0,0,1-2,0h0A1.42,1.42,0,0,1,25.62,51.41Zm-4.14-4.14a1.42,1.42,0,0,1,1.84-.16l.16.14a1.43,1.43,0,0,1,0,2,1.41,1.41,0,0,1-2,0h0A1.42,1.42,0,0,1,21.48,47.27ZM19.18,43l.16.14a1.43,1.43,0,0,1,0,2,1.41,1.41,0,0,1-2,0h0A1.42,1.42,0,0,1,19.18,43Z" style="fill:url(#linear-gradient-3)"/><path d="M36.8,124.9v0a5.34,5.34,0,1,1,8.64-6.28l0,0,10.22-7.41a38.53,38.53,0,0,1,8-48.91,49.91,49.91,0,0,0-37.09,70Zm9-22a1.4,1.4,0,0,1,.42-1.79l.18-.11a1.41,1.41,0,0,1,1.91.6,1.4,1.4,0,0,1-.6,1.9h0A1.41,1.41,0,0,1,45.75,102.9Zm-5.22,2.66a1.4,1.4,0,0,1,.42-1.79,1.88,1.88,0,0,1,.18-.12,1.42,1.42,0,0,1,1.31,2.51h0A1.42,1.42,0,0,1,40.53,105.56Zm-5.22,2.66a1.43,1.43,0,0,1,.42-1.8l.18-.11a1.42,1.42,0,0,1,1.32,2.51h0A1.42,1.42,0,0,1,35.31,108.22Zm-5.22,2.66a1.43,1.43,0,0,1,.42-1.8l.18-.11A1.42,1.42,0,1,1,32,111.48h0A1.42,1.42,0,0,1,30.09,110.88Zm-4.79.86a.78.78,0,0,1,.18-.11,1.42,1.42,0,0,1,1.91.6,1.41,1.41,0,0,1-.6,1.9h0a1.41,1.41,0,0,1-1.48-2.4Z" style="fill:url(#linear-gradient-4)"/><path d="M108.65,120.29h0a5.34,5.34,0,1,1-3.31-10.16h0l-3.89-12A38.54,38.54,0,0,1,57.43,75.41a49.92,49.92,0,0,0,55.12,56.91ZM90.5,105a1.42,1.42,0,0,1-1.58-1,1.55,1.55,0,0,1,0-.21A1.42,1.42,0,0,1,90,102.19a1.4,1.4,0,0,1,1.62,1.16h0A1.41,1.41,0,0,1,90.5,105Zm.92,5.79a1.42,1.42,0,0,1-1.58-1,1.46,1.46,0,0,1,0-.2,1.42,1.42,0,1,1,2.79-.48h0A1.42,1.42,0,0,1,91.42,110.77Zm.91,5.78a1.4,1.4,0,0,1-1.57-1,.8.8,0,0,1-.05-.21,1.42,1.42,0,0,1,1.16-1.63,1.4,1.4,0,0,1,1.62,1.16h0A1.43,1.43,0,0,1,92.33,116.55Zm.92,5.79a1.42,1.42,0,0,1-1.58-1,1.29,1.29,0,0,1,0-.21,1.41,1.41,0,1,1,2.79-.47h0A1.42,1.42,0,0,1,93.25,122.34Zm-.66,4.83a.8.8,0,0,1,0-.21,1.42,1.42,0,0,1,1.16-1.63,1.4,1.4,0,0,1,1.62,1.16h0a1.43,1.43,0,0,1-1.17,1.63A1.4,1.4,0,0,1,92.59,127.17Z" style="fill:url(#linear-gradient-5)"/><path d="M168,109.55h-2.88v9.67a3.26,3.26,0,0,1-1.66.43v-10.1h-3.32a3.22,3.22,0,0,1,.45-1.67h7.86A3.24,3.24,0,0,1,168,109.55Z" style="fill:#a7a9ac"/><path d="M173.46,113.82a6.58,6.58,0,0,1,.28-1.88,6.87,6.87,0,0,1,.79-1.69,7,7,0,0,1,1.21-1.4,6.18,6.18,0,0,1,1.57-1,.79.79,0,0,1,.64,0,6.36,6.36,0,0,1,1.57,1,7.35,7.35,0,0,1,1.2,1.41,6.65,6.65,0,0,1,.78,1.69,6.46,6.46,0,0,1,.28,1.87v5.4a3.29,3.29,0,0,1-1.66.43v-3.87h-5v3.44a3.39,3.39,0,0,1-1.68.43Zm1.68.3h5a7,7,0,0,0-.16-1.5,5.07,5.07,0,0,0-.53-1.39,5.34,5.34,0,0,0-.79-1,5.09,5.09,0,0,0-1-.77,4.88,4.88,0,0,0-1,.77,4.93,4.93,0,0,0-1.32,2.41A7.63,7.63,0,0,0,175.14,114.12Z" style="fill:#a7a9ac"/><path d="M191.37,119.52a4,4,0,0,1-1.6-.33,4,4,0,0,1-1.31-.88,4.28,4.28,0,0,1-.89-1.31,4,4,0,0,1-.33-1.61v-3.46a4,4,0,0,1,.33-1.6,4.21,4.21,0,0,1,.89-1.32,4.27,4.27,0,0,1,1.32-.89,4.06,4.06,0,0,1,1.63-.33,4.19,4.19,0,0,1,3.58,2.07,4,4,0,0,1,.5,1.37,3.62,3.62,0,0,1-.77.3,2.94,2.94,0,0,1-.84.12,2.32,2.32,0,0,0-.26-.87,2.71,2.71,0,0,0-.55-.7,2.37,2.37,0,0,0-.76-.47,2.44,2.44,0,0,0-.9-.17,2.4,2.4,0,0,0-1,.2,2.47,2.47,0,0,0-.79.52,2.72,2.72,0,0,0-.54.78,2.58,2.58,0,0,0-.21,1v3.54a2.58,2.58,0,0,0,.21,1,2.48,2.48,0,0,0,1.33,1.27,2.4,2.4,0,0,0,1,.2h2.47v-2.09h-2.07a3.89,3.89,0,0,1,.09-.85,3.37,3.37,0,0,1,.33-.81h2a3.36,3.36,0,0,1,1.35.44v4.53a3.27,3.27,0,0,1-1.65.43Z" style="fill:#a7a9ac"/><path d="M202.68,107.75v10.12h5.82a3.29,3.29,0,0,1-.44,1.65h-5.38a3.12,3.12,0,0,1-.86-.11,2.84,2.84,0,0,1-.8-.34V108.2A3.18,3.18,0,0,1,202.68,107.75Z" style="fill:#a7a9ac"/><path d="M214,117.87v-8.32h-1a3.76,3.76,0,0,1,.09-.85,3.7,3.7,0,0,1,.33-.82h3.32a3.24,3.24,0,0,1-.45,1.67h-.59v8.32h1a3.15,3.15,0,0,1-.45,1.65H213a3.91,3.91,0,0,1,.09-.86,3.5,3.5,0,0,1,.33-.79Z" style="fill:#a7a9ac"/><path d="M230.28,107.75v11.39a3.26,3.26,0,0,1-1.66.43l-5-8.39v8a3.33,3.33,0,0,1-1.67.43V108.28a3.34,3.34,0,0,1,1.67-.45l5,8.41v-8A3.21,3.21,0,0,1,230.28,107.75Z" style="fill:#a7a9ac"/><path d="M237.4,109.55v3.32h5a3.38,3.38,0,0,1-.45,1.67H237.4v3.33h6.24a3.28,3.28,0,0,1-.43,1.65H237.4a3.15,3.15,0,0,1-1.65-.45V108.33a3.15,3.15,0,0,1,1.65-.45h5.82a3.33,3.33,0,0,1-.43,1.67Z" style="fill:#a7a9ac"/><path d="M262,119.52a4,4,0,0,1-1.61-.33A4.1,4.1,0,0,1,258.2,117a4,4,0,0,1-.33-1.61v-3.46a4,4,0,0,1,.33-1.6,4.21,4.21,0,0,1,.89-1.32,4.15,4.15,0,0,1,1.32-.89,4,4,0,0,1,1.62-.33,4.15,4.15,0,0,1,1.46.26,4.3,4.3,0,0,1,1.22.73,4.15,4.15,0,0,1,.91,1.08,4.24,4.24,0,0,1,.5,1.37,3.83,3.83,0,0,1-.77.3,2.94,2.94,0,0,1-.84.12,2.16,2.16,0,0,0-.27-.87,2.48,2.48,0,0,0-.54-.7,2.37,2.37,0,0,0-.76-.47,2.49,2.49,0,0,0-.91-.17,2.39,2.39,0,0,0-1,.2,2.47,2.47,0,0,0-.79.52,2.72,2.72,0,0,0-.54.78,2.58,2.58,0,0,0-.21,1v3.54a2.58,2.58,0,0,0,.21,1,2.48,2.48,0,0,0,1.33,1.27,2.39,2.39,0,0,0,1,.2h2.48v-2.09h-2.07a3.89,3.89,0,0,1,.09-.85,3.78,3.78,0,0,1,.32-.81h2a3.47,3.47,0,0,1,1.35.44v4.53a3.19,3.19,0,0,1-.79.32,3.12,3.12,0,0,1-.86.11Z" style="fill:#a7a9ac"/><path d="M275.81,119.65a4.14,4.14,0,0,1-1.62-.32,4.13,4.13,0,0,1-2.21-2.19,4,4,0,0,1-.33-1.6V111.9a4,4,0,0,1,.33-1.61,4.26,4.26,0,0,1,2.21-2.21,4.12,4.12,0,0,1,3.23,0,4.26,4.26,0,0,1,2.21,2.21,4,4,0,0,1,.33,1.61v3.64a4,4,0,0,1-.33,1.6,4.16,4.16,0,0,1-.89,1.31,4.24,4.24,0,0,1-1.32.88A4.17,4.17,0,0,1,275.81,119.65Zm0-1.65a2.38,2.38,0,0,0,.95-.2,2.82,2.82,0,0,0,.79-.51,2.67,2.67,0,0,0,.54-.77,2.44,2.44,0,0,0,.21-.94v-3.71a2.58,2.58,0,0,0-.21-1,2.72,2.72,0,0,0-.54-.78,2.67,2.67,0,0,0-.79-.53,2.5,2.5,0,0,0-1.91,0,2.55,2.55,0,0,0-.79.53,2.43,2.43,0,0,0-.74,1.74v3.71a2.28,2.28,0,0,0,.22.94,2.46,2.46,0,0,0,.53.77,2.82,2.82,0,0,0,.79.51A2.31,2.31,0,0,0,275.81,118Z" style="fill:#a7a9ac"/><path d="M287.08,109.55v3.32h5a3.38,3.38,0,0,1-.45,1.67h-4.55v3.33h6.24a3.38,3.38,0,0,1-.43,1.65h-5.81a3.15,3.15,0,0,1-1.65-.45V108.33a3.15,3.15,0,0,1,1.65-.45h5.82a3.33,3.33,0,0,1-.43,1.67Z" style="fill:#a7a9ac"/><path d="M303.69,117.87a1.74,1.74,0,0,0,.64-.13,1.7,1.7,0,0,0,.54-.36,1.6,1.6,0,0,0,.36-.54,1.56,1.56,0,0,0,.13-.64,1.61,1.61,0,0,0-.13-.65,1.47,1.47,0,0,0-.36-.53,1.53,1.53,0,0,0-.54-.35,1.56,1.56,0,0,0-.64-.13H302a3.11,3.11,0,0,1-1.29-.27,3.3,3.3,0,0,1-1.05-.71,3.5,3.5,0,0,1-.72-1,3.18,3.18,0,0,1-.26-1.3,3.1,3.1,0,0,1,.26-1.29,3.43,3.43,0,0,1,.72-1.06,3.47,3.47,0,0,1,1.05-.71,3.11,3.11,0,0,1,1.29-.27h3.72a3.63,3.63,0,0,1,.32.79,3.6,3.6,0,0,1,.11.88H302a1.74,1.74,0,0,0-.64.13,1.77,1.77,0,0,0-.53.36,1.49,1.49,0,0,0-.35.53,1.56,1.56,0,0,0-.13.64,1.74,1.74,0,0,0,.48,1.18,1.47,1.47,0,0,0,.53.36,1.56,1.56,0,0,0,.64.13h1.66a3.33,3.33,0,0,1,2.35,1,3.47,3.47,0,0,1,.71,1.05,3.24,3.24,0,0,1,0,2.59,3.47,3.47,0,0,1-.71,1.05,3.43,3.43,0,0,1-1.06.72,3.27,3.27,0,0,1-1.29.26h-4.53a3.15,3.15,0,0,1-.45-1.65Z" style="fill:#a7a9ac"/><path d="M322.92,107.75v5.12h5V108.2a3.21,3.21,0,0,1,1.66-.45v11.47a3.77,3.77,0,0,1-.78.32,3.6,3.6,0,0,1-.88.11v-5.11h-5v4.68a3.35,3.35,0,0,1-1.67.43V108.2A3.24,3.24,0,0,1,322.92,107.75Z" style="fill:#a7a9ac"/><path d="M336.68,109.55v3.32h5a3.38,3.38,0,0,1-.45,1.67h-4.55v3.33h6.24a3.29,3.29,0,0,1-.44,1.65h-5.8a3.21,3.21,0,0,1-1.66-.45V108.33a3.21,3.21,0,0,1,1.66-.45h5.82a3.33,3.33,0,0,1-.43,1.67Z" style="fill:#a7a9ac"/><path d="M355.23,114.3a4.2,4.2,0,0,1,1,1.37,4.33,4.33,0,0,1,.38,1.73v1.85a2.77,2.77,0,0,1-.81.31,4.12,4.12,0,0,1-.86.09v-2.38a2.43,2.43,0,0,0-.77-1.66,2.67,2.67,0,0,0-.78-.5,2.5,2.5,0,0,0-.94-.18H350v4.29a3.26,3.26,0,0,1-1.66.43V108.3a2.59,2.59,0,0,1,.81-.32,4.19,4.19,0,0,1,.85-.1h3.33a3.21,3.21,0,0,1,1.27.26,3.57,3.57,0,0,1,1.05.7,3,3,0,0,1,.72,1,3.19,3.19,0,0,1,.29,1.27v.45a3.25,3.25,0,0,1-.38,1.54A3.33,3.33,0,0,1,355.23,114.3ZM350,109.55v.87c0,.34,0,.68,0,1s0,.69,0,1v.81h3.38a1.44,1.44,0,0,0,.62-.13,1.66,1.66,0,0,0,.49-.34,1.74,1.74,0,0,0,.35-.5,1.78,1.78,0,0,0,.16-.6v-.48a1.53,1.53,0,0,0-.14-.64,2,2,0,0,0-.37-.52,1.77,1.77,0,0,0-.53-.36,1.65,1.65,0,0,0-.63-.13Z" style="fill:#a7a9ac"/><path d="M363.75,109.55v3.32h5a3.38,3.38,0,0,1-.45,1.67h-4.55v3.33H370a3.28,3.28,0,0,1-.43,1.65h-5.81a3.15,3.15,0,0,1-1.65-.45V108.33a3.15,3.15,0,0,1,1.65-.45h5.82a3.33,3.33,0,0,1-.43,1.67Z" style="fill:#a7a9ac"/><path d="M184.36,55l-9.07.19V92.94h-7.91V55.16L158.07,55l.24-7h26.05Z" style="fill:#fff"/><path d="M195.85,92.94h-8V48h8Z" style="fill:#fff"/><path d="M235.77,90.39A26.5,26.5,0,0,1,222.93,94a24,24,0,0,1-17.31-7,22.89,22.89,0,0,1-7.27-17q0-9.55,7.66-16.3a25,25,0,0,1,17-6.51,27.9,27.9,0,0,1,6.57.66,33.05,33.05,0,0,1,6.15,2.44l-4.57,5.29q-2.19-1.34-8.58-1.34a16,16,0,0,0-11.34,4.72,14.81,14.81,0,0,0-5,11.1,16.44,16.44,0,0,0,4.74,11.81,15.47,15.47,0,0,0,11.56,4.92q5.85,0,8.58-2.49Z" style="fill:#fff"/><path d="M273.73,92.94H263.08L246.72,73.59l-.86.85v18.5h-8V48h8V64.77L263.08,48h10.65L252.44,68.3Z" style="fill:#fff"/><path d="M298.25,92.94H276.77V48l21.48-.06.18,8H284.8V65.2h12.66V73H284.8V84.67h13.63Z" style="fill:#fff"/><path d="M326.66,55l-9.06.19V92.94h-7.91V55.16L300.38,55l.24-7h26Z" style="fill:#fff"/><path d="M327.66,90.83a3.94,3.94,0,0,0,2.52.74,9.39,9.39,0,0,0,3.2-.53,12.9,12.9,0,0,0,2.8-1.41,17.11,17.11,0,0,0,2.41-1.95,26,26,0,0,0,2-2.15c.58-.72,1.1-1.41,1.54-2s.81-1.19,1.09-1.62h1.66q-.42.7-1.14,1.83c-.49.74-1.06,1.53-1.73,2.36a31.39,31.39,0,0,1-2.24,2.51A17.75,17.75,0,0,1,337,90.83a15.81,15.81,0,0,1-3.19,1.65,10,10,0,0,1-3.6.64,7.32,7.32,0,0,1-1.62-.19,6.6,6.6,0,0,1-1.53-.61q-1,2.4-1.91,4.72t-1.78,4.4c-.57,1.38-1.09,2.66-1.56,3.83l-1.25,3c-.36.87-.64,1.55-.83,2a8.5,8.5,0,0,1-.33.79l-3.12-1.54q1.52-3.57,2.72-6.54t2.23-5.55q1-2.59,1.93-4.86T325,88.25a5.35,5.35,0,0,1-.69-1.34,6.28,6.28,0,0,1-.29-1.07,1.39,1.39,0,0,1,.38-1.14,1.42,1.42,0,0,1,1.11-.46,1.59,1.59,0,0,1,1,.38c.59-1.42,1.12-2.68,1.59-3.76s.85-2,1.17-2.71.68-1.6.95-2.23c1.73-4.06,3.32-7.57,4.8-10.53s2.84-5.48,4.09-7.55a45.07,45.07,0,0,1,3.41-5,22.73,22.73,0,0,1,2.81-3,8.06,8.06,0,0,1,2.27-1.44,5.55,5.55,0,0,1,1.81-.37,4,4,0,0,1,2.22.58,2.45,2.45,0,0,1,1,2,9.56,9.56,0,0,1-.49,3.44,33,33,0,0,1-1.66,4.41,48.25,48.25,0,0,1-2.45,4.71,51.68,51.68,0,0,1-2.85,4.37,78.8,78.8,0,0,1-5,6.21q-2.25,2.46-3.94,4a23.82,23.82,0,0,1-2.82,2.24c-.75.49-1.31.82-1.66,1ZM350.83,51a2.1,2.1,0,0,0-.22-.87.8.8,0,0,0-.79-.38,3.49,3.49,0,0,0-.92.17,4.49,4.49,0,0,0-1.32.7,10.53,10.53,0,0,0-1.71,1.57A23.73,23.73,0,0,0,343.75,55a50.24,50.24,0,0,0-2.56,4.34q-1.38,2.58-3,6.24-1,2.31-2.4,5.63t-3,7.17a24.8,24.8,0,0,0,2.92-2.45q1.53-1.47,3.09-3.24c1-1.17,2.07-2.43,3.08-3.75s2-2.68,2.88-4,1.75-2.73,2.51-4.07,1.42-2.63,2-3.85a21.94,21.94,0,0,0,1.23-3.36A7.63,7.63,0,0,0,350.83,51Z" style="fill:#a7a9ac"/><path d="M358.13,84.86a.85.85,0,0,0,.23,0h.27a7.16,7.16,0,0,0,1.52-.16,4.65,4.65,0,0,0,1.26-.52,5,5,0,0,0,1.11-.94,8.59,8.59,0,0,0,1-1.41l1.07.83a8.77,8.77,0,0,1-2.94,2.82,6.71,6.71,0,0,1-3.21.81,4.57,4.57,0,0,1-1.1-.12,19.86,19.86,0,0,1-2.73,3.64,16.33,16.33,0,0,1-3,2.45,12.14,12.14,0,0,1-3,1.38,10.22,10.22,0,0,1-2.76.43,6.26,6.26,0,0,1-2.43-.46,5.45,5.45,0,0,1-1.91-1.32,6.17,6.17,0,0,1-1.25-2,7.57,7.57,0,0,1-.45-2.68,10.18,10.18,0,0,1,.48-3,17.5,17.5,0,0,1,1.29-3.06,21.59,21.59,0,0,1,1.92-2.92A22.87,22.87,0,0,1,346,76a24.43,24.43,0,0,1,2.64-2.2,16.93,16.93,0,0,1,2.73-1.61l.95,1.25a23.15,23.15,0,0,0-3.19,2.85A26.15,26.15,0,0,0,346.14,80,22.5,22.5,0,0,0,344,84.28a12.12,12.12,0,0,0-.85,4.29,4.45,4.45,0,0,0,.84,2.9,3,3,0,0,0,2.52,1,6.55,6.55,0,0,0,2.58-.53,11.23,11.23,0,0,0,2.5-1.46,16.93,16.93,0,0,0,2.35-2.18,32,32,0,0,0,2.14-2.69,5.25,5.25,0,0,1-1.52-1.35,8.22,8.22,0,0,1-1.1-1.93,11.25,11.25,0,0,1-.67-2.33,14.42,14.42,0,0,1-.22-2.56,8.92,8.92,0,0,1,.33-2.46,7.46,7.46,0,0,1,.9-2,4.84,4.84,0,0,1,1.36-1.38,3,3,0,0,1,1.69-.5,2.6,2.6,0,0,1,1.48.43,3.39,3.39,0,0,1,1.1,1.18,6.37,6.37,0,0,1,.69,1.8,10.53,10.53,0,0,1,.23,2.23,15.82,15.82,0,0,1-.14,2,21,21,0,0,1-.43,2.15,19.76,19.76,0,0,1-.69,2.14A10.4,10.4,0,0,1,358.13,84.86Zm-4-7.4a12.6,12.6,0,0,0,.14,1.87,10.59,10.59,0,0,0,.48,2,8.46,8.46,0,0,0,.83,1.77,3.87,3.87,0,0,0,1.25,1.29,14.49,14.49,0,0,0,.9-2.12c.25-.72.46-1.42.63-2.09a13.68,13.68,0,0,0,.35-1.89,13.07,13.07,0,0,0,.11-1.53,8.22,8.22,0,0,0-.15-1.63,5.87,5.87,0,0,0-.4-1.3,2.61,2.61,0,0,0-.62-.86,1.24,1.24,0,0,0-.82-.31,1.72,1.72,0,0,0-1.1.4,3.32,3.32,0,0,0-.86,1.07,6,6,0,0,0-.55,1.55A8.32,8.32,0,0,0,354.09,77.46Z" style="fill:#a7a9ac"/><path d="M380.48,82.69c-.29.44-.65,1-1.05,1.77S378.55,86,378,86.87s-1.13,1.73-1.77,2.62a16.48,16.48,0,0,1-2.11,2.41,10.74,10.74,0,0,1-2.48,1.75,6.12,6.12,0,0,1-2.85.69,4.85,4.85,0,0,1-1.58-.26,3.57,3.57,0,0,1-1.31-.78A3.93,3.93,0,0,1,365,92a4.94,4.94,0,0,1-.32-1.85,8.83,8.83,0,0,1,.58-3.05A24,24,0,0,1,366.64,84c.51-1,1-1.9,1.54-2.72a20.12,20.12,0,0,0,1.13-2,3,3,0,0,0,.36-1.27,1.08,1.08,0,0,0-.25-.69,4.51,4.51,0,0,0-.63-.58c-.25-.18-.5-.38-.77-.59a2.72,2.72,0,0,1-.67-.76l-1.51,2.41c-.46.69-.95,1.47-1.49,2.33s-1.05,1.71-1.54,2.54l-1.07-.83,6.35-10,.87.44-.2.57a2.45,2.45,0,0,0-.13.83,2,2,0,0,0,.1.64,1.35,1.35,0,0,0,.43.58c.8.71,1.42,1.26,1.88,1.65a11.12,11.12,0,0,1,1,.92,1.67,1.67,0,0,1,.39.56,1.87,1.87,0,0,1,.07.58,3.75,3.75,0,0,1-.12.86,9,9,0,0,1-.4,1.22c-.19.48-.44,1-.77,1.68s-.74,1.39-1.23,2.24c-.3.52-.59,1-.88,1.56a16.52,16.52,0,0,0-.77,1.59,11.67,11.67,0,0,0-.55,1.6,6.14,6.14,0,0,0-.21,1.55,2.12,2.12,0,0,0,.16.91,1.31,1.31,0,0,0,.43.52,1.72,1.72,0,0,0,.58.23,3.23,3.23,0,0,0,.61.06,3.73,3.73,0,0,0,2-.58,9.75,9.75,0,0,0,1.9-1.5A18,18,0,0,0,375,88.53c.59-.78,1.14-1.58,1.68-2.39s1-1.59,1.49-2.34.86-1.39,1.21-1.94Z" style="fill:#a7a9ac"/><path d="M401.41,92.94H379.93V48l21.48-.06.18,8H388V65.2h12.66V73H388V84.67h13.63Z" style="fill:#fff"/><path d="M443.94,48,422.88,95.25,401.53,48h8.88l12.41,28.35L435.24,48Z" style="fill:#fff"/><path d="M465.84,92.94H444.36V48l21.48-.06.18,8H452.39V65.2h12.66V73H452.39V84.67H466Z" style="fill:#fff"/><path d="M503.44,93.67l-26-26v25.8h-8.76v-47l25.79,25.79V47.43h9Z" style="fill:#fff"/><path d="M532.46,55l-9.07.19V92.94h-7.91V55.16l-9.3-.19.24-7h26Z" style="fill:#fff"/><path d="M566.1,79.49a13.42,13.42,0,0,1-4.65,10.2A15.26,15.26,0,0,1,550.83,94a15.79,15.79,0,0,1-10.7-3.71q-2.93-2.67-5.36-5.11L539.88,80a17.35,17.35,0,0,0,11.26,6.51,6.57,6.57,0,0,0,5.05-2.1,7.38,7.38,0,0,0,1.94-5.2q0-3.7-5.29-6.21-4.92-2.31-9.86-4.56a10.9,10.9,0,0,1-5.29-9.61,10.47,10.47,0,0,1,4.63-8.82,16.12,16.12,0,0,1,9.73-3q8.28,0,12.41,4.81l-4.62,5.35a13.11,13.11,0,0,0-8-2.92,7.22,7.22,0,0,0-4.08,1.22A4,4,0,0,0,545.66,59q0,2.68,3.23,4.38.36.18,5.41,2a24.22,24.22,0,0,1,6,3.16,12.68,12.68,0,0,1,4.51,5,17.61,17.61,0,0,1,.91,3A12.73,12.73,0,0,1,566.1,79.49Z" style="fill:#fff"/></g></g></svg>