<svg width="249" height="40" viewBox="0 0 249 40" fill="none" xmlns="http://www.w3.org/2000/svg">
<g clip-path="url(#clip0_48_326)">
<path d="M247.907 0.88472H191.989C191.395 0.88472 190.913 1.36256 190.913 1.95201V24.2681C190.913 24.8575 191.395 25.3354 191.989 25.3354H247.907C248.501 25.3354 248.982 24.8575 248.982 24.2681V1.95201C248.982 1.36256 248.501 0.88472 247.907 0.88472Z" fill="#E32227"/>
<path d="M23.765 38.0717C20.5707 38.7262 17.2597 38.5446 14.1576 37.5445C11.0555 36.5445 8.26901 34.7606 6.07219 32.368C3.87537 29.9755 2.34382 27.0569 1.62812 23.899C0.91243 20.7411 1.03723 17.4528 1.99026 14.3573C2.9433 11.2618 4.69174 8.46574 7.0637 6.24399C9.43565 4.02224 12.3494 2.45131 15.5186 1.68567C18.6877 0.920025 22.0031 0.986025 25.1388 1.87717C28.2744 2.76832 31.1224 4.45395 33.4026 6.76831L19.8815 19.8545L13.4104 13.2694L11.05 13.5434L10.7828 15.9034L19.8102 25.1004L35.7452 9.68959C37.402 12.2352 38.4088 15.1431 38.6783 18.1617C38.9479 21.1803 38.4722 24.2185 37.2924 27.0136C36.1126 29.8087 34.2642 32.2764 31.9072 34.2032C29.5501 36.1299 26.7555 37.4578 23.765 38.0717Z" fill="#E32227"/>
<path d="M195.834 8.99797C196.532 7.80691 197.54 6.82509 198.754 6.15648C200.069 5.45313 201.546 5.10197 203.039 5.13761C204.532 5.17326 205.99 5.59449 207.269 6.35978C208.573 7.17726 209.571 8.39604 210.11 9.82962H207.009C206.647 9.05506 206.054 8.40981 205.309 7.9815C204.538 7.56719 203.672 7.35864 202.795 7.37624C201.818 7.35719 200.853 7.59808 200.002 8.07391C199.182 8.54256 198.517 9.23763 198.088 10.0745C197.634 11.0215 197.399 12.0569 197.399 13.1054C197.399 14.154 197.634 15.1893 198.088 16.1363C198.521 16.9742 199.184 17.6728 200.002 18.1508C200.852 18.6318 201.817 18.876 202.795 18.8577C203.673 18.876 204.539 18.6657 205.309 18.2478C206.055 17.8216 206.649 17.1758 207.009 16.3997H210.11C209.572 17.8307 208.574 19.0457 207.269 19.8557C205.926 20.6773 204.373 21.099 202.795 21.0708C201.378 21.0851 199.982 20.7332 198.744 20.0497C197.535 19.3794 196.529 18.3978 195.834 17.2082C195.129 15.9507 194.759 14.5354 194.759 13.0962C194.759 11.657 195.129 10.2416 195.834 8.98411V8.99797Z" fill="white" stroke="white" stroke-width="1.2" stroke-miterlimit="10"/>
<path d="M221.293 20.9507L217.671 14.7041H215.701V20.9507H213.117V5.35717H218.574C219.632 5.32445 220.684 5.53972 221.642 5.98552C222.415 6.35455 223.062 6.93899 223.505 7.66732C223.921 8.38505 224.134 9.20046 224.124 10.0283C224.132 11.0233 223.819 11.9948 223.23 12.8005C222.556 13.6827 221.578 14.2879 220.483 14.5008L224.375 20.9692L221.293 20.9507ZM215.706 12.6619H218.574C218.969 12.691 219.365 12.6423 219.741 12.5186C220.116 12.3949 220.464 12.1986 220.762 11.9411C221.012 11.6862 221.205 11.3833 221.332 11.0511C221.459 10.719 221.515 10.3645 221.498 10.0098C221.518 9.66045 221.464 9.31083 221.338 8.98368C221.213 8.65652 221.02 8.35915 220.772 8.11087C220.156 7.60927 219.368 7.36417 218.574 7.42707H215.725L215.706 12.6619Z" fill="white" stroke="white" stroke-width="1.2" stroke-miterlimit="10"/>
<path d="M243.996 5.35716V20.9692H241.416V10.2547L236.616 20.9507H234.828L230.009 10.2547V20.9507H227.42V5.35716H230.214L235.741 17.601L241.235 5.35716H243.996Z" fill="white" stroke="white" stroke-width="1.2" stroke-miterlimit="10"/>
<path d="M62.0366 13.3318H66.3247V21.4867C65.1721 22.3352 63.8783 22.9764 62.5022 23.381C61.0877 23.8158 59.6157 24.0385 58.1349 24.0417C56.1619 24.0738 54.2121 23.6148 52.464 22.7064C50.8284 21.8592 49.4604 20.5801 48.5111 19.0102C47.5742 17.3786 47.0815 15.5331 47.0815 13.6552C47.0815 11.7774 47.5742 9.93187 48.5111 8.3003C49.4661 6.72509 50.8446 5.44513 52.4919 4.60406C54.2612 3.69845 56.2282 3.23983 58.2187 3.2688C59.8767 3.2375 61.5244 3.53435 63.0656 4.14203C64.469 4.70565 65.7182 5.59065 66.7112 6.72478L63.7034 9.49696C63.0409 8.76713 62.2297 8.18539 61.3234 7.7903C60.4172 7.39521 59.4366 7.1958 58.4469 7.20529C57.2501 7.18235 56.0668 7.45882 55.0061 8.00922C54.0276 8.52905 53.2197 9.31633 52.6781 10.2778C52.1278 11.3082 51.84 12.4567 51.84 13.6229C51.84 14.7891 52.1278 15.9376 52.6781 16.968C53.2237 17.9299 54.0303 18.7207 55.0061 19.2504C56.0512 19.8079 57.2232 20.0895 58.4096 20.0682C59.678 20.0877 60.9311 19.7923 62.0552 19.2089L62.0366 13.3318Z" fill="#231F20"/>
<path d="M86.3406 19.962V23.6952H70.6547V3.59683H85.9635V7.33004H75.3153V11.6916H84.7203V15.3093H75.3153V19.962H86.3406Z" fill="#231F20"/>
<path d="M94.2697 7.38548H87.7886V3.59683H105.439V7.38548H98.9582V23.6952H94.2697V7.38548Z" fill="#231F20"/>
<path d="M107.958 3.59683H112.647V19.9065H122.801V23.6952H107.958V3.59683Z" fill="#231F20"/>
<path d="M141.118 19.962V23.6952H125.437V3.59683H140.741V7.33004H130.093V11.6916H139.498V15.3093H130.093V19.962H141.118Z" fill="#231F20"/>
<path d="M158.191 19.389H148.786L146.994 23.6952H142.189L151.217 3.59683H155.849L164.905 23.6952H159.988L158.191 19.389ZM156.715 15.8591L153.503 8.1617L150.29 15.8591H156.715Z" fill="#231F20"/>
<path d="M167.019 3.59683H176.205C178.221 3.55655 180.219 3.98371 182.039 4.84432C183.662 5.62149 185.027 6.84308 185.973 8.36499C186.892 9.97668 187.374 11.7967 187.374 13.6483C187.374 15.4999 186.892 17.3199 185.973 18.9316C185.027 20.4522 183.662 21.6722 182.039 22.4477C180.219 23.3083 178.221 23.7354 176.205 23.6952H167.019V3.59683ZM175.986 19.8788C178.016 19.8788 179.627 19.3197 180.833 18.197C182.039 17.0743 182.644 15.5634 182.644 13.646C182.644 11.7286 182.039 10.2131 180.833 9.09499C179.627 7.97688 178.016 7.41782 175.986 7.41782H171.707V19.8926L175.986 19.8788Z" fill="#231F20"/>
<path d="M51.151 31.9286C50.4768 31.9286 49.8302 32.1943 49.3534 32.6674C48.8767 33.1405 48.6088 33.7822 48.6088 34.4512C48.6088 35.1203 48.8767 35.7619 49.3534 36.235C49.8302 36.7081 50.4768 36.9739 51.151 36.9739C51.9056 36.9527 52.6241 36.649 53.1624 36.1238L53.884 36.9231C53.1384 37.6551 52.139 38.0765 51.0905 38.1013C50.5999 38.1156 50.1114 38.0318 49.6541 37.8548C49.1969 37.6777 48.7803 37.4111 48.4291 37.0708C48.078 36.7305 47.7995 36.3236 47.6103 35.8742C47.4211 35.4248 47.325 34.9422 47.3278 34.4551C47.3306 33.9681 47.4323 33.4866 47.6267 33.0394C47.8211 32.5921 48.1042 32.1884 48.4593 31.8521C48.8144 31.5158 49.234 31.254 49.6933 31.0822C50.1525 30.9103 50.642 30.8321 51.1324 30.852C52.1554 30.8572 53.1373 31.2525 53.8747 31.9563L53.167 32.8388C52.9118 32.5582 52.6021 32.3317 52.2564 32.1729C51.9108 32.0141 51.5364 31.9263 51.1556 31.9147" fill="#231F20"/>
<path d="M62.0226 34.4651C62.0608 35.2243 61.8688 35.9774 61.4714 36.6272C61.074 37.2771 60.4894 37.7938 59.7932 38.1107C59.097 38.4277 58.321 38.5303 57.5654 38.4053C56.8099 38.2803 56.1094 37.9334 55.5544 37.4095C54.9994 36.8856 54.6154 36.2086 54.4519 35.466C54.2885 34.7234 54.3531 33.9492 54.6373 33.2433C54.9216 32.5375 55.4126 31.9324 56.0468 31.5061C56.681 31.0799 57.4294 30.852 58.1954 30.852C58.6871 30.8347 59.1773 30.915 59.6373 31.0882C60.0973 31.2613 60.5178 31.5238 60.8742 31.8603C61.2307 32.1968 61.5159 32.6006 61.7131 33.0478C61.9102 33.4951 62.0155 33.9769 62.0226 34.4651ZM55.616 34.4651C55.616 35.1452 55.8883 35.7974 56.3729 36.2783C56.8575 36.7592 57.5147 37.0294 58.2001 37.0294C58.8854 37.0294 59.5427 36.7592 60.0273 36.2783C60.5119 35.7974 60.7841 35.1452 60.7841 34.4651C60.7841 33.785 60.5119 33.1328 60.0273 32.6519C59.5427 32.171 58.8854 31.9008 58.2001 31.9008C57.5147 31.9008 56.8575 32.171 56.3729 32.6519C55.8883 33.1328 55.616 33.785 55.616 34.4651Z" fill="#231F20"/>
<path d="M64.5182 30.8844L68.3826 36.0314V30.8844H69.5839V38.0504H68.3826L64.5368 32.908V38.0504H63.3216V30.8844H64.5182Z" fill="#231F20"/>
<path d="M72.6847 30.8844L76.5538 36.0314V30.8844H77.7504V38.0504H76.5538L72.708 32.908V38.0504H71.4882V30.8844H72.6847Z" fill="#231F20"/>
<path d="M84.8181 30.8844V31.9701H80.8792V33.9153H84.4037V34.9872H80.8792V36.9647H84.9392V38.0504H79.6593V30.8844H84.8181Z" fill="#231F20"/>
<path d="M89.6463 31.9286C88.9721 31.9286 88.3255 32.1943 87.8488 32.6674C87.372 33.1405 87.1042 33.7822 87.1042 34.4512C87.1042 35.1203 87.372 35.7619 87.8488 36.235C88.3255 36.7081 88.9721 36.9739 89.6463 36.9739C90.401 36.9532 91.1198 36.6494 91.6577 36.1238L92.3794 36.9231C91.6345 37.6563 90.6347 38.0779 89.5858 38.1013C89.0952 38.1156 88.6067 38.0318 88.1495 37.8548C87.6923 37.6777 87.2757 37.4111 86.9245 37.0708C86.5734 36.7305 86.2949 36.3236 86.1057 35.8742C85.9164 35.4248 85.8204 34.9422 85.8232 34.4551C85.826 33.9681 85.9276 33.4866 86.122 33.0394C86.3164 32.5921 86.5996 32.1884 86.9547 31.8521C87.3097 31.5158 87.7294 31.254 88.1887 31.0822C88.6479 30.9103 89.1373 30.8321 89.6277 30.852C90.6506 30.8581 91.6321 31.2534 92.3701 31.9563L91.6577 32.8388C91.4029 32.5578 91.0932 32.331 90.7475 32.1721C90.4018 32.0133 90.0272 31.9257 89.6463 31.9147" fill="#231F20"/>
<path d="M98.5485 30.8844V31.9701H96.2578V38.0504H95.0379V31.9701H92.7612V30.8844H98.5485Z" fill="#231F20"/>
<path d="M112.796 37.4544C112.803 37.5437 112.792 37.6335 112.763 37.7182C112.734 37.803 112.687 37.8808 112.626 37.9467C112.565 38.0126 112.491 38.0653 112.408 38.1013C112.326 38.1373 112.236 38.1559 112.146 38.1559C112.056 38.1559 111.967 38.1373 111.884 38.1013C111.801 38.0653 111.727 38.0126 111.666 37.9467C111.605 37.8808 111.559 37.803 111.529 37.7182C111.5 37.6335 111.489 37.5437 111.497 37.4544C111.489 37.3652 111.5 37.2754 111.529 37.1906C111.559 37.1059 111.605 37.0281 111.666 36.9621C111.727 36.8962 111.801 36.8436 111.884 36.8076C111.967 36.7716 112.056 36.753 112.146 36.753C112.236 36.753 112.326 36.7716 112.408 36.8076C112.491 36.8436 112.565 36.8962 112.626 36.9621C112.687 37.0281 112.734 37.1059 112.763 37.1906C112.792 37.2754 112.803 37.3652 112.796 37.4544Z" fill="#231F20"/>
<path d="M131.261 36.4333H127.62L126.927 38.0505H125.655L128.845 30.8844H130.111L133.268 38.0505H131.974L131.261 36.4333ZM130.796 35.3568L129.431 32.1549L128.072 35.3383L130.796 35.3568Z" fill="#231F20"/>
<path d="M135.405 30.8844L139.274 36.0314V30.8844H140.471V38.0504H139.274L135.424 32.908V38.0504H134.208V30.8844H135.405Z" fill="#231F20"/>
<path d="M147.04 36.4333H143.399L142.71 38.0505H141.439L144.628 30.8844H145.876L149.033 38.0505H147.734L147.04 36.4333ZM146.575 35.3568L145.215 32.1549L143.856 35.3383L146.575 35.3568Z" fill="#231F20"/>
<path d="M151.207 30.8844V36.9508H154.336V38.0504H149.992V30.8844H151.207Z" fill="#231F20"/>
<path d="M158.461 35.6618V38.0504H157.251V35.7033L154.56 30.8844H155.789L157.851 34.3727L159.872 30.8844H161.11L158.461 35.6618Z" fill="#231F20"/>
<path d="M164.351 31.9701C163.639 31.9701 163.178 32.2335 163.178 32.714C163.178 34.2803 167.075 33.444 167.065 36.0221C167.065 37.302 165.929 38.092 164.342 38.092C163.251 38.085 162.2 37.6805 161.39 36.9554L161.916 35.9112C162.578 36.539 163.446 36.9096 164.36 36.9554C165.208 36.9554 165.715 36.6366 165.715 36.0822C165.715 34.4882 161.813 35.3799 161.813 32.848C161.813 31.619 162.875 30.852 164.444 30.852C165.34 30.8534 166.217 31.1082 166.972 31.5866L166.465 32.617C165.831 32.2155 165.102 31.9861 164.351 31.9516" fill="#231F20"/>
<path d="M173.644 30.8844V31.9701H169.705V33.9153H173.23V34.9872H169.705V36.9647H173.77V38.0504H168.485V30.8844H173.644Z" fill="#231F20"/>
<path d="M188.459 37.4544C188.467 37.5437 188.456 37.6335 188.427 37.7182C188.398 37.803 188.351 37.8808 188.29 37.9467C188.229 38.0126 188.155 38.0653 188.072 38.1013C187.989 38.1373 187.9 38.1559 187.81 38.1559C187.72 38.1559 187.63 38.1373 187.548 38.1013C187.465 38.0653 187.391 38.0126 187.33 37.9467C187.269 37.8808 187.222 37.803 187.193 37.7182C187.164 37.6335 187.153 37.5437 187.16 37.4544C187.153 37.3652 187.164 37.2754 187.193 37.1906C187.222 37.1059 187.269 37.0281 187.33 36.9621C187.391 36.8962 187.465 36.8436 187.548 36.8076C187.63 36.7716 187.72 36.753 187.81 36.753C187.9 36.753 187.989 36.7716 188.072 36.8076C188.155 36.8436 188.229 36.8962 188.29 36.9621C188.351 37.0281 188.398 37.1059 188.427 37.1906C188.456 37.2754 188.467 37.3652 188.459 37.4544Z" fill="#231F20"/>
<path d="M202.381 31.9286C201.707 31.9286 201.06 32.1943 200.583 32.6674C200.106 33.1405 199.839 33.7822 199.839 34.4512C199.839 35.1203 200.106 35.7619 200.583 36.235C201.06 36.7081 201.707 36.9739 202.381 36.9739C203.135 36.9532 203.854 36.6494 204.392 36.1238L205.118 36.9231C204.373 37.6551 203.373 38.0765 202.325 38.1013C201.834 38.1156 201.346 38.0318 200.889 37.8548C200.431 37.6777 200.015 37.4111 199.664 37.0708C199.312 36.7305 199.034 36.3236 198.845 35.8742C198.655 35.4248 198.559 34.9422 198.562 34.4551C198.565 33.9681 198.667 33.4866 198.861 33.0394C199.056 32.5921 199.339 32.1884 199.694 31.8521C200.049 31.5158 200.468 31.254 200.928 31.0822C201.387 30.9103 201.876 30.8321 202.367 30.852C203.39 30.8572 204.372 31.2525 205.109 31.9563L204.397 32.8388C204.143 32.5567 203.833 32.3292 203.487 32.1703C203.142 32.0114 202.766 31.9244 202.385 31.9147" fill="#231F20"/>
<path d="M213.257 34.4651C213.295 35.2243 213.103 35.9774 212.706 36.6272C212.308 37.2771 211.724 37.7938 211.028 38.1107C210.331 38.4277 209.555 38.5303 208.8 38.4053C208.044 38.2803 207.344 37.9334 206.789 37.4095C206.234 36.8856 205.85 36.2086 205.686 35.466C205.523 34.7234 205.587 33.9492 205.872 33.2433C206.156 32.5375 206.647 31.9324 207.281 31.5061C207.915 31.0799 208.664 30.852 209.43 30.852C209.922 30.8347 210.412 30.915 210.872 31.0882C211.332 31.2613 211.752 31.5238 212.109 31.8603C212.465 32.1968 212.75 32.6006 212.947 33.0478C213.145 33.4951 213.25 33.9769 213.257 34.4651ZM206.841 34.4651C206.841 35.1452 207.113 35.7974 207.598 36.2783C208.083 36.7592 208.74 37.0294 209.425 37.0294C210.111 37.0294 210.768 36.7592 211.252 36.2783C211.737 35.7974 212.009 35.1452 212.009 34.4651C212.009 33.785 211.737 33.1328 211.252 32.6519C210.768 32.171 210.111 31.9008 209.425 31.9008C208.74 31.9008 208.083 32.171 207.598 32.6519C207.113 33.1328 206.841 33.785 206.841 34.4651Z" fill="#231F20"/>
<path d="M215.753 30.8844L219.617 36.0314V30.8844H220.814V38.0504H219.617L215.771 32.908V38.0504H214.556V30.8844H215.753Z" fill="#231F20"/>
<path d="M223.114 30.8844L225.344 36.7059L227.593 30.8844H228.864L225.945 38.0504H224.683L221.805 30.8844H223.114Z" fill="#231F20"/>
<path d="M235 30.8844V31.9701H231.057V33.9153H234.586V34.9872H231.057V36.9647H235.121V38.0504H229.842V30.8844H235Z" fill="#231F20"/>
<path d="M241.188 38.0505L239.87 35.8789C239.768 35.8789 239.652 35.8789 239.54 35.8789H237.826V38.0412H236.611V30.8844H239.526C241.388 30.8844 242.436 31.7761 242.436 33.3285C242.468 33.8215 242.341 34.312 242.072 34.7278C241.803 35.1436 241.407 35.4628 240.941 35.6387L242.557 38.0366L241.188 38.0505ZM239.54 34.8162C240.653 34.8162 241.295 34.3542 241.295 33.3747C241.295 32.3952 240.653 31.9886 239.54 31.9886H237.826V34.8208L239.54 34.8162Z" fill="#231F20"/>
<path d="M248.996 30.8844V31.9701H246.71V38.0504H245.49V31.9701H243.213V30.8844H248.996Z" fill="#231F20"/>
</g>
<defs>
<clipPath id="clip0_48_326">
<rect width="249" height="39" fill="white" transform="translate(-0.00390625 0.0114746)"/>
</clipPath>
</defs>
</svg>
