<svg xmlns="http://www.w3.org/2000/svg" xmlns:xlink="http://www.w3.org/1999/xlink" viewBox="0 0 139.11 132.64"><defs><linearGradient id="linear-gradient" x1="79.99" y1="97.41" x2="132.98" y2="44.41" gradientUnits="userSpaceOnUse"><stop offset="0" stop-color="#f15a22"/><stop offset="0.7" stop-color="#faa61a"/></linearGradient><linearGradient id="linear-gradient-2" x1="655" y1="-1048.27" x2="708" y2="-1101.26" gradientTransform="translate(890.48 1017.6) rotate(-72)" gradientUnits="userSpaceOnUse"><stop offset="0" stop-color="#00746b"/><stop offset="0.7" stop-color="#00b5ad"/></linearGradient><linearGradient id="linear-gradient-3" x1="1496.72" y1="-855.33" x2="1549.71" y2="-908.32" gradientTransform="translate(1788.99 235.18) rotate(-144)" gradientUnits="userSpaceOnUse"><stop offset="0" stop-color="#023f88"/><stop offset="0.7" stop-color="#007dc5"/></linearGradient><linearGradient id="linear-gradient-4" x1="1754.37" y1="195.04" x2="1807.36" y2="142.05" gradientTransform="translate(1580.77 -813.78) rotate(144)" gradientUnits="userSpaceOnUse"><stop offset="0" stop-color="#410156"/><stop offset="0.7" stop-color="#812990"/></linearGradient><linearGradient id="linear-gradient-5" x1="802.04" y1="807.29" x2="855.03" y2="754.29" gradientTransform="translate(569.68 -921.7) rotate(72)" gradientUnits="userSpaceOnUse"><stop offset="0" stop-color="#91005e"/><stop offset="0.7" stop-color="#d80b8c"/></linearGradient></defs><g id="Layer_2" data-name="Layer 2"><g id="Logo"><path d="M126.47,50.53h0a5.34,5.34,0,1,1-10.68,0v0H103.17A38.55,38.55,0,0,1,68,85.38a49.93,49.93,0,0,0,71.16-34.84ZM106.3,63.06a1.41,1.41,0,0,1-1.4,1.2h-.21a1.41,1.41,0,0,1,.41-2.8h0A1.42,1.42,0,0,1,106.3,63.06Zm5.79.92a1.42,1.42,0,0,1-1.4,1.2l-.21,0a1.41,1.41,0,1,1,.41-2.79h0A1.42,1.42,0,0,1,112.09,64Zm5.78.91a1.42,1.42,0,0,1-1.4,1.21l-.21,0a1.41,1.41,0,0,1,.41-2.8h0A1.42,1.42,0,0,1,117.87,64.89Zm5.79.92a1.42,1.42,0,0,1-1.4,1.2h-.21a1.41,1.41,0,1,1,.41-2.8h0A1.43,1.43,0,0,1,123.66,65.81ZM128,67.93h-.21a1.42,1.42,0,0,1-1.19-1.61,1.39,1.39,0,0,1,1.6-1.19h0a1.41,1.41,0,0,1-.21,2.81Z" style="fill:url(#linear-gradient)"/><path d="M65.64,12h0a5.34,5.34,0,0,1-3.3,10.16h0l-3.92,12a38.54,38.54,0,0,1,22.3,44.27A49.92,49.92,0,0,0,69.56,0Zm5.69,23.06a1.41,1.41,0,0,1,.71,1.7A1.67,1.67,0,0,1,72,37a1.41,1.41,0,0,1-1.9.63,1.4,1.4,0,0,1-.63-1.89h0A1.41,1.41,0,0,1,71.33,35.07ZM74,29.85a1.41,1.41,0,0,1,.71,1.7,1.67,1.67,0,0,1-.08.2,1.41,1.41,0,1,1-2.53-1.26h0A1.42,1.42,0,0,1,74,29.85Zm2.66-5.22a1.42,1.42,0,0,1,.71,1.7,1.19,1.19,0,0,1-.08.2,1.41,1.41,0,1,1-2.53-1.26h0A1.43,1.43,0,0,1,76.65,24.63Zm2.66-5.21a1.41,1.41,0,0,1,.71,1.7,1.54,1.54,0,0,1-.08.19A1.42,1.42,0,0,1,78,22a1.4,1.4,0,0,1-.63-1.89h0A1.41,1.41,0,0,1,79.31,19.42Zm3.37-3.52a1.08,1.08,0,0,1-.08.19,1.42,1.42,0,0,1-1.9.64,1.4,1.4,0,0,1-.63-1.89h0a1.41,1.41,0,0,1,2.61,1.07Z" style="fill:url(#linear-gradient-2)"/><path d="M10.22,58v0a5.34,5.34,0,0,1,8.64,6.28l0,0,10.2,7.43a38.53,38.53,0,0,1,49-7.52A49.91,49.91,0,0,0,0,50.54ZM33.9,59.69a1.43,1.43,0,0,1,1.84-.15l.16.14a1.41,1.41,0,1,1-2,2h0A1.41,1.41,0,0,1,33.9,59.69Zm-4.14-4.14a1.42,1.42,0,0,1,1.84-.15l.16.13a1.42,1.42,0,0,1-2,2h0A1.41,1.41,0,0,1,29.76,55.55Zm-4.14-4.14a1.41,1.41,0,0,1,1.84-.15l.16.13a1.44,1.44,0,0,1,0,2,1.42,1.42,0,0,1-2,0h0A1.42,1.42,0,0,1,25.62,51.41Zm-4.14-4.14a1.42,1.42,0,0,1,1.84-.16l.16.14a1.43,1.43,0,0,1,0,2,1.41,1.41,0,0,1-2,0h0A1.42,1.42,0,0,1,21.48,47.27ZM19.18,43l.16.14a1.43,1.43,0,0,1,0,2,1.41,1.41,0,0,1-2,0h0A1.42,1.42,0,0,1,19.18,43Z" style="fill:url(#linear-gradient-3)"/><path d="M36.8,124.9v0a5.34,5.34,0,1,1,8.64-6.28l0,0,10.22-7.41a38.53,38.53,0,0,1,8-48.91,49.91,49.91,0,0,0-37.09,70Zm9-22a1.4,1.4,0,0,1,.42-1.79l.18-.11a1.41,1.41,0,0,1,1.91.6,1.4,1.4,0,0,1-.6,1.9h0A1.41,1.41,0,0,1,45.75,102.9Zm-5.22,2.66a1.4,1.4,0,0,1,.42-1.79,1.88,1.88,0,0,1,.18-.12,1.42,1.42,0,0,1,1.31,2.51h0A1.42,1.42,0,0,1,40.53,105.56Zm-5.22,2.66a1.43,1.43,0,0,1,.42-1.8l.18-.11a1.42,1.42,0,0,1,1.32,2.51h0A1.42,1.42,0,0,1,35.31,108.22Zm-5.22,2.66a1.43,1.43,0,0,1,.42-1.8l.18-.11A1.42,1.42,0,1,1,32,111.48h0A1.42,1.42,0,0,1,30.09,110.88Zm-4.79.86a.78.78,0,0,1,.18-.11,1.42,1.42,0,0,1,1.91.6,1.41,1.41,0,0,1-.6,1.9h0a1.41,1.41,0,0,1-1.48-2.4Z" style="fill:url(#linear-gradient-4)"/><path d="M108.65,120.29h0a5.34,5.34,0,1,1-3.31-10.16h0l-3.89-12A38.54,38.54,0,0,1,57.43,75.41a49.92,49.92,0,0,0,55.12,56.91ZM90.5,105a1.42,1.42,0,0,1-1.58-1,1.55,1.55,0,0,1,0-.21A1.42,1.42,0,0,1,90,102.19a1.4,1.4,0,0,1,1.62,1.16h0A1.41,1.41,0,0,1,90.5,105Zm.92,5.79a1.42,1.42,0,0,1-1.58-1,1.46,1.46,0,0,1,0-.2,1.42,1.42,0,1,1,2.79-.48h0A1.42,1.42,0,0,1,91.42,110.77Zm.91,5.78a1.4,1.4,0,0,1-1.57-1,.8.8,0,0,1-.05-.21,1.42,1.42,0,0,1,1.16-1.63,1.4,1.4,0,0,1,1.62,1.16h0A1.43,1.43,0,0,1,92.33,116.55Zm.92,5.79a1.42,1.42,0,0,1-1.58-1,1.29,1.29,0,0,1,0-.21,1.41,1.41,0,1,1,2.79-.47h0A1.42,1.42,0,0,1,93.25,122.34Zm-.66,4.83a.8.8,0,0,1,0-.21,1.42,1.42,0,0,1,1.16-1.63,1.4,1.4,0,0,1,1.62,1.16h0a1.43,1.43,0,0,1-1.17,1.63A1.4,1.4,0,0,1,92.59,127.17Z" style="fill:url(#linear-gradient-5)"/></g></g></svg>