<svg width="248" height="63" viewBox="0 0 248 63" fill="none" xmlns="http://www.w3.org/2000/svg">
<g clip-path="url(#clip0_4_557)">
<path d="M58.905 24.4174C58.905 25.0795 58.643 25.7143 58.1765 26.1824C57.7101 26.6506 57.0775 26.9135 56.4178 26.9135C55.7582 26.9135 55.1256 26.6506 54.6591 26.1824C54.1927 25.7143 53.9307 25.0795 53.9307 24.4174H48.0527C47.6627 28.6308 45.8077 32.5721 42.8126 35.5505C39.8176 38.5289 35.8736 40.3545 31.6719 40.7074C34.8668 42.3005 38.3841 43.1345 41.9517 43.1449C45.5192 43.1553 49.0413 42.3419 52.2455 40.7675C55.4496 39.1932 58.2498 36.9001 60.4296 34.0657C62.6093 31.2314 64.11 27.9317 64.8155 24.4221L58.905 24.4174ZM49.5106 30.2744C49.4871 30.4308 49.4083 30.5736 49.2886 30.6766C49.1689 30.7796 49.0162 30.8359 48.8585 30.8353H48.7607C48.5878 30.8099 48.432 30.7165 48.3276 30.5758C48.2232 30.4352 48.1788 30.2586 48.2041 30.085C48.2294 29.9115 48.3224 29.7551 48.4626 29.6504C48.6028 29.5456 48.7787 29.5011 48.9517 29.5265C49.1243 29.5519 49.2799 29.6448 49.3846 29.7849C49.4893 29.925 49.5346 30.1009 49.5106 30.2744ZM52.2073 30.7044C52.183 30.8605 52.1039 31.0027 51.9844 31.1055C51.8649 31.2083 51.7127 31.265 51.5553 31.2653H51.4575C51.3718 31.2531 51.2894 31.2241 51.215 31.1798C51.1405 31.1355 51.0755 31.077 51.0237 31.0074C50.9719 30.9379 50.9343 30.8587 50.9131 30.7746C50.8918 30.6904 50.8874 30.6028 50.9 30.5169C50.9125 30.431 50.9419 30.3485 50.9864 30.274C51.0308 30.1995 51.0895 30.1346 51.1591 30.0829C51.2286 30.0313 51.3077 29.9939 51.3917 29.9731C51.4756 29.9522 51.5629 29.9481 51.6484 29.9612C51.822 29.9866 51.9784 30.0802 52.0832 30.2213C52.188 30.3624 52.2327 30.5396 52.2073 30.7137V30.7044ZM54.8995 31.1298C54.8761 31.2867 54.7974 31.43 54.6778 31.5338C54.5582 31.6375 54.4055 31.6949 54.2474 31.6953H54.1496C53.9766 31.6699 53.8208 31.5766 53.7165 31.4359C53.6121 31.2952 53.5677 31.1187 53.593 30.9451C53.6183 30.7716 53.7113 30.6152 53.8515 30.5105C53.9917 30.4057 54.1676 30.3611 54.3405 30.3865C54.5122 30.412 54.6671 30.5043 54.7716 30.6433C54.8762 30.7823 54.9221 30.9571 54.8995 31.1298ZM57.5962 31.5598C57.5718 31.7159 57.4928 31.8581 57.3732 31.9609C57.2537 32.0637 57.1016 32.1204 56.9442 32.1207H56.8463C56.7607 32.1081 56.6784 32.0787 56.6041 32.0342C56.5298 31.9897 56.4649 31.9309 56.4132 31.8613C56.3615 31.7916 56.324 31.7124 56.3029 31.6282C56.2817 31.544 56.2772 31.4564 56.2898 31.3705C56.3023 31.2845 56.3316 31.2019 56.3759 31.1273C56.4203 31.0528 56.4788 30.9877 56.5483 30.9358C56.6177 30.8839 56.6966 30.8463 56.7805 30.825C56.8644 30.8038 56.9517 30.7993 57.0373 30.8119C57.2094 30.8385 57.3643 30.9317 57.4687 31.0715C57.5732 31.2113 57.619 31.3865 57.5962 31.5598ZM59.6176 32.5507H59.5198C59.3471 32.5242 59.1919 32.4302 59.0881 32.2892C58.9842 32.1482 58.9402 31.9717 58.9656 31.7982C58.9769 31.712 59.0054 31.629 59.0493 31.5541C59.0931 31.4792 59.1515 31.4139 59.221 31.362C59.2905 31.3101 59.3697 31.2728 59.4538 31.2522C59.5379 31.2315 59.6253 31.2281 59.7108 31.2419C59.8794 31.2613 60.034 31.3454 60.1422 31.4766C60.2504 31.6078 60.3038 31.776 60.2911 31.9459C60.2785 32.1157 60.2008 32.2741 60.0744 32.3877C59.9479 32.5013 59.7826 32.5615 59.613 32.5554L59.6176 32.5507Z" fill="url(#paint0_linear_4_557)"/>
<path d="M30.5726 6.40736C31.2002 6.61191 31.721 7.05825 32.0206 7.64821C32.3202 8.23816 32.374 8.92339 32.1702 9.55316C31.9664 10.1829 31.5216 10.7057 30.9338 11.0063C30.3459 11.307 29.6632 11.361 29.0356 11.1565L27.2098 16.7656C31.0898 18.4379 34.2581 21.4294 36.1578 25.2141C38.0575 28.9988 38.5668 33.3344 37.5963 37.4588C40.0927 34.9016 41.9693 31.8022 43.0809 28.4005C44.1925 24.9989 44.5093 21.3861 44.0068 17.8419C43.5043 14.2977 42.1959 10.917 40.183 7.96157C38.17 5.0061 35.5065 2.55508 32.3984 0.798187L30.5726 6.40736ZM33.2228 17.1863C33.3638 17.2569 33.4747 17.3761 33.5354 17.5219C33.5961 17.6678 33.6025 17.8307 33.5535 17.9809C33.55 18.0187 33.5438 18.0562 33.5349 18.0931C33.4963 18.171 33.4428 18.2405 33.3773 18.2975C33.3118 18.3545 33.2358 18.3979 33.1535 18.4253C33.0713 18.4527 32.9844 18.4634 32.898 18.457C32.8116 18.4505 32.7273 18.4269 32.6499 18.3876C32.5725 18.3493 32.5034 18.296 32.4466 18.2308C32.3899 18.1655 32.3466 18.0896 32.3193 18.0074C32.292 17.9252 32.2812 17.8384 32.2876 17.752C32.294 17.6657 32.3174 17.5814 32.3565 17.5042C32.4312 17.3484 32.5638 17.2283 32.7258 17.1697C32.8879 17.1111 33.0664 17.1187 33.2228 17.191V17.1863ZM34.4664 14.751C34.6073 14.8216 34.7183 14.9407 34.779 15.0866C34.8397 15.2325 34.8461 15.3954 34.7971 15.5456C34.7867 15.5776 34.7743 15.6088 34.7599 15.6391C34.7213 15.7168 34.6679 15.786 34.6027 15.843C34.5375 15.8999 34.4618 15.9434 34.3798 15.971C34.2978 15.9985 34.2113 16.0096 34.125 16.0036C34.0388 15.9976 33.9546 15.9746 33.8772 15.9359C33.7999 15.8973 33.7308 15.8437 33.6741 15.7782C33.6174 15.7128 33.574 15.6368 33.5466 15.5545C33.5191 15.4723 33.508 15.3854 33.514 15.2988C33.52 15.2123 33.5429 15.1278 33.5815 15.0501C33.6595 14.8929 33.7965 14.7731 33.9624 14.7171C34.1282 14.661 34.3095 14.6732 34.4664 14.751ZM35.7054 12.311C35.8456 12.3824 35.9559 12.5016 36.0165 12.6472C36.0771 12.7928 36.0841 12.9554 36.036 13.1056C36.0265 13.1379 36.014 13.1692 35.9988 13.1991C35.9602 13.2768 35.9068 13.346 35.8416 13.403C35.7764 13.4599 35.7007 13.5034 35.6187 13.531C35.5368 13.5585 35.4502 13.5696 35.364 13.5636C35.2777 13.5576 35.1935 13.5346 35.1162 13.4959C35.0388 13.4573 34.9698 13.4037 34.913 13.3382C34.8563 13.2728 34.813 13.1968 34.7855 13.1145C34.758 13.0323 34.747 12.9454 34.753 12.8589C34.759 12.7723 34.7819 12.6878 34.8204 12.6102C34.8993 12.455 35.0355 12.3369 35.2 12.281C35.3644 12.2251 35.5441 12.2359 35.7007 12.311H35.7054ZM36.9443 9.87569C37.0852 9.94633 37.1961 10.0654 37.2568 10.2113C37.3175 10.3572 37.324 10.5201 37.275 10.6703C37.2645 10.7007 37.2521 10.7304 37.2377 10.7591C37.2013 10.842 37.1484 10.9166 37.0823 10.9782C37.0161 11.0398 36.9381 11.0872 36.853 11.1174C36.768 11.1476 36.6776 11.16 36.5876 11.1539C36.4975 11.1477 36.4097 11.1231 36.3295 11.0817C36.252 11.0434 36.1829 10.9901 36.1262 10.9248C36.0694 10.8596 36.0261 10.7836 35.9988 10.7015C35.9715 10.6193 35.9608 10.5325 35.9672 10.4461C35.9735 10.3597 35.997 10.2755 36.036 10.1982C36.0719 10.1155 36.1243 10.041 36.1901 9.97946C36.2558 9.91789 36.3334 9.87052 36.4181 9.84028C36.5028 9.81004 36.5928 9.79758 36.6825 9.80367C36.7722 9.80977 36.8597 9.83428 36.9396 9.87569H36.9443ZM38.5139 8.23033C38.5043 8.26106 38.4919 8.2908 38.4766 8.31915C38.3986 8.47638 38.2616 8.59616 38.0958 8.65224C37.9299 8.70831 37.7486 8.69611 37.5917 8.6183C37.5142 8.58005 37.4451 8.52674 37.3884 8.46148C37.3316 8.39621 37.2883 8.32029 37.261 8.23811C37.2338 8.15593 37.223 8.06913 37.2294 7.98274C37.2358 7.89635 37.2592 7.8121 37.2983 7.73486C37.331 7.65475 37.3791 7.5819 37.4399 7.52046C37.5007 7.45902 37.5729 7.41019 37.6525 7.37677C37.7321 7.34335 37.8174 7.32598 37.9037 7.32567C37.99 7.32536 38.0754 7.3421 38.1553 7.37494C38.2351 7.40778 38.3077 7.45607 38.3689 7.51707C38.4301 7.57807 38.4788 7.65057 38.5121 7.73043C38.5454 7.8103 38.5627 7.89596 38.563 7.98254C38.5633 8.06911 38.5466 8.1549 38.5139 8.23501V8.23033Z" fill="url(#paint1_linear_4_557)"/>
<path d="M4.76009 27.9092C4.95215 27.644 5.19437 27.4194 5.47293 27.2481C5.75148 27.0769 6.06092 26.9624 6.38356 26.9112C6.70621 26.86 7.03575 26.873 7.35336 26.9496C7.67098 27.0262 7.97045 27.1648 8.23468 27.3576C8.49892 27.5503 8.72273 27.7934 8.89335 28.073C9.06397 28.3525 9.17806 28.6631 9.22909 28.9869C9.28013 29.3107 9.26712 29.6414 9.19079 29.9602C9.11447 30.2789 8.97634 30.5794 8.78428 30.8446L13.5351 34.3176C16.3189 31.1303 20.1337 29.0304 24.3082 28.3874C28.4826 27.7445 32.7493 28.5997 36.3574 30.8026C34.7077 27.6264 32.3513 24.8741 29.471 22.759C26.5907 20.6439 23.2637 19.2228 19.748 18.6058C16.2323 17.9888 12.6223 18.1925 9.19769 19.2012C5.77309 20.2098 2.62588 21.9963 0 24.4221L4.76009 27.9092ZM15.7894 28.6991C15.9009 28.5877 16.0482 28.5195 16.2051 28.5067C16.3619 28.4938 16.5183 28.5372 16.6464 28.629L16.7209 28.6944C16.782 28.7558 16.8306 28.8287 16.8637 28.9089C16.8968 28.9891 16.9138 29.0751 16.9138 29.1619C16.9138 29.2487 16.8968 29.3346 16.8637 29.4148C16.8306 29.495 16.782 29.5679 16.7209 29.6293C16.6597 29.6907 16.5871 29.7394 16.5072 29.7726C16.4273 29.8058 16.3416 29.8229 16.2551 29.8229C16.1686 29.8229 16.083 29.8058 16.003 29.7726C15.9231 29.7394 15.8505 29.6907 15.7894 29.6293C15.6668 29.5058 15.5979 29.3386 15.5979 29.1642C15.5979 28.9899 15.6668 28.8226 15.7894 28.6991ZM13.8611 26.764C13.9722 26.6517 14.1196 26.5829 14.2767 26.5701C14.4338 26.5572 14.5904 26.6011 14.7181 26.6938L14.7926 26.7546C14.8984 26.8818 14.9528 27.0442 14.9454 27.2097C14.9379 27.3752 14.8691 27.5319 14.7524 27.6491C14.6356 27.7662 14.4795 27.8353 14.3145 27.8428C14.1496 27.8503 13.9879 27.7956 13.8611 27.6895C13.7399 27.5661 13.672 27.3999 13.672 27.2267C13.672 27.0535 13.7399 26.8873 13.8611 26.764ZM11.9328 24.8288C12.0434 24.7157 12.1909 24.6463 12.3483 24.6334C12.5057 24.6205 12.6625 24.665 12.7898 24.7587L12.8644 24.8194C12.985 24.9449 13.0525 25.1125 13.0525 25.2869C13.0525 25.4613 12.985 25.6288 12.8644 25.7543C12.7405 25.8776 12.5731 25.9468 12.3986 25.9468C12.2241 25.9468 12.0567 25.8776 11.9328 25.7543C11.8128 25.6304 11.7456 25.4644 11.7456 25.2916C11.7456 25.1187 11.8128 24.9527 11.9328 24.8288ZM10.0046 22.8936C10.1151 22.7806 10.2622 22.711 10.4193 22.6973C10.5765 22.6836 10.7333 22.7267 10.8616 22.8188L10.9361 22.8843C11.0579 23.0092 11.126 23.177 11.126 23.3517C11.126 23.5264 11.0579 23.6942 10.9361 23.8191C10.8751 23.8808 10.8025 23.9297 10.7226 23.963C10.6426 23.9964 10.5569 24.0136 10.4703 24.0136C10.3838 24.0136 10.2981 23.9964 10.2181 23.963C10.1382 23.9297 10.0656 23.8808 10.0046 23.8191C9.88451 23.6952 9.81734 23.5292 9.81734 23.3564C9.81734 23.1836 9.88451 23.0175 10.0046 22.8936ZM8.93333 20.8977L9.00785 20.9631C9.12961 21.088 9.19779 21.2558 9.19779 21.4306C9.19779 21.6053 9.12961 21.7731 9.00785 21.898C8.94682 21.9596 8.87425 22.0085 8.79431 22.0419C8.71438 22.0753 8.62866 22.0924 8.54209 22.0924C8.45551 22.0924 8.3698 22.0753 8.28986 22.0419C8.20993 22.0085 8.13736 21.9596 8.07632 21.898C7.96561 21.7785 7.90266 21.6221 7.89952 21.459C7.89638 21.2958 7.95325 21.1372 8.05928 21.0134C8.16531 20.8896 8.31306 20.8094 8.4743 20.7881C8.63553 20.7667 8.79895 20.8058 8.93333 20.8977Z" fill="url(#paint2_linear_4_557)"/>
<path d="M17.14 59.1803C16.948 58.9151 16.8098 58.6146 16.7335 58.2958C16.6572 57.9771 16.6442 57.6463 16.6952 57.3225C16.7463 56.9987 16.8603 56.6882 17.031 56.4086C17.2016 56.1291 17.4254 55.886 17.6896 55.6933C17.9539 55.5005 18.2533 55.3619 18.571 55.2853C18.8886 55.2087 19.2181 55.1956 19.5408 55.2469C19.8634 55.2981 20.1728 55.4126 20.4514 55.5838C20.7299 55.755 20.9722 55.9796 21.1642 56.2448L25.9243 52.7812C23.7665 49.1393 22.9572 44.8506 23.6387 40.6691C24.3203 36.4877 26.4489 32.6812 29.6504 29.9191C26.1325 30.5136 22.7982 31.9126 19.9055 34.0079C17.0129 36.1032 14.6396 38.8385 12.9693 42.002C11.2991 45.1655 10.3767 48.6724 10.2737 52.2511C10.1707 55.8298 10.8898 59.3843 12.3753 62.6393L17.14 59.1803ZM21.3319 48.8968C21.2584 48.7571 21.2377 48.5955 21.2737 48.4417C21.3096 48.2879 21.3998 48.1524 21.5275 48.0601L21.6114 48.0087C21.688 47.9681 21.772 47.9432 21.8583 47.9354C21.9446 47.9275 22.0317 47.9369 22.1144 47.963C22.1971 47.989 22.2738 48.0313 22.3402 48.0873C22.4065 48.1433 22.4612 48.2119 22.501 48.2892C22.5413 48.3658 22.566 48.4496 22.5738 48.5359C22.5816 48.6222 22.5722 48.7092 22.5462 48.7918C22.5202 48.8744 22.4781 48.9511 22.4224 49.0172C22.3666 49.0834 22.2984 49.1378 22.2215 49.1773C22.1438 49.2216 22.0579 49.2495 21.9691 49.2593C21.8802 49.2692 21.7903 49.2607 21.7048 49.2344C21.6194 49.2082 21.5402 49.1647 21.472 49.1066C21.4039 49.0486 21.3483 48.9772 21.3086 48.8968H21.3319ZM18.9006 50.1402C18.8271 50.0005 18.8064 49.8389 18.8424 49.6851C18.8783 49.5313 18.9685 49.3958 19.0962 49.3035C19.1231 49.2832 19.1511 49.2645 19.1801 49.2474C19.3332 49.1819 19.5053 49.1768 19.662 49.2331C19.8188 49.2893 19.9486 49.4028 20.0256 49.5509C20.1026 49.699 20.1212 49.8708 20.0775 50.032C20.0339 50.1932 19.9313 50.332 19.7902 50.4206C19.7124 50.4643 19.6265 50.4917 19.5378 50.5011C19.4491 50.5106 19.3595 50.502 19.2742 50.4758C19.1889 50.4496 19.1098 50.4064 19.0416 50.3487C18.9734 50.291 18.9175 50.2201 18.8773 50.1402H18.9006ZM16.4693 51.3835C16.3975 51.2428 16.3777 51.0809 16.4135 50.9269C16.4493 50.7728 16.5384 50.6365 16.665 50.5422L16.7488 50.4908C16.9026 50.4198 17.0777 50.4108 17.238 50.4655C17.3982 50.5203 17.5315 50.6346 17.6102 50.785C17.689 50.9353 17.7074 51.1103 17.6615 51.2738C17.6156 51.4373 17.509 51.577 17.3636 51.664C17.2855 51.7084 17.1993 51.7364 17.1101 51.7463C17.0209 51.7562 16.9307 51.7477 16.8448 51.7215C16.759 51.6952 16.6794 51.6518 16.6108 51.5937C16.5423 51.5356 16.4862 51.4641 16.4461 51.3835H16.4693ZM14.0381 52.6269C13.9662 52.4861 13.9464 52.3243 13.9822 52.1702C14.018 52.0162 14.1071 51.8799 14.2337 51.7855L14.3175 51.7341C14.3953 51.6791 14.484 51.6415 14.5775 51.624C14.671 51.6065 14.7673 51.6095 14.8596 51.6327C14.9519 51.6559 15.0381 51.6988 15.1123 51.7586C15.1866 51.8183 15.2471 51.8934 15.2898 51.9787C15.3325 52.0641 15.3563 52.1577 15.3597 52.2531C15.3631 52.3485 15.3459 52.4436 15.3093 52.5317C15.2727 52.6199 15.2176 52.6991 15.1477 52.7639C15.0778 52.8287 14.9948 52.8777 14.9044 52.9074C14.7492 52.988 14.5686 53.0038 14.4019 52.9512C14.2353 52.8987 14.0961 52.7821 14.0148 52.6269H14.0381ZM11.8071 53.0289C11.8326 53.008 11.8608 52.9907 11.8909 52.9775C12.046 52.8968 12.2266 52.8811 12.3933 52.9336C12.56 52.9862 12.6992 53.1028 12.7805 53.2579C12.8607 53.4129 12.8762 53.5935 12.8238 53.76C12.7715 53.9265 12.6554 54.0654 12.501 54.1461C12.3529 54.2345 12.1761 54.261 12.0087 54.2197C11.8413 54.1785 11.6967 54.0728 11.6063 53.9256C11.5158 53.7784 11.4866 53.6013 11.5251 53.4327C11.5635 53.2641 11.6665 53.1173 11.8117 53.0242L11.8071 53.0289Z" fill="url(#paint3_linear_4_557)"/>
<path d="M50.6051 57.0254C50.2944 57.127 49.9668 57.1662 49.641 57.1407C49.3152 57.1152 48.9976 57.0256 48.7063 56.8769C48.415 56.7283 48.1558 56.5235 47.9433 56.2743C47.7309 56.0251 47.5695 55.7363 47.4682 55.4245C47.367 55.1126 47.328 54.7838 47.3533 54.4569C47.3787 54.1299 47.468 53.8111 47.6162 53.5188C47.7643 53.2265 47.9684 52.9663 48.2167 52.7531C48.465 52.5399 48.7527 52.3779 49.0635 52.2763L47.2516 46.6671C43.1354 47.5975 38.8242 47.0429 35.0749 45.1009C31.3255 43.1588 28.3776 39.9533 26.7488 36.0471C26.2256 39.5888 26.5215 43.2038 27.6136 46.6123C28.7057 50.0208 30.5648 53.1314 33.0468 55.7032C35.5289 58.2751 38.5674 60.2392 41.9271 61.4436C45.2868 62.648 48.8777 63.0603 52.4216 62.6486L50.6051 57.0254ZM42.1515 49.8784C41.9933 49.9031 41.8315 49.8694 41.6961 49.7834C41.5608 49.6974 41.4611 49.5651 41.4156 49.411C41.4134 49.3783 41.4134 49.3455 41.4156 49.3128C41.3901 49.1475 41.4278 48.9786 41.5211 48.8399C41.6143 48.7012 41.7563 48.603 41.9187 48.5649C42.0037 48.5502 42.0909 48.5526 42.175 48.572C42.2592 48.5914 42.3387 48.6273 42.4088 48.6778C42.479 48.7282 42.5385 48.7921 42.5839 48.8658C42.6293 48.9396 42.6597 49.0216 42.6732 49.1071C42.6894 49.1921 42.6888 49.2795 42.6714 49.3643C42.6539 49.4491 42.62 49.5296 42.5716 49.6012C42.5231 49.6728 42.4611 49.7342 42.389 49.7817C42.317 49.8293 42.2363 49.8621 42.1515 49.8784ZM42.58 52.5848C42.4218 52.6095 42.26 52.5758 42.1246 52.4898C41.9893 52.4039 41.8896 52.2715 41.8441 52.1174C41.842 52.0863 41.842 52.055 41.8441 52.0239C41.8216 51.9351 41.8175 51.8426 41.8323 51.7522C41.8471 51.6618 41.8803 51.5754 41.93 51.4986C41.9797 51.4217 42.0446 51.356 42.1209 51.3055C42.1971 51.2551 42.2829 51.221 42.3728 51.2055C42.4628 51.19 42.555 51.1933 42.6436 51.2153C42.7322 51.2373 42.8154 51.2774 42.8878 51.3332C42.9602 51.389 43.0203 51.4592 43.0643 51.5395C43.1084 51.6198 43.1354 51.7083 43.1436 51.7995C43.1595 51.8879 43.1574 51.9785 43.1374 52.066C43.1174 52.1535 43.0799 52.236 43.0272 52.3085C42.9746 52.381 42.9078 52.4421 42.8309 52.488C42.754 52.5339 42.6687 52.5636 42.58 52.5755V52.5848ZM43.0039 55.2866C42.8461 55.3121 42.6845 55.2786 42.5497 55.1925C42.4148 55.1063 42.3163 54.9734 42.2726 54.8191C42.2605 54.7876 42.2527 54.7546 42.2494 54.721C42.221 54.5481 42.2619 54.371 42.3631 54.2283C42.4643 54.0856 42.6176 53.9888 42.7896 53.9591C42.8747 53.9444 42.9619 53.9468 43.046 53.9662C43.1302 53.9855 43.2096 54.0215 43.2798 54.0719C43.35 54.1224 43.4095 54.1863 43.4549 54.26C43.5003 54.3337 43.5306 54.4157 43.5442 54.5013C43.5596 54.5878 43.5578 54.6766 43.539 54.7625C43.5202 54.8484 43.4847 54.9297 43.4345 55.0018C43.3843 55.0738 43.3204 55.1353 43.2465 55.1825C43.1726 55.2298 43.0902 55.262 43.0039 55.2772V55.2866ZM43.4324 57.993C43.2741 58.0177 43.1123 57.984 42.977 57.898C42.8416 57.812 42.742 57.6797 42.6965 57.5256C42.6938 57.4929 42.6938 57.4601 42.6965 57.4274C42.6675 57.2545 42.7081 57.077 42.8094 56.9341C42.9107 56.7913 43.0645 56.6946 43.2368 56.6655C43.4091 56.6363 43.5859 56.6771 43.7283 56.7788C43.8706 56.8805 43.9669 57.0348 43.996 57.2077C44.0119 57.296 44.0098 57.3867 43.9897 57.4742C43.9697 57.5616 43.9323 57.6441 43.8796 57.7167C43.8269 57.7892 43.7601 57.8503 43.6833 57.8961C43.6064 57.942 43.521 57.9718 43.4324 57.9836V57.993ZM43.125 60.2507C43.1207 60.2181 43.1207 60.1851 43.125 60.1525C43.0966 59.9797 43.1375 59.8026 43.2387 59.6599C43.3399 59.5171 43.4933 59.4204 43.6653 59.3906C43.7504 59.3759 43.8375 59.3783 43.9216 59.3977C44.0058 59.4171 44.0853 59.453 44.1555 59.5035C44.2256 59.5539 44.2852 59.6178 44.3305 59.6915C44.3759 59.7652 44.4063 59.8473 44.4198 59.9328C44.4468 60.1062 44.4048 60.2832 44.3028 60.4258C44.2009 60.5683 44.0472 60.6649 43.8749 60.6947C43.7161 60.726 43.5514 60.6969 43.4128 60.6131C43.2743 60.5293 43.1717 60.3968 43.125 60.2413V60.2507Z" fill="url(#paint4_linear_4_557)"/>
<path d="M78.2481 52.0099H76.9067V56.5253C76.6715 56.6603 76.4046 56.7297 76.1336 56.7263V52.0099H74.5872C74.5843 51.7338 74.6567 51.4622 74.7968 51.2246H78.4577C78.4589 51.5004 78.3865 51.7716 78.2481 52.0099Z" fill="#A7A9AC"/>
<path d="M80.7912 54.0011C80.792 53.7034 80.836 53.4074 80.9216 53.1224C81.0079 52.8435 81.1317 52.5777 81.2895 52.3324C81.4477 52.0902 81.6372 51.8701 81.8531 51.678C82.072 51.486 82.3185 51.3284 82.5844 51.2106C82.6313 51.1897 82.6821 51.1789 82.7334 51.1789C82.7847 51.1789 82.8355 51.1897 82.8824 51.2106C83.1477 51.3296 83.3941 51.487 83.6137 51.678C83.8269 51.8732 84.0147 52.0946 84.1726 52.3371C84.33 52.582 84.4523 52.8479 84.5359 53.127C84.6219 53.4104 84.6658 53.7049 84.6663 54.0011V56.5253C84.4308 56.6597 84.164 56.729 83.8932 56.7263V54.9173H81.5643V56.5253C81.3253 56.6592 81.0556 56.7285 80.7819 56.7263L80.7912 54.0011ZM81.5737 54.1414H83.9025C83.9029 53.9056 83.8779 53.6706 83.8279 53.4402C83.7779 53.2126 83.6948 52.9937 83.5811 52.7905C83.4775 52.6205 83.3539 52.4636 83.2131 52.3231C83.0734 52.1842 82.9169 52.0633 82.7474 51.9631C82.5773 52.0624 82.4207 52.1834 82.2816 52.3231C81.9744 52.6325 81.7612 53.0232 81.6668 53.4496C81.6133 53.6766 81.5821 53.9083 81.5737 54.1414Z" fill="#A7A9AC"/>
<path d="M89.133 56.6655C88.8765 56.6672 88.6226 56.6146 88.3878 56.5112C88.1592 56.4162 87.9517 56.2763 87.7776 56.0999C87.6027 55.9234 87.4621 55.7158 87.3631 55.4876C87.2605 55.2501 87.2081 54.9938 87.2094 54.735V53.1224C87.2081 52.8635 87.2605 52.6073 87.3631 52.3698C87.4609 52.1396 87.6016 51.9301 87.7776 51.7528C87.9547 51.5767 88.1633 51.4356 88.3924 51.3368C88.6322 51.2333 88.8906 51.1808 89.1516 51.1825C89.4892 51.1853 89.8203 51.2759 90.1125 51.4455C90.4048 51.6151 90.6482 51.8579 90.819 52.1501C90.9351 52.3475 91.014 52.5645 91.0519 52.7905C90.9381 52.8508 90.8178 52.8979 90.6933 52.9307C90.5662 52.9683 90.4345 52.9872 90.302 52.9868C90.2888 52.8446 90.2476 52.7064 90.1809 52.5802C90.1141 52.4577 90.0275 52.3471 89.9248 52.253C89.8217 52.1579 89.7016 52.0833 89.5708 52.0333C89.4373 51.9805 89.2951 51.9535 89.1516 51.9538C88.9915 51.9511 88.8326 51.983 88.6858 52.0473C88.5487 52.1038 88.4238 52.1863 88.3179 52.2903C88.2134 52.3962 88.1283 52.5196 88.0664 52.6549C88.003 52.8027 87.9698 52.9616 87.9686 53.1224V54.7771C87.9698 54.9379 88.003 55.0968 88.0664 55.2445C88.1894 55.5147 88.4112 55.7272 88.6858 55.8381C88.8326 55.9024 88.9915 55.9343 89.1516 55.9316H90.302V54.9547H89.3379C89.3373 54.8211 89.3513 54.6879 89.3798 54.5574C89.4144 54.425 89.4661 54.2977 89.5335 54.1788H90.465C90.6868 54.2016 90.9012 54.2717 91.0938 54.3844V56.5019C90.8599 56.6359 90.5947 56.7053 90.3253 56.7029L89.133 56.6655Z" fill="#A7A9AC"/>
<path d="M94.4008 51.1638V55.8942H97.1115C97.112 56.165 97.0414 56.431 96.9066 56.6655H94.4008C94.2655 56.6672 94.1307 56.6499 94.0002 56.6141C93.8686 56.5806 93.743 56.527 93.6276 56.4552V51.3789C93.8599 51.2353 94.128 51.1608 94.4008 51.1638Z" fill="#A7A9AC"/>
<path d="M99.6732 55.8942V52.0099H99.2074C99.2061 51.8747 99.2201 51.7399 99.2493 51.6079C99.2831 51.4738 99.3348 51.3448 99.403 51.2246H100.949C100.951 51.5004 100.878 51.7716 100.74 52.0099H100.465V55.8942H100.931C100.933 56.1658 100.861 56.4327 100.721 56.6655H99.2074C99.2065 56.5304 99.2206 56.3955 99.2493 56.2635C99.2833 56.1339 99.335 56.0096 99.403 55.8942H99.6732Z" fill="#A7A9AC"/>
<path d="M107.256 51.1638V56.4879C107.021 56.6229 106.754 56.6923 106.483 56.6889L104.154 52.7671V56.5066C103.917 56.641 103.648 56.7103 103.376 56.7076V51.4163C103.611 51.2753 103.88 51.201 104.154 51.2012L106.483 55.1323V51.3929C106.714 51.2449 106.982 51.1655 107.256 51.1638Z" fill="#A7A9AC"/>
<path d="M110.572 52.0099V53.5571H112.901C112.9 53.8311 112.827 54.1001 112.691 54.3377H110.572V55.8942H113.478C113.481 56.1645 113.411 56.4306 113.278 56.6655H110.572C110.301 56.6679 110.035 56.5951 109.804 56.4552V51.4349C110.035 51.295 110.301 51.2222 110.572 51.2246H113.283C113.285 51.4994 113.216 51.77 113.082 52.0099H110.572Z" fill="#A7A9AC"/>
<path d="M122.03 56.6655C121.772 56.6667 121.517 56.6142 121.28 56.5113C120.82 56.317 120.454 55.9495 120.26 55.4876C120.157 55.2501 120.105 54.9938 120.106 54.735V53.1224C120.105 52.8636 120.157 52.6073 120.26 52.3698C120.358 52.1396 120.498 51.9301 120.674 51.7528C120.852 51.5767 121.06 51.4356 121.289 51.3368C121.527 51.2332 121.784 51.1807 122.044 51.1825C122.276 51.1818 122.506 51.2229 122.724 51.3041C122.931 51.3854 123.123 51.5007 123.292 51.6453C123.461 51.788 123.604 51.9588 123.716 52.1501C123.83 52.3485 123.909 52.5651 123.949 52.7905C123.835 52.8501 123.714 52.8971 123.59 52.9307C123.463 52.9683 123.331 52.9872 123.199 52.9868C123.186 52.8438 123.143 52.7052 123.073 52.5802C122.976 52.3909 122.828 52.2323 122.646 52.1218C122.465 52.0113 122.256 51.9532 122.044 51.9538C121.884 51.951 121.725 51.9829 121.578 52.0473C121.441 52.1038 121.316 52.1863 121.21 52.2904C121.106 52.3962 121.02 52.5196 120.959 52.655C120.896 52.8031 120.861 52.9616 120.856 53.1224V54.7771C120.861 54.9379 120.896 55.0963 120.959 55.2445C121.082 55.5148 121.303 55.7273 121.578 55.8382C121.725 55.9026 121.884 55.9345 122.044 55.9316H123.199V54.9547H122.23C122.231 54.821 122.247 54.6877 122.277 54.5574C122.312 54.4258 122.362 54.2988 122.426 54.1788H123.357C123.579 54.2031 123.793 54.2731 123.986 54.3844V56.5019C123.871 56.5681 123.747 56.6184 123.618 56.6515C123.486 56.6875 123.35 56.7048 123.213 56.7029L122.03 56.6655Z" fill="#A7A9AC"/>
<path d="M128.462 56.7263C128.203 56.7278 127.946 56.6769 127.707 56.5767C127.245 56.3832 126.875 56.0159 126.678 55.553C126.576 55.317 126.524 55.0624 126.524 54.8051V53.1037C126.523 52.8449 126.576 52.5886 126.678 52.3511C126.878 51.8883 127.246 51.5191 127.707 51.3181C127.945 51.2164 128.201 51.164 128.46 51.164C128.718 51.164 128.974 51.2164 129.212 51.3181C129.673 51.5191 130.041 51.8883 130.241 52.3511C130.344 52.5886 130.396 52.8449 130.395 53.1037V54.8051C130.396 55.0624 130.343 55.317 130.241 55.553C130.143 55.7819 130.003 55.9898 129.827 56.1653C129.649 56.3401 129.441 56.4796 129.212 56.5767C128.974 56.6759 128.719 56.7268 128.462 56.7263ZM128.462 55.955C128.614 55.9547 128.765 55.9229 128.904 55.8615C129.04 55.8033 129.164 55.7227 129.272 55.6231C129.377 55.519 129.462 55.3972 129.524 55.2632C129.585 55.1247 129.619 54.9754 129.622 54.8238V53.0897C129.621 52.9289 129.587 52.7699 129.524 52.6222C129.462 52.4868 129.377 52.3634 129.272 52.2576C129.166 52.1536 129.041 52.0697 128.904 52.0099C128.694 51.9214 128.462 51.8976 128.238 51.9418C128.014 51.9859 127.808 52.0958 127.647 52.2576C127.538 52.3632 127.452 52.4896 127.393 52.6293C127.333 52.769 127.303 52.9192 127.302 53.071V54.8051C127.305 54.9573 127.34 55.1071 127.405 55.2445C127.463 55.3792 127.547 55.5014 127.652 55.6044C127.759 55.7029 127.882 55.7834 128.015 55.8428C128.154 55.9111 128.307 55.9493 128.462 55.955Z" fill="#A7A9AC"/>
<path d="M133.711 52.0099V53.5571H136.04C136.039 53.8311 135.967 54.1001 135.83 54.3377H133.711V55.8942H136.618C136.618 56.1643 136.549 56.4298 136.417 56.6655H133.711C133.441 56.6679 133.175 56.5951 132.943 56.4552V51.4349C133.175 51.295 133.441 51.2222 133.711 51.2246H136.422C136.424 51.4994 136.355 51.77 136.222 52.0099H133.711Z" fill="#A7A9AC"/>
<path d="M141.447 55.8942C141.55 55.893 141.651 55.8724 141.746 55.8335C141.839 55.7941 141.925 55.737 141.997 55.6652C142.07 55.5934 142.127 55.5075 142.165 55.4128C142.206 55.3185 142.226 55.2165 142.225 55.1136C142.226 55.0092 142.206 54.9058 142.165 54.8098C142.128 54.7158 142.07 54.6312 141.997 54.562C141.926 54.4902 141.84 54.4345 141.746 54.3984C141.652 54.3573 141.55 54.3366 141.447 54.3377H140.66C140.453 54.3392 140.248 54.2961 140.059 54.2115C139.877 54.1336 139.711 54.0209 139.57 53.8796C139.432 53.7449 139.318 53.5867 139.235 53.4122C139.153 53.2204 139.111 53.0133 139.114 52.8045C139.111 52.5971 139.152 52.3915 139.235 52.2015C139.316 52.0173 139.43 51.8494 139.57 51.706C139.712 51.5662 139.878 51.4537 140.059 51.3742C140.248 51.2895 140.453 51.2465 140.66 51.248H142.393C142.527 51.4875 142.596 51.7584 142.593 52.0332H140.66C140.558 52.0328 140.457 52.0519 140.362 52.0893C140.27 52.1299 140.187 52.1869 140.115 52.2576C140.044 52.3275 139.988 52.412 139.952 52.5054C139.911 52.5997 139.891 52.7016 139.892 52.8045C139.894 53.0101 139.974 53.2072 140.115 53.3561C140.184 53.4297 140.269 53.4872 140.362 53.5244C140.456 53.5655 140.558 53.5862 140.66 53.5851H141.433C141.638 53.5869 141.839 53.6291 142.027 53.7093C142.215 53.7895 142.385 53.9062 142.528 54.0525C142.667 54.1944 142.779 54.3608 142.859 54.5433C142.942 54.7343 142.985 54.9404 142.985 55.1487C142.985 55.357 142.942 55.563 142.859 55.754C142.779 55.9366 142.667 56.103 142.528 56.2448C142.386 56.3871 142.219 56.5013 142.034 56.5813C141.845 56.6645 141.64 56.706 141.433 56.7029H139.324C139.184 56.4701 139.112 56.2032 139.114 55.9316L141.447 55.8942Z" fill="#A7A9AC"/>
<path d="M150.404 51.1639V53.5571H152.733V51.3789C152.965 51.2358 153.233 51.1613 153.506 51.1639V56.5253C153.391 56.5886 153.269 56.6388 153.143 56.6749C153.009 56.7089 152.871 56.7262 152.733 56.7263V54.3377H150.404V56.5253C150.167 56.6593 149.899 56.7285 149.626 56.7263V51.3789C149.86 51.2359 150.13 51.1614 150.404 51.1639Z" fill="#A7A9AC"/>
<path d="M156.813 52.0099V53.5571H159.142C159.141 53.8311 159.068 54.1001 158.932 54.3377H156.813V55.8942H159.719C159.72 56.165 159.649 56.431 159.514 56.6655H156.813C156.541 56.6673 156.274 56.5946 156.04 56.4552V51.435C156.274 51.2956 156.541 51.2228 156.813 51.2246H159.524C159.526 51.4994 159.457 51.77 159.323 52.0099H156.813Z" fill="#A7A9AC"/>
<path d="M165.453 54.2255C165.65 54.405 165.808 54.6229 165.919 54.8659C166.033 55.1203 166.093 55.3956 166.096 55.6746V56.5393C165.978 56.6072 165.851 56.6561 165.718 56.6842C165.587 56.7123 165.452 56.7264 165.318 56.7263V55.6138C165.304 55.3181 165.175 55.0397 164.959 54.8379C164.853 54.7393 164.73 54.6602 164.596 54.6041C164.457 54.5481 164.308 54.5195 164.158 54.52H163.017V56.5253C162.782 56.6603 162.515 56.7297 162.244 56.7263V51.4209C162.36 51.3501 162.488 51.2995 162.621 51.2714C162.751 51.2423 162.884 51.2266 163.017 51.2246H164.568C164.771 51.2243 164.973 51.2657 165.159 51.3461C165.341 51.4252 165.506 51.536 165.648 51.6733C165.791 51.8042 165.905 51.9634 165.984 52.1408C166.069 52.3272 166.115 52.5293 166.119 52.7344V52.9448C166.12 53.1957 166.059 53.443 165.942 53.6646C165.827 53.8886 165.659 54.0811 165.453 54.2255ZM163.017 52.0099V52.4119C163.017 52.5708 163.017 52.7297 163.017 52.8793C163.017 53.0289 163.017 53.2018 163.017 53.3467V53.7254H164.591C164.691 53.7269 164.789 53.7061 164.88 53.6646C164.965 53.6259 165.042 53.572 165.108 53.5057C165.176 53.438 165.231 53.3589 165.271 53.272C165.312 53.1836 165.337 53.0886 165.346 52.9915V52.7671C165.346 52.6639 165.324 52.5618 165.281 52.468C165.236 52.3782 165.178 52.2962 165.108 52.2249C165.037 52.1542 164.953 52.0972 164.861 52.0566C164.768 52.0187 164.668 51.9997 164.568 52.0005L163.017 52.0099Z" fill="#A7A9AC"/>
<path d="M169.421 52.0099V53.5571H171.75C171.749 53.8311 171.677 54.1001 171.54 54.3377H169.421V55.8942H172.332C172.334 56.1645 172.265 56.4306 172.132 56.6655H169.426C169.155 56.6679 168.889 56.5951 168.657 56.4552V51.4349C168.889 51.295 169.155 51.2222 169.426 51.2246H172.137C172.139 51.4994 172.07 51.77 171.936 52.0099H169.421Z" fill="#A7A9AC"/>
<path d="M85.8633 26.5069L81.6435 26.5957V44.2412H77.9594V26.5817L73.6231 26.5069L73.7349 23.2349H85.8447L85.8633 26.5069Z" fill="#812990"/>
<path d="M91.2196 44.2412H87.4935V23.2349H91.2196V44.2412Z" fill="#812990"/>
<path d="M109.813 43.0492C107.995 44.1142 105.937 44.6951 103.832 44.7367C102.339 44.7595 100.856 44.4818 99.4712 43.9198C98.0865 43.3578 96.828 42.523 95.7701 41.4646C94.6861 40.4493 93.8251 39.2181 93.242 37.8499C92.659 36.4816 92.3668 35.0063 92.384 33.5183C92.384 30.5424 93.5733 28.0026 95.9518 25.8992C98.1162 23.9223 100.943 22.8359 103.87 22.8562C104.898 22.8376 105.925 22.9411 106.93 23.1647C107.92 23.4478 108.88 23.8299 109.794 24.3053L107.666 26.778C106.986 26.3604 105.654 26.1516 103.669 26.1516C102.688 26.1521 101.716 26.3472 100.809 26.7258C99.9028 27.1045 99.0799 27.6591 98.3877 28.3579C97.6554 29.0077 97.069 29.8064 96.6675 30.7009C96.266 31.5954 96.0586 32.5653 96.0589 33.5464C96.0429 34.5676 96.2299 35.5818 96.6089 36.5296C96.988 37.4775 97.5515 38.34 98.2666 39.0667C98.9539 39.8067 99.7882 40.3937 100.716 40.7898C101.643 41.186 102.643 41.3824 103.651 41.3665C105.467 41.3665 106.799 40.9785 107.647 40.2026L109.813 43.0492Z" fill="#812990"/>
<path d="M127.493 44.2412H122.533L114.913 35.1964L114.512 35.5937V44.2412H110.786V23.2349H114.512V31.0737L122.533 23.2349H127.493L117.577 32.7237L127.493 44.2412Z" fill="#812990"/>
<path d="M138.914 44.2412H128.909V23.2349L138.914 23.2068L138.998 26.9463H132.649V31.2747H138.546V34.9206H132.649V40.3755H138.998L138.914 44.2412Z" fill="#812990"/>
<path d="M152.146 26.5069L147.926 26.5957V44.2412H144.242V26.5817L139.906 26.5069L140.018 23.2349H152.127L152.146 26.5069Z" fill="#812990"/>
<path d="M152.612 43.2549C152.952 43.5015 153.366 43.6236 153.785 43.6008C154.293 43.6056 154.797 43.5218 155.276 43.3531C155.736 43.1874 156.174 42.9661 156.58 42.694C156.981 42.4249 157.357 42.1198 157.703 41.7825C158.032 41.4654 158.343 41.1299 158.634 40.7775C158.904 40.441 159.142 40.1185 159.351 39.8427C159.561 39.5669 159.729 39.2864 159.859 39.0854H160.632C160.502 39.3051 160.325 39.5903 160.097 39.9408C159.847 40.3143 159.578 40.6747 159.291 41.0206C158.964 41.4301 158.616 41.8218 158.248 42.1938C157.856 42.59 157.425 42.9455 156.962 43.2549C156.498 43.5678 155.999 43.8266 155.476 44.0262C154.94 44.2285 154.372 44.3299 153.799 44.3253C153.545 44.324 153.292 44.2942 153.045 44.2365C152.796 44.1717 152.557 44.0759 152.332 43.9514L151.443 46.139C151.151 46.8588 150.874 47.5444 150.614 48.1957C150.348 48.8407 150.106 49.439 149.882 49.9859C149.659 50.5328 149.468 51.0049 149.305 51.3882C149.142 51.7715 149.007 52.1127 148.918 52.3231C148.873 52.4487 148.822 52.5719 148.765 52.6923L147.311 51.9725C147.783 50.86 148.206 49.841 148.578 48.9155C148.951 47.99 149.297 47.1252 149.617 46.3213C149.927 45.5142 150.227 44.7569 150.516 44.0495C150.805 43.3422 151.09 42.6753 151.373 42.0489C151.237 41.8564 151.129 41.6455 151.051 41.4226C150.992 41.2602 150.947 41.0928 150.916 40.9224C150.905 40.8264 150.914 40.7289 150.944 40.6369C150.974 40.5448 151.023 40.4604 151.089 40.3896C151.155 40.3184 151.236 40.2623 151.326 40.2252C151.416 40.1881 151.513 40.1708 151.61 40.1745C151.781 40.178 151.946 40.2407 152.076 40.3522C152.351 39.6884 152.598 39.0995 152.817 38.5946C153.036 38.0898 153.213 37.6598 153.362 37.3279C153.511 36.996 153.674 36.58 153.804 36.2855C154.61 34.3878 155.35 32.7471 156.04 31.3635C156.729 29.9799 157.363 28.802 157.94 27.8344C158.42 27.0213 158.952 26.2406 159.533 25.4972C159.926 24.9911 160.364 24.5217 160.842 24.0949C161.154 23.8127 161.512 23.5852 161.899 23.4218C162.168 23.3169 162.453 23.2584 162.742 23.2489C163.106 23.236 163.465 23.3302 163.776 23.52C163.922 23.6275 164.04 23.7684 164.121 23.931C164.202 24.0935 164.244 24.2731 164.242 24.4549C164.264 25.0003 164.187 25.5453 164.014 26.0628C163.805 26.7675 163.547 27.4564 163.24 28.1242C162.901 28.8785 162.52 29.6135 162.099 30.3258C161.691 31.0287 161.248 31.7104 160.772 32.3685C159.909 33.537 159.132 34.5046 158.443 35.2712C157.754 36.0378 157.142 36.661 156.608 37.1409C156.197 37.5227 155.758 37.8727 155.295 38.188C154.945 38.417 154.684 38.5713 154.521 38.6554L152.612 43.2549ZM163.403 24.6371C163.399 24.4958 163.364 24.357 163.301 24.2305C163.264 24.1682 163.209 24.1181 163.143 24.0866C163.078 24.055 163.005 24.0433 162.933 24.0529C162.787 24.0599 162.643 24.0867 162.505 24.1323C162.283 24.2062 162.075 24.3168 161.89 24.4595C161.598 24.6739 161.331 24.9201 161.093 25.1934C160.732 25.607 160.4 26.046 160.101 26.5069C159.738 27.0553 159.342 27.7315 158.914 28.5355C158.485 29.3395 158.019 30.3118 157.516 31.4523C157.206 32.1721 156.833 33.0493 156.398 34.0839C155.964 35.1185 155.498 36.2357 155.001 37.4354C155.483 37.0892 155.938 36.7064 156.361 36.2902C156.836 35.8321 157.316 35.3273 157.8 34.7757C158.266 34.2288 158.765 33.6399 159.235 33.0229C159.705 32.4058 160.166 31.7701 160.576 31.1531C160.986 30.5361 161.391 29.877 161.745 29.2507C162.099 28.6243 162.407 28.0213 162.677 27.4511C162.91 26.9441 163.102 26.4188 163.25 25.8805C163.374 25.4784 163.426 25.0575 163.403 24.6371Z" fill="#A7A9AC"/>
<path d="M166.804 40.4644C166.839 40.4692 166.875 40.4692 166.911 40.4644H167.036C167.274 40.4649 167.512 40.4398 167.744 40.3896C167.951 40.3379 168.149 40.256 168.331 40.1465C168.523 40.0246 168.697 39.8768 168.848 39.7071C169.025 39.5037 169.181 39.2829 169.314 39.0481L169.812 39.436C169.465 39.9772 168.996 40.4287 168.443 40.7542C167.984 41.0037 167.47 41.1339 166.948 41.1328C166.776 41.135 166.604 41.1162 166.436 41.0767C166.078 41.6909 165.651 42.2618 165.164 42.7781C164.745 43.2142 164.276 43.5986 163.767 43.9234C163.332 44.2012 162.862 44.4183 162.37 44.5684C161.951 44.6968 161.517 44.7645 161.079 44.7694C160.693 44.7735 160.31 44.7004 159.952 44.5544C159.615 44.4152 159.312 44.2048 159.063 43.9374C158.81 43.6662 158.613 43.3488 158.48 43.0025C158.336 42.601 158.265 42.1766 158.271 41.7498C158.275 41.2738 158.35 40.8011 158.494 40.3475C158.649 39.8527 158.85 39.3738 159.095 38.9172C159.356 38.4387 159.655 37.9822 159.989 37.5523C160.345 37.1122 160.734 36.7011 161.154 36.3229C161.539 35.9516 161.95 35.608 162.383 35.2946C162.783 35.0044 163.209 34.7524 163.655 34.542L164.097 35.1263C163.562 35.5234 163.065 35.9694 162.612 36.4585C162.096 36.9928 161.63 37.5733 161.219 38.1927C160.818 38.8226 160.484 39.4931 160.222 40.1933C159.97 40.8321 159.836 41.5115 159.826 42.1985C159.796 42.6815 159.933 43.1602 160.213 43.5541C160.361 43.7173 160.544 43.8444 160.748 43.9254C160.952 44.0065 161.172 44.0394 161.391 44.0215C161.805 44.0214 162.213 43.9372 162.593 43.7738C163.009 43.5977 163.4 43.3683 163.757 43.0913C164.154 42.7872 164.52 42.446 164.852 42.0723C165.206 41.6714 165.539 41.2517 165.849 40.8149C165.574 40.6529 165.334 40.4385 165.141 40.1839C164.93 39.9078 164.758 39.6044 164.628 39.2818C164.486 38.9311 164.381 38.5659 164.316 38.1927C164.247 37.7976 164.213 37.3972 164.214 36.996C164.212 36.6074 164.263 36.2204 164.368 35.8462C164.459 35.5148 164.6 35.1995 164.787 34.9113C164.952 34.6569 165.166 34.4377 165.416 34.2662C165.65 34.1101 165.926 34.0286 166.207 34.0325C166.452 34.0281 166.692 34.0981 166.897 34.2335C167.109 34.3733 167.285 34.5625 167.409 34.7851C167.558 35.0476 167.666 35.3313 167.73 35.6265C167.803 35.9691 167.839 36.3185 167.838 36.6688C167.836 36.9815 167.814 37.2938 167.772 37.6037C167.724 37.9424 167.655 38.278 167.567 38.6087C167.483 38.9485 167.377 39.2826 167.251 39.609C167.13 39.9083 166.981 40.1948 166.804 40.4644ZM164.917 37.0054C164.919 37.2981 164.942 37.5902 164.987 37.8795C165.031 38.1976 165.106 38.5107 165.211 38.8143C165.307 39.1042 165.437 39.3818 165.597 39.6417C165.742 39.8857 165.941 40.0923 166.179 40.2447C166.345 39.926 166.485 39.5947 166.599 39.2537C166.715 38.9172 166.813 38.59 166.892 38.2768C166.967 37.9865 167.021 37.6913 167.055 37.3933C167.086 37.1562 167.103 36.9174 167.106 36.6782C167.108 36.4225 167.085 36.1673 167.036 35.9163C166.998 35.7071 166.936 35.5032 166.85 35.3086C166.782 35.1562 166.684 35.0194 166.561 34.9066C166.456 34.8133 166.32 34.7617 166.179 34.7617C165.992 34.762 165.811 34.8282 165.667 34.9487C165.5 35.0856 165.364 35.2559 165.267 35.4488C165.148 35.6774 165.062 35.9212 165.01 36.1734C164.95 36.4465 164.918 36.7255 164.917 37.0054Z" fill="#A7A9AC"/>
<path d="M177.213 39.45C177.078 39.6557 176.911 39.9175 176.724 40.2774C176.538 40.6373 176.314 40.9972 176.058 41.4039C175.802 41.8106 175.532 42.2126 175.234 42.6286C174.944 43.0352 174.614 43.4125 174.251 43.7551C173.907 44.0812 173.518 44.3567 173.096 44.5731C172.686 44.787 172.231 44.8976 171.769 44.8956C171.518 44.8963 171.27 44.8552 171.033 44.7741C170.806 44.6981 170.597 44.5737 170.423 44.4095C170.244 44.2369 170.101 44.0303 170.003 43.8018C169.899 43.5241 169.849 43.2291 169.854 42.9324C169.86 42.4449 169.951 41.9622 170.124 41.5067C170.305 41.0107 170.519 40.5281 170.767 40.0624C171.005 39.5949 171.233 39.1743 171.484 38.791C171.678 38.4897 171.853 38.1775 172.011 37.8561C172.11 37.6732 172.167 37.4704 172.178 37.2625C172.178 37.1446 172.137 37.0305 172.062 36.9399C171.973 36.8404 171.875 36.7497 171.769 36.6688C171.652 36.5847 171.536 36.4912 171.41 36.393C171.285 36.2953 171.179 36.1748 171.098 36.0378C170.87 36.4117 170.632 36.7857 170.395 37.1643C170.157 37.5429 169.952 37.8514 169.701 38.2534C169.449 38.6554 169.212 39.0527 168.983 39.4407L168.485 39.0527L171.443 34.3784L171.843 34.5841C171.843 34.6402 171.797 34.729 171.755 34.8505C171.712 34.9754 171.692 35.1066 171.694 35.2385C171.693 35.3401 171.709 35.4411 171.741 35.5376C171.782 35.6446 171.851 35.7383 171.941 35.8088C172.309 36.1406 172.602 36.3977 172.812 36.58C172.977 36.7128 173.132 36.8565 173.278 37.0101C173.356 37.0838 173.417 37.1729 173.459 37.2718C173.484 37.3599 173.495 37.4514 173.492 37.5429C173.489 37.6786 173.47 37.8135 173.436 37.9449C173.388 38.1392 173.325 38.3298 173.25 38.5152C173.161 38.7395 173.045 38.9826 172.891 39.3005C172.737 39.6183 172.546 39.9502 172.318 40.3475C172.178 40.5906 172.043 40.8149 171.908 41.0767C171.776 41.3178 171.656 41.5659 171.55 41.8199C171.446 42.064 171.36 42.3155 171.294 42.5725C171.23 42.8072 171.197 43.0491 171.196 43.2923C171.189 43.4379 171.215 43.5831 171.27 43.7177C171.315 43.8149 171.384 43.8987 171.471 43.9607C171.553 44.0128 171.645 44.0492 171.741 44.0683C171.834 44.0866 171.929 44.096 172.025 44.0963C172.355 44.096 172.678 44.002 172.956 43.8252C173.279 43.6293 173.576 43.3937 173.841 43.124C174.137 42.8302 174.412 42.5146 174.661 42.1798C174.931 41.8152 175.192 41.4413 175.443 41.0627C175.695 40.6841 175.909 40.3195 176.133 39.9736C176.356 39.6277 176.538 39.3192 176.701 39.0387L177.213 39.45Z" fill="#A7A9AC"/>
<path d="M186.962 44.2412H176.957V23.2349L186.962 23.2068L187.046 26.9463H180.716V31.2747H186.612V34.9206H180.716V40.3755H187.064L186.962 44.2412Z" fill="#812990"/>
<path d="M206.771 23.2349L196.962 45.321L187.018 23.2349H191.154L196.934 36.4865L202.719 23.2349H206.771Z" fill="#812990"/>
<path d="M216.971 44.2412H206.966V23.2349L216.971 23.2068L217.055 26.9463H210.706V31.2747H216.603V34.9206H210.706V40.3755H217.045L216.971 44.2412Z" fill="#812990"/>
<path d="M234.484 44.5824L222.374 32.4292V44.4889H218.294V22.5197L230.306 34.5747V22.9684H234.498L234.484 44.5824Z" fill="#812990"/>
<path d="M248 26.5069L243.776 26.5957V44.2412H240.091V26.5817L235.76 26.4928L235.872 23.2208H247.981L248 26.5069Z" fill="#812990"/>
</g>
<defs>
<linearGradient id="paint0_linear_4_557" x1="37.2564" y1="46.3306" x2="62.0254" y2="21.6453" gradientUnits="userSpaceOnUse">
<stop stop-color="#F15A22"/>
<stop offset="0.7" stop-color="#FAA61A"/>
</linearGradient>
<linearGradient id="paint1_linear_4_557" x1="44.6571" y1="33.8464" x2="28.7209" y2="2.68158" gradientUnits="userSpaceOnUse">
<stop stop-color="#00746B"/>
<stop offset="0.7" stop-color="#00B5AD"/>
</linearGradient>
<linearGradient id="paint2_linear_4_557" x1="35.1163" y1="22.9417" x2="0.633395" y2="28.3871" gradientUnits="userSpaceOnUse">
<stop stop-color="#023F88"/>
<stop offset="0.7" stop-color="#007DC5"/>
</linearGradient>
<linearGradient id="paint3_linear_4_557" x1="21.8139" y1="28.6841" x2="16.3117" y2="63.2784" gradientUnits="userSpaceOnUse">
<stop stop-color="#410156"/>
<stop offset="0.7" stop-color="#812990"/>
</linearGradient>
<linearGradient id="paint4_linear_4_557" x1="23.1504" y1="43.1247" x2="54.2971" y2="58.9419" gradientUnits="userSpaceOnUse">
<stop stop-color="#91005E"/>
<stop offset="0.7" stop-color="#D80B8C"/>
</linearGradient>
<clipPath id="clip0_4_557">
<rect width="248" height="62" fill="white" transform="translate(0 0.798187)"/>
</clipPath>
</defs>
</svg>
